<svg width="84" height="53" viewBox="0 0 84 53" fill="none" xmlns="http://www.w3.org/2000/svg">
<path fill-rule="evenodd" clip-rule="evenodd" d="M83.9999 0H0V10.3026H83.9999V0ZM47.1688 4.14365V3.32756C46.8374 3.25104 46.4428 3.20703 46.0876 3.20703C44.5015 3.20703 43.6019 3.90821 43.6019 5.15679C43.6019 6.39973 44.47 7.09528 46.0088 7.09528C46.3481 7.09528 46.79 7.05152 47.2399 6.97475V6.16992C46.94 6.25207 46.6086 6.29582 46.3087 6.29582C45.4248 6.29582 44.9199 5.8851 44.9199 5.14578C44.9199 4.41184 45.3933 4.00111 46.2219 4.00111C46.5375 4.00111 46.8768 4.0505 47.1688 4.14365ZM20.5511 7.09528C21.9717 7.09528 22.7765 6.38897 22.7765 5.1404C22.7765 3.90258 21.9875 3.20703 20.5829 3.20703C19.1465 3.20703 18.3416 3.91896 18.3416 5.18954C18.3416 6.41073 19.1388 7.09528 20.5511 7.09528ZM38.8513 3.30018V7.00776H40.1139V3.30018H38.8513ZM50.72 3.30018V7.00776H51.9827V3.30018H50.72ZM33.8166 4.12164H35.3712V3.30018H32.5539V7.00776H33.8166V5.63303H35.2054V4.81182H33.8166V4.12164ZM27.5192 4.12164H29.0739V3.30018H26.2566V7.00776H27.5192V5.63303H28.9083V4.81182H27.5192V4.12164ZM62.7069 7.00776H65.6583V6.1863H63.9696V3.30018H62.7069V7.00776ZM58.1062 7.00776H59.4162L58.0748 3.30018H56.6069L55.2654 7.00776H56.5281L56.7095 6.33421H57.9169L58.1062 7.00776ZM20.567 6.3012C19.983 6.3012 19.6516 5.89047 19.6516 5.15115C19.6516 4.41747 19.983 4.00674 20.567 4.00674C21.143 4.00674 21.4665 4.41747 21.4665 5.15115C21.4665 5.89047 21.143 6.3012 20.567 6.3012ZM56.9304 5.52913L57.2856 4.22016H57.3091L57.6802 5.52913H56.9304ZM83.9999 42.1177H0V52.4202H83.9999V42.1177ZM46.9006 45.4153V49.1226H48.1632V45.4153H46.9006ZM35.7026 45.4153V49.1226H36.9653V45.4153H35.7026ZM24.3705 46.2368H25.9252V45.4153H23.1081V49.1226H24.3705V47.7481H25.7596V46.9267H24.3705V46.2368ZM30.6679 46.2368H32.2225V45.4153H29.4053V49.1226H30.6679V47.7481H32.057V46.9267H30.6679V46.2368ZM65.3822 49.1226H68.3336V48.3012H66.6446V47.6332H68.081V46.8118H66.6446V46.2368H68.3098V45.4153H65.3822V49.1226ZM40.6347 49.1226H43.5861V48.3012H41.8974V45.4153H40.6347V49.1226ZM60.9471 46.2368H62.0915V45.4153H58.5244V46.2368H59.6844V49.1226H60.9471V46.2368ZM18.5075 49.1226H19.8174L18.4757 45.4153H17.0081L15.6664 49.1226H16.929L17.1107 48.4491H18.3181L18.5075 49.1226ZM54.2868 49.1226H55.5968L54.2554 45.4153H52.7875L51.446 49.1226H52.7087L52.8901 48.4491H54.0975L54.2868 49.1226ZM17.3316 47.644L17.6868 46.3353H17.7103L18.0811 47.644H17.3316ZM53.111 47.644L53.4661 46.3353H53.4897L53.8608 47.644H53.111ZM12.6131 21.3907H16.7913V19.8643C16.7913 18.3646 16.6654 17.2596 16.414 16.5493C16.1627 15.8392 15.6365 15.246 14.8362 14.7703C14.0357 14.2945 13.0201 14.0566 11.7896 14.0566C10.8831 14.0566 10.0809 14.2105 9.38301 14.5183C8.68472 14.8259 8.13907 15.2477 7.74543 15.7836C7.3518 16.3195 7.11538 16.877 7.03594 17.4558C6.95651 18.0348 6.9169 18.9032 6.9169 20.0609V24.7548C6.9169 26.3295 7.0459 27.5088 7.3039 28.2929C7.56189 29.0766 8.08784 29.6905 8.88174 30.1337C9.67564 30.5769 10.6846 30.7986 11.9086 30.7986C13.0862 30.7986 14.0769 30.5369 14.8808 30.0136C15.6846 29.49 16.2039 28.8805 16.4389 28.1849C16.6737 27.4893 16.7913 26.3098 16.7913 24.6465V24.0204H12.6131V26.04C12.6131 26.9223 12.565 27.4826 12.4692 27.7213C12.3734 27.9603 12.1699 28.0795 11.8591 28.0795C11.5347 28.0795 11.3263 27.9603 11.2338 27.7222C11.1411 27.4841 11.0948 26.9747 11.0948 26.1939V18.7311C11.0948 17.9173 11.1411 17.388 11.2338 17.1431C11.3263 16.8985 11.5447 16.776 11.8887 16.776C12.193 16.776 12.39 16.8768 12.4792 17.0779C12.5686 17.2795 12.6131 17.7862 12.6131 18.5981V21.3907ZM22.5253 17.3006L22.3667 19.0323C22.9486 17.7921 23.7923 17.1355 24.8973 17.0625V21.6969C24.1629 21.6969 23.6235 21.7962 23.2796 21.9947C22.9356 22.1932 22.7238 22.4694 22.6444 22.8232C22.5652 23.1773 22.5253 23.9929 22.5253 25.2697V30.4698H18.516V17.3006H22.5253ZM31.0891 19.6576C31.1617 19.8331 31.1982 20.258 31.1982 20.9329V27.0064C31.1982 27.5754 31.1602 27.9459 31.0839 28.1178C31.008 28.2899 30.8508 28.3758 30.6127 28.3758C30.3811 28.3758 30.2257 28.2816 30.1463 28.0931C30.0669 27.9044 30.0273 27.4993 30.0273 26.8774V20.9329C30.0273 20.258 30.0669 19.8331 30.1463 19.6576C30.2257 19.4824 30.3844 19.3946 30.6227 19.3946C30.8608 19.3946 31.0161 19.4824 31.0891 19.6576ZM35.2075 25.1506V21.9252C35.2075 20.9924 35.1432 20.2976 35.014 19.8411C34.8852 19.3847 34.6451 18.9415 34.2946 18.5113C33.9437 18.0814 33.4459 17.7324 32.8011 17.4644C32.1557 17.1965 31.3834 17.0625 30.4837 17.0625C29.4119 17.0625 28.532 17.2709 27.8438 17.6876C27.1557 18.1044 26.6793 18.6569 26.4147 19.3449C26.15 20.0332 26.0177 20.9891 26.0177 22.2131V25.5872C26.0177 26.7054 26.0905 27.5439 26.2361 28.1028C26.3815 28.662 26.6248 29.1384 26.9657 29.5322C27.3063 29.9258 27.7843 30.2203 28.3996 30.4151C29.015 30.6104 29.7657 30.7081 30.6523 30.7081C31.4462 30.7081 32.1493 30.5938 32.7613 30.3657C33.3733 30.1374 33.8744 29.7836 34.2647 29.3036C34.655 28.8242 34.9099 28.308 35.0289 27.7557C35.148 27.2034 35.2075 26.335 35.2075 25.1506ZM45.061 21.5084H41.5081V20.7939C41.5081 20.1852 41.4735 19.7999 41.4038 19.6377C41.3345 19.4757 41.1607 19.3946 40.883 19.3946C40.658 19.3946 40.4892 19.4691 40.3768 19.6178C40.2642 19.7667 40.2082 19.9901 40.2082 20.2877C40.2082 20.6915 40.2362 20.9874 40.2924 21.1759C40.3486 21.3644 40.5174 21.5714 40.7986 21.7962C41.0798 22.0213 41.657 22.3487 42.5303 22.7787C43.6946 23.3477 44.4589 23.8836 44.8229 24.3864C45.1866 24.8893 45.3685 25.6204 45.3685 26.5795C45.3685 27.6514 45.2298 28.4604 44.9519 29.0058C44.674 29.5519 44.2092 29.9721 43.5576 30.2666C42.9057 30.5607 42.1199 30.7081 41.2005 30.7081C40.1816 30.7081 39.3102 30.5493 38.5853 30.2317C37.8611 29.914 37.3632 29.4841 37.0919 28.9415C36.8206 28.3992 36.685 27.5788 36.685 26.4804V25.8452H40.2378V26.6789C40.2378 27.3869 40.2826 27.8467 40.3718 28.0583C40.4612 28.2702 40.6381 28.3758 40.9027 28.3758C41.1871 28.3758 41.3855 28.3048 41.4982 28.1626C41.6106 28.0203 41.667 27.7208 41.667 27.2644C41.667 26.636 41.594 26.2421 41.4486 26.0835C41.2964 25.9246 40.5191 25.4549 39.1165 24.6742C37.9387 24.0126 37.2209 23.4122 36.9629 22.873C36.7049 22.3338 36.5759 21.6938 36.5759 20.9526C36.5759 19.9007 36.7148 19.125 36.9928 18.6254C37.2707 18.126 37.7421 17.7407 38.4068 17.4694C39.0719 17.1981 39.8442 17.0625 40.7242 17.0625C41.5975 17.0625 42.3402 17.1732 42.952 17.395C43.564 17.6167 44.0339 17.9095 44.3612 18.2733C44.6889 18.637 44.8874 18.9745 44.9566 19.2853C45.0263 19.5964 45.061 20.0828 45.061 20.7443V21.5084ZM51.4195 21.5084H54.9724V20.7443C54.9724 20.0828 54.9378 19.5964 54.8681 19.2853C54.7988 18.9745 54.6003 18.637 54.2726 18.2733C53.9454 17.9095 53.4754 17.6167 52.8634 17.395C52.2516 17.1732 51.5089 17.0625 50.6356 17.0625C49.7556 17.0625 48.9833 17.1981 48.3182 17.4694C47.6535 17.7407 47.1819 18.126 46.9042 18.6254C46.6263 19.125 46.4873 19.9007 46.4873 20.9526C46.4873 21.6938 46.6163 22.3338 46.8743 22.873C47.1323 23.4122 47.8501 24.0126 49.0279 24.6742C50.4305 25.4549 51.2078 25.9246 51.36 26.0835C51.5054 26.2421 51.5784 26.636 51.5784 27.2644C51.5784 27.7208 51.522 28.0203 51.4096 28.1626C51.297 28.3048 51.0985 28.3758 50.8142 28.3758C50.5495 28.3758 50.3726 28.2702 50.2832 28.0583C50.1941 27.8467 50.1493 27.3869 50.1493 26.6789V25.8452H46.5964V26.4804C46.5964 27.5788 46.7321 28.3992 47.0033 28.9415C47.2746 29.4841 47.7725 29.914 48.4968 30.2317C49.2214 30.5493 50.0931 30.7081 51.112 30.7081C52.0314 30.7081 52.8172 30.5607 53.469 30.2666C54.1206 29.9721 54.5854 29.5519 54.8633 29.0058C55.141 28.4604 55.28 27.6514 55.28 26.5795C55.28 25.6204 55.0979 24.8893 54.7343 24.3864C54.3703 23.8836 53.6061 23.3477 52.4418 22.7787C51.5685 22.3487 50.9913 22.0213 50.7101 21.7962C50.4288 21.5714 50.26 21.3644 50.2038 21.1759C50.1476 20.9874 50.1196 20.6915 50.1196 20.2877C50.1196 19.9901 50.1756 19.7667 50.2882 19.6178C50.4006 19.4691 50.5692 19.3946 50.7943 19.3946C51.0722 19.3946 51.246 19.4757 51.3152 19.6377C51.3849 19.7999 51.4195 20.1852 51.4195 20.7939V21.5084ZM56.8143 14.3813H63.8901V17.5968H60.9922V20.6436H63.5724V23.7001H60.9922V30.4485H56.8143V14.3813ZM69.2594 30.448V17.2788H65.1309V30.448H69.2594ZM69.2594 16.4749V14.3809H65.1309V16.4749H69.2594ZM75.2726 15.5361V17.6103H76.3544V19.6944H75.2726V26.7405C75.2726 27.6072 75.3172 28.0902 75.4066 28.1894C75.4958 28.2887 75.868 28.3383 76.523 28.3383V30.462H74.9053C73.9924 30.462 73.3405 30.4238 72.9504 30.3477C72.5599 30.272 72.216 30.0966 71.9182 29.822C71.6206 29.5474 71.4352 29.233 71.3624 28.879C71.2896 28.5253 71.2533 27.6931 71.2533 26.3832V19.6944H70.39V17.6103H71.2533V15.5361H75.2726ZM12.2539 33.7586C12.2862 33.8287 12.3024 33.9898 12.3024 34.2414V36.7276C12.3024 37.0464 12.2868 37.2478 12.2557 37.3326C12.2246 37.4172 12.1535 37.4595 12.0421 37.4595C11.9332 37.4595 11.864 37.4226 11.8343 37.3494C11.8044 37.2755 11.7897 37.0821 11.7897 36.7676V34.2414C11.7897 33.9631 11.8121 33.7953 11.8575 33.7385C11.9027 33.6816 11.9683 33.6532 12.0537 33.6532C12.1547 33.6532 12.2215 33.6885 12.2539 33.7586ZM13.8929 37.1737C13.9227 36.9477 13.9377 36.5629 13.9377 36.0192V35.0936C13.9377 34.5367 13.9221 34.1468 13.891 33.9239C13.8599 33.7011 13.7628 33.4952 13.5996 33.3056C13.4366 33.1165 13.2209 32.9742 12.953 32.8797C12.6848 32.7849 12.3824 32.7378 12.0458 32.7378C11.6912 32.7378 11.3803 32.7878 11.1138 32.8879C10.8471 32.9883 10.6354 33.1318 10.4786 33.3189C10.322 33.5062 10.2287 33.713 10.199 33.939C10.1694 34.1651 10.1544 34.55 10.1544 35.0936V36.0192C10.1544 36.5762 10.17 36.9661 10.2009 37.1889C10.232 37.4116 10.3293 37.6177 10.4923 37.8071C10.6555 37.9964 10.871 38.1383 11.1389 38.2331C11.4071 38.3277 11.7092 38.3751 12.0458 38.3751C12.4007 38.3751 12.7114 38.3252 12.9783 38.2246C13.245 38.1246 13.4565 37.9807 13.6133 37.7936C13.7699 37.6065 13.8632 37.4 13.8929 37.1737ZM16.1814 33.7562V34.9592C16.3652 34.9592 16.4942 34.9375 16.5678 34.8939C16.6416 34.8506 16.6785 34.7098 16.6785 34.4715V34.1741C16.6785 34.0025 16.6429 33.8899 16.5717 33.8364C16.5004 33.7829 16.3703 33.7562 16.1814 33.7562ZM14.5461 32.8306H15.7036C16.4753 32.8306 16.9977 32.8563 17.2708 32.9075C17.5442 32.9587 17.7667 33.0896 17.9391 33.3001C18.1112 33.5106 18.1973 33.8464 18.1973 34.3078C18.1973 34.7286 18.1363 35.0117 18.0148 35.1563C17.893 35.3012 17.6535 35.3881 17.2961 35.4172C17.6199 35.4862 17.8374 35.5785 17.9488 35.6945C18.06 35.8102 18.1292 35.9166 18.1566 36.0136C18.1838 36.1105 18.1973 36.3774 18.1973 36.8138V38.2408H16.6785V36.4429C16.6785 36.1534 16.652 35.974 16.5989 35.9048C16.5458 35.8359 16.4066 35.8013 16.1814 35.8013V38.2408H14.5461V32.8306ZM20.9505 34.8428H22.5858V34.6091C22.5858 34.1657 22.5379 33.8276 22.4423 33.5947C22.3462 33.3618 22.1403 33.1611 21.8246 32.9916C21.5086 32.8224 21.1112 32.7378 20.6321 32.7378C20.1452 32.7378 19.7484 32.8351 19.4415 33.03C19.1348 33.225 18.9487 33.4392 18.8842 33.6733C18.8193 33.9071 18.7872 34.2827 18.7872 34.7995V36.4068C18.7872 36.779 18.8025 37.0578 18.8336 37.244C18.8647 37.4298 18.9425 37.6078 19.0669 37.777C19.1914 37.9463 19.3733 38.0883 19.613 38.203C19.8528 38.3177 20.1099 38.3751 20.3847 38.3751C20.6153 38.3751 20.8155 38.3335 20.9853 38.2497C21.155 38.1663 21.2956 38.041 21.407 37.8739L21.5581 38.2615H22.5858V35.3576H20.6709V36.1795H21.0011V36.8212C21.0011 37.0731 20.9797 37.2424 20.937 37.3291C20.8943 37.4162 20.8134 37.4595 20.6941 37.4595C20.5855 37.4595 20.5129 37.4209 20.4768 37.3442C20.4405 37.2673 20.4223 37.1076 20.4223 36.8647V34.2681C20.4223 33.9921 20.4405 33.8204 20.4768 33.7536C20.5129 33.6868 20.5815 33.6532 20.6825 33.6532C20.7991 33.6532 20.8729 33.6922 20.904 33.7702C20.9349 33.8482 20.9505 34.0421 20.9505 34.3517V34.8428ZM24.6478 32.8306H23.0125V38.2408H24.6478V32.8306ZM29.16 38.2408V32.8306H27.7929V35.2666L26.8762 32.8306H25.5089V38.2408H26.8762V35.7814L27.7269 38.2408H29.16ZM33.5669 34.8428H31.9316V34.3517C31.9316 34.0421 31.9161 33.8482 31.885 33.7702C31.8538 33.6922 31.7802 33.6532 31.6637 33.6532C31.5627 33.6532 31.494 33.6868 31.4577 33.7536C31.4216 33.8204 31.4034 33.9921 31.4034 34.2681V36.8647C31.4034 37.1076 31.4216 37.2673 31.4577 37.3442C31.494 37.4209 31.5666 37.4595 31.6753 37.4595C31.7943 37.4595 31.8752 37.4162 31.9181 37.3291C31.9609 37.2424 31.9822 37.0731 31.9822 36.8212V36.1795H31.6521V35.3576H33.5669V38.2615H32.5393L32.3881 37.8739C32.2767 38.041 32.1359 38.1663 31.9663 38.2497C31.7966 38.3335 31.5965 38.3751 31.3656 38.3751C31.0911 38.3751 30.8339 38.3177 30.5941 38.203C30.3544 38.0883 30.1725 37.9463 30.0479 37.777C29.9236 37.6078 29.8459 37.4298 29.8148 37.244C29.7837 37.0578 29.7681 36.779 29.7681 36.4068V34.7995C29.7681 34.2827 29.8005 33.9071 29.8654 33.6733C29.9299 33.4392 30.1159 33.225 30.4226 33.03C30.7296 32.8351 31.1263 32.7378 31.6131 32.7378C32.0921 32.7378 32.4897 32.8224 32.8056 32.9916C33.1214 33.1611 33.3274 33.3618 33.4232 33.5947C33.519 33.8276 33.5669 34.1657 33.5669 34.6091V34.8428ZM38.332 32.8306H35.6052V38.2408H38.4407V37.158H37.2405V35.9684H38.2621V34.9391H37.2405V33.9132H38.332V32.8306ZM40.5457 32.8306V37.158H41.5401V38.2408H38.9104V32.8306H40.5457ZM41.9382 32.8306H43.5735V38.2408H41.9382V32.8306ZM47.7323 32.8306V33.9132H46.7615V38.2408H45.1262V33.9132H44.1589V32.8306H47.7323ZM50.8259 32.8306H48.0993V38.2408H50.9348V37.158H49.7346V35.9684H50.7562V34.9391H49.7346V33.9132H50.8259V32.8306ZM52.8093 32.8306H55.5788V33.9132H54.4446V34.9391H55.4546V35.9684H54.4446V38.2408H52.8093V32.8306ZM55.9765 32.8306H57.6118V38.2408H55.9765V32.8306ZM61.7688 32.8306V33.9132H60.7978V38.2408H59.1625V33.9132H58.1952V32.8306H61.7688ZM65.794 38.2408V32.8306H64.4266V35.2666L63.5099 32.8306H62.1426V38.2408H63.5099V35.7814L64.3607 38.2408H65.794ZM66.4485 32.8306H69.1751V33.9132H68.0838V34.9391H69.1052V35.9684H68.0838V37.158H69.284V38.2408H66.4485V32.8306ZM71.4945 34.4888H73.0132V34.275C73.0132 33.8451 72.9647 33.5402 72.8676 33.361C72.7706 33.1814 72.5723 33.0329 72.2734 32.9147C71.9744 32.7967 71.6125 32.7378 71.1877 32.7378C70.7993 32.7378 70.4679 32.7915 70.1935 32.8998C69.9189 33.0076 69.7202 33.1576 69.5972 33.3492C69.4741 33.5408 69.4127 33.8438 69.4127 34.2582C69.4127 34.5454 69.456 34.7817 69.5427 34.9664C69.6294 35.1514 69.7389 35.2962 69.871 35.4009C70.0031 35.5057 70.2723 35.6739 70.679 35.9057C71.0855 36.1351 71.3406 36.2987 71.4441 36.3968C71.5451 36.4947 71.5955 36.7031 71.5955 37.0215C71.5955 37.1667 71.5691 37.2755 71.516 37.3494C71.4629 37.4226 71.3819 37.4595 71.2732 37.4595C71.1643 37.4595 71.0886 37.4305 71.0459 37.3726C71.0032 37.3147 70.9818 37.1845 70.9818 36.9815V36.3232H69.4631V36.6774C69.4631 37.0829 69.511 37.3958 69.607 37.6167C69.7028 37.837 69.9052 38.0186 70.2146 38.1613C70.5241 38.3038 70.8976 38.3751 71.3354 38.3751C71.734 38.3751 72.0837 38.3133 72.384 38.1895C72.6843 38.0661 72.8871 37.9129 72.9921 37.7302C73.0968 37.5476 73.1493 37.2635 73.1493 36.878C73.1493 36.3477 73.0549 35.9636 72.8655 35.7251C72.6766 35.4868 72.2181 35.1815 71.4903 34.8101C71.2365 34.6811 71.0824 34.5707 71.028 34.4793C70.9714 34.388 70.943 34.2518 70.943 34.0713C70.943 33.9309 70.9683 33.8262 71.0187 33.7571C71.0691 33.6879 71.1438 33.6532 71.2421 33.6532C71.3327 33.6532 71.3974 33.6789 71.4364 33.7302C71.475 33.7814 71.4945 33.9006 71.4945 34.0877V34.4888ZM77.1221 34.4888H75.6034V34.0877C75.6034 33.9006 75.5839 33.7814 75.5453 33.7302C75.5063 33.6789 75.4416 33.6532 75.351 33.6532C75.2526 33.6532 75.178 33.6879 75.1276 33.7571C75.0772 33.8262 75.0519 33.9309 75.0519 34.0713C75.0519 34.2518 75.0803 34.388 75.1369 34.4793C75.1913 34.5707 75.3454 34.6811 75.5992 34.8101C76.327 35.1815 76.7855 35.4868 76.9744 35.7251C77.1638 35.9636 77.2581 36.3477 77.2581 36.878C77.2581 37.2635 77.2057 37.5476 77.1009 37.7302C76.996 37.9129 76.7932 38.0661 76.4929 38.1895C76.1926 38.3133 75.8429 38.3751 75.4443 38.3751C75.0065 38.3751 74.633 38.3038 74.3235 38.1613C74.0141 38.0186 73.8117 37.837 73.7159 37.6167C73.6199 37.3958 73.5719 37.0829 73.5719 36.6774V36.3232H75.0907V36.9815C75.0907 37.1845 75.112 37.3147 75.1548 37.3726C75.1975 37.4305 75.2732 37.4595 75.3821 37.4595C75.4907 37.4595 75.5718 37.4226 75.6249 37.3494C75.678 37.2755 75.7044 37.1667 75.7044 37.0215C75.7044 36.7031 75.654 36.4947 75.553 36.3968C75.4495 36.2987 75.1942 36.1351 74.7879 35.9057C74.3812 35.6739 74.112 35.5057 73.9799 35.4009C73.8478 35.2962 73.7383 35.1514 73.6516 34.9664C73.5649 34.7817 73.5215 34.5454 73.5215 34.2582C73.5215 33.8438 73.5829 33.5408 73.7061 33.3492C73.8289 33.1576 74.0276 33.0076 74.3024 32.8998C74.5768 32.7915 74.9082 32.7378 75.2966 32.7378C75.7214 32.7378 76.0833 32.7967 76.3823 32.9147C76.6812 33.0329 76.8794 33.1814 76.9765 33.361C77.0736 33.5402 77.1221 33.8451 77.1221 34.275V34.4888ZM9.80771 32.8306H7.03819V38.2408H8.67348V35.9684H9.68349V34.9391H8.67348V33.9132H9.80771V32.8306Z" fill="url(#paint0_linear_274_204)"/>
<defs>
<linearGradient id="paint0_linear_274_204" x1="79.5789" y1="1.85013" x2="41.5973" y2="84.7672" gradientUnits="userSpaceOnUse">
<stop stop-color="white"/>
<stop offset="0.513222" stop-color="white" stop-opacity="0.71"/>
<stop offset="1" stop-color="white" stop-opacity="0"/>
</linearGradient>
</defs>
</svg>
