<svg width="121" height="56" viewBox="0 0 121 56" fill="none" xmlns="http://www.w3.org/2000/svg">
<path fill-rule="evenodd" clip-rule="evenodd" d="M0.0148454 18.0526C0.0256049 31.1235 0.0463067 36.1151 0.0896172 36.1415C0.122713 36.1615 0.16684 36.3385 0.187815 36.5348C0.208925 36.7311 0.249239 36.9135 0.277704 36.9402C0.306033 36.9668 0.329323 37.0529 0.329323 37.1314C0.329323 37.2099 0.353838 37.2742 0.383801 37.2742C0.413764 37.2742 0.43828 37.3387 0.43828 37.4174C0.43828 37.4961 0.474235 37.6051 0.518227 37.6596C0.562218 37.7141 0.598991 37.8102 0.599945 37.8733C0.600898 37.9364 0.626231 37.988 0.656194 37.988C0.686157 37.988 0.710672 38.0339 0.710672 38.09C0.710672 38.1461 0.732055 38.192 0.758205 38.192C0.784354 38.192 0.8214 38.2838 0.840603 38.396C0.859671 38.5081 0.899576 38.5999 0.929267 38.5999C0.958822 38.5999 0.983065 38.6458 0.983065 38.7019C0.983065 38.758 1.00758 38.8039 1.03754 38.8039C1.06751 38.8039 1.09202 38.8383 1.09202 38.8804C1.09202 38.9224 1.11654 38.9568 1.1465 38.9568C1.17646 38.9568 1.20098 39.0035 1.20098 39.0605C1.20098 39.1173 1.23775 39.1772 1.2827 39.1933C1.32764 39.2095 1.36441 39.2661 1.36441 39.3193C1.36441 39.3723 1.38621 39.4158 1.41304 39.4158C1.43973 39.4158 1.47691 39.4731 1.49571 39.5432C1.5145 39.6133 1.554 39.6707 1.58342 39.6707C1.6127 39.6707 1.63681 39.7051 1.63681 39.7472C1.63681 39.7893 1.66132 39.8237 1.69129 39.8237C1.72125 39.8237 1.74576 39.8696 1.74576 39.9257C1.74576 39.9818 1.7647 40.0276 1.78785 40.0276C1.811 40.0276 1.87583 40.1074 1.93208 40.2051C1.98819 40.3026 2.07658 40.395 2.12861 40.4105C2.1805 40.426 2.2373 40.5049 2.25459 40.586C2.27312 40.6729 2.33168 40.7469 2.39733 40.7664C2.45848 40.7845 2.50846 40.8421 2.50846 40.8942C2.50846 40.9464 2.56975 41.0342 2.64466 41.0894C2.71957 41.1445 2.78086 41.2153 2.78086 41.247C2.78086 41.2785 2.86053 41.3784 2.95791 41.469C3.05529 41.5597 3.20007 41.7142 3.27974 41.8123C3.40409 41.9657 3.51604 42.0776 3.87383 42.4057C3.92463 42.4524 4.23039 42.7381 4.5288 43.0176C4.58954 43.0746 4.86439 43.3318 4.92527 43.3887C4.95101 43.4129 5.09088 43.5442 5.23593 43.6805C5.5263 43.9535 5.6501 44.0559 5.68974 44.0559C5.70404 44.0559 5.86802 44.1936 6.05406 44.3619C6.23997 44.5301 6.41485 44.6678 6.44249 44.6678C6.47014 44.6678 6.57365 44.7481 6.67253 44.8463C6.77141 44.9444 6.86892 45.0247 6.88922 45.0247C6.90951 45.0247 6.98524 45.0764 7.05728 45.1395C7.27588 45.3307 7.34983 45.3817 7.40921 45.3817C7.4404 45.3817 7.46601 45.4031 7.46601 45.4292C7.46601 45.4553 7.51381 45.4909 7.57224 45.5084C7.63053 45.5257 7.69346 45.5846 7.71198 45.6392C7.73064 45.6939 7.78198 45.7386 7.82638 45.7386C7.87078 45.7386 7.96381 45.796 8.03327 45.8661C8.10273 45.9362 8.18853 45.9936 8.22394 45.9936C8.25935 45.9936 8.34515 46.0509 8.41462 46.121C8.48408 46.1911 8.56852 46.2485 8.60216 46.2485C8.63593 46.2485 8.69423 46.2944 8.73168 46.3505C8.76913 46.4066 8.83941 46.4525 8.8879 46.4525C8.93638 46.4525 9.02219 46.5098 9.07844 46.5799C9.13468 46.6501 9.22131 46.7074 9.27088 46.7074C9.32046 46.7074 9.37521 46.7418 9.3925 46.7839C9.40967 46.826 9.46401 46.8604 9.51304 46.8604C9.56207 46.8604 9.65046 46.9178 9.7093 46.9879C9.76827 47.058 9.85789 47.1153 9.90842 47.1153C9.95894 47.1153 10.0309 47.1612 10.0683 47.2173C10.1058 47.2734 10.1729 47.3193 10.2176 47.3193C10.2624 47.3193 10.2989 47.3407 10.2989 47.3669C10.2989 47.393 10.354 47.4307 10.4215 47.4506C10.4889 47.4706 10.5812 47.5238 10.6266 47.5688C10.7122 47.6539 10.8664 47.7534 11.0071 47.8142C11.0521 47.8337 11.135 47.8898 11.1915 47.9388C11.248 47.9879 11.3597 48.0416 11.4397 48.058C11.5198 48.0745 11.6199 48.133 11.6624 48.1881C11.7047 48.2431 11.7708 48.2881 11.809 48.2881C11.8474 48.2881 11.8788 48.3095 11.8788 48.3357C11.8788 48.3618 11.9339 48.3995 12.0013 48.4194C12.0688 48.4394 12.1622 48.4968 12.2089 48.5469C12.2556 48.5971 12.3659 48.6549 12.4541 48.6753C12.5422 48.6957 12.6539 48.7546 12.7023 48.8062C12.7508 48.8578 12.8182 48.9 12.8522 48.9C12.8861 48.9 12.9139 48.923 12.9139 48.951C12.9139 48.9791 12.9637 49.002 13.0246 49.002C13.0853 49.002 13.1493 49.0364 13.1665 49.0785C13.1838 49.1206 13.2443 49.155 13.3011 49.155C13.3577 49.155 13.4042 49.1779 13.4042 49.206C13.4042 49.234 13.4409 49.257 13.4859 49.257C13.5308 49.257 13.5676 49.2795 13.5676 49.3069C13.5676 49.3345 13.6289 49.3714 13.7038 49.389C13.7787 49.4066 13.84 49.4414 13.84 49.4664C13.84 49.4915 13.889 49.5119 13.949 49.5119C14.0089 49.5119 14.0579 49.5345 14.0579 49.5619C14.0579 49.5894 14.1192 49.6264 14.1941 49.644C14.269 49.6616 14.3303 49.6964 14.3303 49.7214C14.3303 49.7465 14.3671 49.7669 14.412 49.7669C14.457 49.7669 14.4937 49.7898 14.4937 49.8178C14.4937 49.8459 14.5428 49.8688 14.6027 49.8688C14.6626 49.8688 14.7116 49.8914 14.7116 49.9188C14.7116 49.9464 14.7729 49.9833 14.8478 50.0009C14.9228 50.0185 14.984 50.0486 14.984 50.0678C14.984 50.0871 15.0944 50.1455 15.2292 50.1975C15.364 50.2496 15.4743 50.3116 15.4743 50.3354C15.4743 50.3592 15.5111 50.3787 15.5561 50.3787C15.601 50.3787 15.6378 50.4017 15.6378 50.4297C15.6378 50.4578 15.6868 50.4807 15.7467 50.4807C15.8067 50.4807 15.8557 50.5019 15.8557 50.5276C15.8557 50.5535 15.9245 50.5887 16.0085 50.606C16.0927 50.6234 16.1961 50.6825 16.2385 50.7376C16.2809 50.7927 16.3592 50.8377 16.4125 50.8377C16.4659 50.8377 16.5094 50.8606 16.5094 50.8887C16.5094 50.9167 16.5338 50.9396 16.5635 50.9396C16.6515 50.9396 17.0542 51.1137 17.0542 51.1516C17.0542 51.1708 17.1339 51.2029 17.2313 51.2229C17.3285 51.2429 17.445 51.2975 17.4901 51.3443C17.5764 51.4341 17.9282 51.6025 18.0294 51.6025C18.0624 51.6025 18.0893 51.6201 18.0893 51.6415C18.0893 51.6824 18.487 51.8575 18.58 51.8575C18.6097 51.8575 18.6341 51.8804 18.6341 51.9085C18.6341 51.9365 18.6831 51.9595 18.7431 51.9595C18.803 51.9595 18.852 51.9824 18.852 52.0104C18.852 52.0385 18.8888 52.0614 18.9337 52.0614C18.9787 52.0614 19.0155 52.0818 19.0155 52.1067C19.0155 52.1317 19.1013 52.1671 19.2061 52.1856C19.311 52.204 19.3968 52.2366 19.3968 52.2581C19.3968 52.2797 19.4826 52.3289 19.5875 52.3674C19.6924 52.4059 19.7782 52.4551 19.7782 52.4766C19.7782 52.4982 19.864 52.5308 19.9688 52.5492C20.0737 52.5676 20.1595 52.6031 20.1595 52.6281C20.1595 52.6529 20.1963 52.6733 20.2412 52.6733C20.2862 52.6733 20.3229 52.6937 20.3229 52.7186C20.3229 52.7436 20.4087 52.779 20.5136 52.7975C20.6185 52.8158 20.7043 52.8528 20.7043 52.8796C20.7043 52.9064 20.7533 52.9283 20.8132 52.9283C20.8732 52.9283 20.9222 52.9512 20.9222 52.9793C20.9222 53.0073 20.959 53.0303 21.0039 53.0303C21.0489 53.0303 21.0856 53.0507 21.0856 53.0755C21.0856 53.1005 21.1714 53.1359 21.2763 53.1544C21.3812 53.1728 21.4671 53.204 21.4674 53.2238C21.4679 53.2737 21.7402 53.3872 21.8592 53.3872C21.9132 53.3872 21.9573 53.4101 21.9573 53.4382C21.9573 53.4662 21.9817 53.4892 22.0114 53.4892C22.1015 53.4892 22.5021 53.6636 22.5021 53.7028C22.5021 53.723 22.5879 53.7546 22.6928 53.7729C22.7976 53.7914 22.8834 53.8269 22.8834 53.8518C22.8834 53.8767 22.9447 53.8971 23.0196 53.8971C23.0945 53.8971 23.1558 53.9147 23.1558 53.9361C23.1558 53.977 23.5535 54.1521 23.6465 54.1521C23.6762 54.1521 23.7006 54.175 23.7006 54.203C23.7006 54.2311 23.7496 54.254 23.8096 54.254C23.8695 54.254 23.9185 54.2741 23.9185 54.2985C23.9185 54.323 24.0166 54.3577 24.1364 54.3756C24.2563 54.3935 24.3543 54.4308 24.3543 54.4586C24.3543 54.4863 24.4034 54.509 24.4633 54.509C24.5232 54.509 24.5723 54.5319 24.5723 54.56C24.5723 54.588 24.6335 54.611 24.7085 54.611C24.7834 54.611 24.8447 54.6314 24.8447 54.6562C24.8447 54.6812 24.9305 54.7166 25.0353 54.7351C25.1402 54.7535 25.226 54.7905 25.226 54.8172C25.226 54.844 25.2873 54.8659 25.3622 54.8659C25.4371 54.8659 25.4984 54.8889 25.4984 54.9169C25.4984 54.945 25.5474 54.9679 25.6074 54.9679C25.6673 54.9679 25.7163 54.9906 25.7163 55.0183C25.7163 55.046 25.8144 55.0834 25.9342 55.1012C26.0541 55.1192 26.1521 55.1539 26.1521 55.1784C26.1521 55.2028 26.2012 55.2229 26.2611 55.2229C26.321 55.2229 26.3701 55.2429 26.3701 55.2673C26.3701 55.2918 26.4661 55.3261 26.5833 55.3437C26.7007 55.3613 26.8066 55.4034 26.8187 55.4373C26.8489 55.5223 27.6345 55.5223 27.6647 55.4373C27.6769 55.4034 27.7827 55.3613 27.9001 55.3437C28.0173 55.3261 28.1134 55.2918 28.1134 55.2673C28.1134 55.2429 28.1624 55.2229 28.2223 55.2229C28.2822 55.2229 28.3313 55.2028 28.3313 55.1784C28.3313 55.1539 28.4293 55.1192 28.5492 55.1012C28.669 55.0834 28.7671 55.046 28.7671 55.0183C28.7671 54.9906 28.8161 54.9679 28.8761 54.9679C28.936 54.9679 28.985 54.945 28.985 54.9169C28.985 54.8889 29.0463 54.8659 29.1212 54.8659C29.1961 54.8659 29.2574 54.8455 29.2574 54.8207C29.2574 54.7957 29.3432 54.7602 29.4481 54.7418C29.553 54.7234 29.6388 54.6864 29.6388 54.6597C29.6388 54.6329 29.7001 54.611 29.775 54.611C29.8499 54.611 29.9112 54.588 29.9112 54.56C29.9112 54.5319 29.9602 54.509 30.0201 54.509C30.08 54.509 30.1291 54.4863 30.1291 54.4586C30.1291 54.4308 30.2271 54.3935 30.347 54.3756C30.4668 54.3577 30.5649 54.323 30.5649 54.2985C30.5649 54.2741 30.6139 54.254 30.6739 54.254C30.7338 54.254 30.7828 54.2311 30.7828 54.203C30.7828 54.175 30.8072 54.1521 30.8369 54.1521C30.9299 54.1521 31.3276 53.977 31.3276 53.9361C31.3276 53.9147 31.3889 53.8971 31.4638 53.8971C31.5387 53.8971 31.6 53.8767 31.6 53.8518C31.6 53.8269 31.6858 53.7914 31.7907 53.7729C31.8955 53.7546 31.9813 53.7176 31.9813 53.6908C31.9813 53.6641 32.0304 53.6421 32.0903 53.6421C32.1502 53.6421 32.1993 53.621 32.1993 53.5952C32.1993 53.5694 32.2728 53.5332 32.3627 53.5147C32.4526 53.4962 32.5261 53.46 32.5261 53.4341C32.5261 53.4084 32.5703 53.3872 32.6242 53.3872C32.7432 53.3872 33.0155 53.2737 33.016 53.2238C33.0163 53.204 33.1022 53.1728 33.2071 53.1544C33.312 53.1359 33.3978 53.1005 33.3978 53.0755C33.3978 53.0507 33.4346 53.0303 33.4795 53.0303C33.5244 53.0303 33.5612 53.0073 33.5612 52.9793C33.5612 52.9512 33.6102 52.9283 33.6702 52.9283C33.7301 52.9283 33.7791 52.9064 33.7791 52.8796C33.7791 52.8528 33.8649 52.8158 33.9698 52.7975C34.0747 52.779 34.1605 52.7436 34.1605 52.7186C34.1605 52.6937 34.1973 52.6733 34.2422 52.6733C34.2871 52.6733 34.3239 52.6529 34.3239 52.6281C34.3239 52.6031 34.4097 52.5676 34.5146 52.5492C34.6195 52.5308 34.7053 52.4938 34.7053 52.4671C34.7053 52.4403 34.7543 52.4184 34.8142 52.4184C34.8741 52.4184 34.9232 52.3954 34.9232 52.3674C34.9232 52.3393 34.96 52.3164 35.0049 52.3164C35.0498 52.3164 35.0866 52.2945 35.0866 52.2677C35.0866 52.2409 35.1724 52.204 35.2773 52.1856C35.3822 52.1671 35.468 52.1317 35.468 52.1067C35.468 52.0818 35.5047 52.0614 35.5497 52.0614C35.5946 52.0614 35.6314 52.0385 35.6314 52.0104C35.6314 51.9824 35.6804 51.9595 35.7404 51.9595C35.8003 51.9595 35.8493 51.9365 35.8493 51.9085C35.8493 51.8804 35.8737 51.8575 35.9034 51.8575C35.9964 51.8575 36.3941 51.6824 36.3941 51.6415C36.3941 51.6201 36.4332 51.6025 36.481 51.6025C36.5886 51.6025 36.8836 51.4524 36.9934 51.3417C37.0384 51.2963 37.1549 51.2429 37.2521 51.2229C37.3495 51.2029 37.4292 51.1654 37.4292 51.1395C37.4292 51.1138 37.4782 51.0926 37.5382 51.0926C37.5981 51.0926 37.6471 51.0715 37.6471 51.0457C37.6471 51.0198 37.7207 50.9836 37.8105 50.9651C37.9004 50.9467 37.974 50.9105 37.974 50.8846C37.974 50.8588 38.0176 50.8377 38.0709 50.8377C38.1242 50.8377 38.2025 50.7927 38.2449 50.7376C38.2874 50.6825 38.3907 50.6234 38.4749 50.606C38.5589 50.5887 38.6277 50.5535 38.6277 50.5276C38.6277 50.5019 38.6768 50.4807 38.7367 50.4807C38.7966 50.4807 38.8456 50.4578 38.8456 50.4297C38.8456 50.4017 38.8824 50.3787 38.9273 50.3787C38.9723 50.3787 39.0091 50.3592 39.0091 50.3354C39.0091 50.3116 39.1194 50.2496 39.2542 50.1975C39.3891 50.1455 39.4994 50.0871 39.4994 50.0678C39.4994 50.0486 39.5607 50.0185 39.6356 50.0009C39.7105 49.9833 39.7718 49.9464 39.7718 49.9188C39.7718 49.8914 39.8208 49.8688 39.8807 49.8688C39.9407 49.8688 39.9897 49.8459 39.9897 49.8178C39.9897 49.7898 40.0265 49.7669 40.0714 49.7669C40.1163 49.7669 40.1531 49.7465 40.1531 49.7214C40.1531 49.6964 40.2144 49.6616 40.2893 49.644C40.3642 49.6264 40.4255 49.5894 40.4255 49.5619C40.4255 49.5345 40.4745 49.5119 40.5345 49.5119C40.5944 49.5119 40.6434 49.4915 40.6434 49.4664C40.6434 49.4414 40.7047 49.4066 40.7796 49.389C40.8545 49.3714 40.9158 49.3345 40.9158 49.3069C40.9158 49.2795 40.9526 49.257 40.9975 49.257C41.0425 49.257 41.0793 49.234 41.0793 49.206C41.0793 49.1779 41.1257 49.155 41.1824 49.155C41.2391 49.155 41.2996 49.1206 41.3169 49.0785C41.3341 49.0364 41.3981 49.002 41.4588 49.002C41.5197 49.002 41.5696 48.9791 41.5696 48.951C41.5696 48.923 41.5973 48.9 41.6313 48.9C41.6652 48.9 41.7326 48.8578 41.7811 48.8062C41.8296 48.7546 41.9412 48.6957 42.0294 48.6753C42.1175 48.6549 42.2278 48.5971 42.2745 48.5469C42.3212 48.4968 42.4147 48.4394 42.4821 48.4194C42.5495 48.3995 42.6046 48.3618 42.6046 48.3357C42.6046 48.3095 42.6324 48.2881 42.6663 48.2881C42.7003 48.2881 42.7677 48.2459 42.8162 48.1943C42.8646 48.1427 42.9661 48.0862 43.0416 48.0687C43.117 48.0514 43.2292 47.9931 43.2909 47.9394C43.3525 47.8857 43.4563 47.8259 43.5214 47.8065C43.5865 47.7871 43.6397 47.7499 43.6397 47.7238C43.6397 47.6977 43.6675 47.6762 43.7014 47.6762C43.7354 47.6762 43.8028 47.6337 43.8513 47.5815C43.8997 47.5295 43.9945 47.4706 44.062 47.4506C44.1294 47.4307 44.1845 47.393 44.1845 47.3669C44.1845 47.3407 44.221 47.3193 44.2658 47.3193C44.3105 47.3193 44.3777 47.2734 44.4151 47.2173C44.4526 47.1612 44.5245 47.1153 44.575 47.1153C44.6255 47.1153 44.7151 47.058 44.7741 46.9879C44.833 46.9178 44.9214 46.8604 44.9704 46.8604C45.0194 46.8604 45.0738 46.826 45.0909 46.7839C45.1082 46.7418 45.163 46.7074 45.2125 46.7074C45.2621 46.7074 45.3487 46.6501 45.405 46.5799C45.4612 46.5098 45.5474 46.4525 45.5966 46.4525C45.6456 46.4525 45.7212 46.4066 45.7644 46.3505C45.8076 46.2944 45.8653 46.2485 45.8927 46.2485C45.9202 46.2485 45.9993 46.1911 46.0688 46.121C46.1383 46.0509 46.2241 45.9936 46.2595 45.9936C46.2949 45.9936 46.3807 45.9362 46.4502 45.8661C46.5196 45.796 46.6126 45.7386 46.657 45.7386C46.7014 45.7386 46.7528 45.6939 46.7714 45.6392C46.79 45.5846 46.8529 45.5257 46.9112 45.5084C46.9696 45.4909 47.0174 45.4553 47.0174 45.4292C47.0174 45.4031 47.043 45.3817 47.0742 45.3817C47.1336 45.3817 47.2075 45.3307 47.4261 45.1395C47.4982 45.0764 47.5739 45.0247 47.5942 45.0247C47.6145 45.0247 47.712 44.9444 47.8109 44.8463C47.9098 44.7481 48.0133 44.6678 48.0409 44.6678C48.0686 44.6678 48.2434 44.5301 48.4294 44.3619C48.6154 44.1936 48.7794 44.0559 48.7937 44.0559C48.8336 44.0559 48.9574 43.9532 49.255 43.6735C49.4043 43.5333 49.5474 43.3988 49.5733 43.3745C49.6339 43.3179 49.8745 43.0927 49.9546 43.0176C49.9887 42.9857 50.1392 42.8449 50.289 42.7047C50.4388 42.5644 50.5791 42.4326 50.6007 42.4118C50.6225 42.3909 50.7263 42.2992 50.8315 42.2079C50.9366 42.1165 51.0959 41.95 51.1856 41.8378C51.275 41.7256 51.4281 41.5597 51.5255 41.469C51.6229 41.3784 51.7026 41.2785 51.7026 41.247C51.7026 41.2153 51.7639 41.1445 51.8388 41.0894C51.9137 41.0342 51.975 40.9464 51.975 40.8942C51.975 40.8421 52.0249 40.7845 52.0861 40.7664C52.1517 40.7469 52.2103 40.6729 52.2288 40.586C52.2461 40.5049 52.3029 40.426 52.3548 40.4105C52.4068 40.395 52.4952 40.3026 52.5513 40.2051C52.6076 40.1074 52.6724 40.0276 52.6956 40.0276C52.7187 40.0276 52.7377 39.9818 52.7377 39.9257C52.7377 39.8696 52.7622 39.8237 52.7921 39.8237C52.8221 39.8237 52.8466 39.7893 52.8466 39.7472C52.8466 39.7051 52.8707 39.6707 52.9 39.6707C52.9294 39.6707 52.9689 39.6133 52.9877 39.5432C53.0065 39.4731 53.0437 39.4158 53.0704 39.4158C53.0972 39.4158 53.119 39.3723 53.119 39.3193C53.119 39.2661 53.1558 39.2095 53.2007 39.1933C53.2457 39.1772 53.2824 39.1173 53.2824 39.0605C53.2824 39.0035 53.307 38.9568 53.3369 38.9568C53.3669 38.9568 53.3914 38.9224 53.3914 38.8804C53.3914 38.8383 53.4159 38.8039 53.4459 38.8039C53.4758 38.8039 53.5004 38.758 53.5004 38.7019C53.5004 38.6458 53.5246 38.5999 53.5542 38.5999C53.5838 38.5999 53.6237 38.5081 53.6428 38.396C53.662 38.2838 53.6991 38.192 53.7252 38.192C53.7514 38.192 53.7727 38.1461 53.7727 38.09C53.7727 38.0339 53.7973 37.988 53.8272 37.988C53.8572 37.988 53.8817 37.9326 53.8817 37.8648C53.8817 37.7971 53.9079 37.7335 53.9397 37.7235C53.9716 37.7136 54.0116 37.6084 54.0285 37.4897C54.0455 37.3712 54.0808 37.2742 54.1068 37.2742C54.1328 37.2742 54.1541 37.2099 54.1541 37.1314C54.1541 37.0529 54.1774 36.9668 54.2057 36.9402C54.2342 36.9135 54.2745 36.7311 54.2956 36.5348C54.3166 36.3385 54.3607 36.1615 54.3938 36.1415C54.4371 36.1151 54.4578 31.1235 54.4686 18.0526L54.4834 0H0L0.0148454 18.0526ZM53.0617 18.3439C53.0602 27.9941 53.038 35.5055 53.0105 35.6934C52.892 36.5029 52.461 37.8106 52.2907 37.8775C52.2668 37.8869 52.2473 37.934 52.2473 37.982C52.2473 38.0302 52.2264 38.0914 52.2006 38.118C52.1749 38.1447 52.0493 38.3501 51.9216 38.5744C51.7263 38.9173 50.8861 40.0983 50.7786 40.1806C50.7604 40.1946 50.6908 40.2728 50.6237 40.3544C49.8591 41.2861 47.7349 43.2192 46.5281 44.0814C46.371 44.1936 46.2147 44.3095 46.1805 44.3389C46.0128 44.4838 44.5834 45.4783 44.1573 45.7465C44.0374 45.822 43.7187 46.027 43.4491 46.202C42.9352 46.5353 40.7597 47.8369 40.3589 48.0506C40.2308 48.119 39.9052 48.2953 39.6356 48.4425C39.3659 48.5896 39.0595 48.7555 38.9546 48.8108C38.8497 48.8662 38.6046 48.9982 38.4098 49.1041C37.9579 49.3499 37.6833 49.4918 37.0751 49.7941C36.8054 49.9281 36.4254 50.1177 36.2307 50.2153C35.7156 50.4736 33.127 51.6895 32.4949 51.9702C30.9257 52.667 30.2025 52.9793 30.1578 52.9793C30.1402 52.9793 29.9489 53.056 29.7326 53.15C29.2053 53.3787 29.0217 53.4546 28.6037 53.617C28.4089 53.6926 28.1215 53.8089 27.965 53.8754C27.8086 53.942 27.6183 54.0111 27.5423 54.0289C27.4663 54.0468 27.3907 54.0818 27.3742 54.1067C27.3377 54.1619 27.1328 54.1676 27.1328 54.1134C27.1328 54.0923 27.029 54.0446 26.902 54.0075C26.7751 53.9704 26.5415 53.8845 26.3829 53.8167C26.2242 53.7487 26.0847 53.6931 26.0727 53.6931C26.0609 53.6931 25.8654 53.6128 25.6384 53.5147C25.4114 53.4165 25.2109 53.3362 25.193 53.3362C25.1752 53.3362 24.9542 53.2444 24.7019 53.1322C24.4497 53.0201 24.2289 52.9283 24.2112 52.9283C24.1936 52.9283 24.0287 52.8619 23.8446 52.7807C23.6606 52.6993 23.3874 52.5817 23.2375 52.5191C22.4052 52.1712 19.475 50.8185 18.4434 50.3061C17.2227 49.6996 16.4373 49.3017 16.3732 49.2572C16.3433 49.2364 16.1717 49.1439 15.9919 49.0515C15.5291 48.8135 14.8265 48.4365 14.2794 48.1324C13.84 47.8884 11.4655 46.4874 11.4429 46.4591C11.428 46.4402 11.2441 46.3224 11.0344 46.1975C10.8246 46.0726 10.6407 45.9554 10.6258 45.9373C10.6108 45.9191 10.4882 45.8384 10.3534 45.7577C10.2185 45.6772 9.96112 45.5098 9.78135 45.386C9.40449 45.1266 8.40917 44.4238 8.28523 44.3297C7.42733 43.6786 7.24905 43.5404 6.97761 43.3165C6.84155 43.2042 6.63221 43.0329 6.5125 42.9356C6.24201 42.7159 4.73527 41.3075 4.43796 40.9965C3.92068 40.4553 2.88981 39.1785 2.88981 39.0791C2.88981 39.0583 2.85549 39.0052 2.81368 38.9608C2.62191 38.7582 2.03382 37.6362 1.8095 37.0447C1.65792 36.6453 1.54896 36.2072 1.47324 35.6934C1.41712 35.3123 1.39928 1.41206 1.45526 1.35979C1.47514 1.34105 13.0954 1.32576 27.2781 1.32576H53.0645L53.0617 18.3439ZM2.40414 18.8028C2.40659 27.9104 2.42988 35.4882 2.45576 35.6425C2.53706 36.128 2.59808 36.3717 2.72393 36.7133C2.9161 37.2351 3.59177 38.4936 3.79388 38.7058C3.83597 38.7502 3.87043 38.8114 3.87043 38.8419C3.87043 38.8725 3.88963 38.905 3.91319 38.9144C3.93662 38.9237 4.11326 39.1379 4.30557 39.3903C4.49788 39.6427 4.66867 39.8607 4.68502 39.8747C4.7015 39.8887 4.91069 40.1067 5.15013 40.3591C5.92645 41.1775 7.23039 42.3535 8.05315 42.9769C8.17682 43.0706 8.32541 43.1854 8.38343 43.2319C8.6377 43.436 9.03676 43.7227 9.7394 44.2062C10.0021 44.387 10.2294 44.5484 10.2444 44.5648C10.4542 44.7948 15.2315 47.6762 15.4028 47.6762C15.418 47.6762 15.4953 47.7189 15.5749 47.771C15.6544 47.8231 15.8666 47.9417 16.0464 48.0343C16.3568 48.1943 16.4763 48.257 16.9164 48.4903C17.0203 48.5455 17.2716 48.6751 17.4748 48.7784C17.6779 48.8818 17.9667 49.0289 18.1166 49.1054C19.2842 49.7016 21.832 50.8935 23.292 51.5267C24.1051 51.8793 24.4203 52.0134 24.7902 52.1639C25.0149 52.2555 25.3527 52.3959 25.5406 52.4762C25.7287 52.5566 25.8923 52.6223 25.9044 52.6223C25.9164 52.6223 26.1099 52.7018 26.3344 52.7988C26.559 52.8959 26.806 52.9902 26.8836 53.0085C26.9613 53.0267 27.0382 53.062 27.0547 53.0869C27.0937 53.1458 27.3898 53.1458 27.4287 53.0869C27.4452 53.062 27.5221 53.0267 27.5998 53.0085C27.6774 52.9902 27.9245 52.8959 28.149 52.7988C28.3735 52.7018 28.5669 52.6223 28.5787 52.6223C28.5907 52.6223 28.7422 52.5637 28.9153 52.4919C29.0885 52.4203 29.2792 52.3424 29.3391 52.3188C29.3991 52.2954 29.5829 52.2181 29.7477 52.1471C29.9125 52.0762 30.219 51.9457 30.4287 51.857C31.783 51.2843 34.1535 50.1989 35.6314 49.4746C36.0359 49.2763 36.5017 49.0488 36.6665 48.9689C36.8313 48.8889 36.9784 48.8119 36.9934 48.7977C37.0239 48.7687 37.5527 48.5004 37.742 48.4179C37.8092 48.3886 37.8643 48.3474 37.8646 48.3264C37.8649 48.3053 37.8914 48.2881 37.9236 48.2881C37.9559 48.2881 38.1577 48.1923 38.3721 48.075C38.5866 47.9577 38.8114 47.8367 38.8719 47.8061C39.8837 47.2936 43.1522 45.328 44.1672 44.6218C44.3526 44.4928 44.5712 44.3415 44.6532 44.2854C44.7936 44.1892 45.402 43.7528 45.8143 43.4522C46.0209 43.3016 46.6845 42.787 46.7769 42.7057C46.8094 42.6771 46.9921 42.5275 47.1828 42.3732C47.6976 41.9569 48.9632 40.7743 49.3927 40.3081C49.5994 40.0837 49.7819 39.8887 49.7984 39.8747C49.8147 39.8607 49.9855 39.6427 50.1778 39.3903C50.3702 39.1379 50.5468 38.9237 50.5702 38.9144C50.5938 38.905 50.613 38.8747 50.613 38.8472C50.613 38.8197 50.6743 38.7219 50.7492 38.63C50.8241 38.538 50.8854 38.4482 50.8854 38.4304C50.8854 38.4125 50.9667 38.277 51.066 38.1293C51.1654 37.9814 51.2911 37.7688 51.3456 37.6566C51.3999 37.5444 51.4849 37.3723 51.5342 37.2742C51.5835 37.176 51.6923 36.8892 51.776 36.6368C51.8597 36.3844 51.9571 36.109 51.9924 36.0249C52.0411 35.9088 52.0601 31.828 52.071 19.0578L52.0854 2.24359H2.39951L2.40414 18.8028Z" fill="url(#paint0_linear_484_30)"/>
<path d="M13.5843 16.424V15.9875C13.4287 15.9465 13.2437 15.9233 13.0754 15.9233C12.3268 15.9233 11.9021 16.2983 11.9021 16.9661C11.9021 17.6313 12.31 18.0032 13.0376 18.0032C13.1974 18.0032 13.4077 17.9797 13.618 17.9387V17.5082C13.475 17.5522 13.3194 17.5753 13.1764 17.5753C12.76 17.5753 12.5245 17.3556 12.5245 16.9601C12.5245 16.5677 12.7474 16.3479 13.1385 16.3479C13.2857 16.3479 13.4456 16.3744 13.5843 16.424Z" fill="#545454"/>
<path d="M13.9458 17.9587H15.3378V17.5196H14.543V17.1625H15.2201V16.7237H14.543V16.4162H15.3253V15.9771H13.9458V17.9587Z" fill="#545454"/>
<path d="M17.4976 17.9587L17.0393 17.0834C17.2075 16.9578 17.3168 16.7703 17.3168 16.5742C17.3168 16.1907 17.0308 15.9771 16.4883 15.9771H15.7019V17.9587H16.2949V17.268H16.5009L16.8248 17.9587H17.4976ZM16.4589 16.8464H16.2949V16.4102H16.4715C16.644 16.4102 16.7239 16.4806 16.7239 16.6122C16.7239 16.7703 16.6439 16.8464 16.4589 16.8464Z" fill="#545454"/>
<path d="M18.6882 16.4162H19.2265V15.9771H17.5442V16.4162H18.091V17.9587H18.6882V16.4162Z" fill="#545454"/>
<path d="M20.0536 15.9771H19.458V17.9587H20.0536V15.9771Z" fill="#545454"/>
<path d="M21.0588 16.4162H21.7947V15.9771H20.4658V17.9587H21.0588V17.224H21.7149V16.7849H21.0588V16.4162Z" fill="#545454"/>
<path d="M22.7164 15.9771H22.1208V17.9587H22.7164V15.9771Z" fill="#545454"/>
<path d="M24.7244 16.424V15.9875C24.5688 15.9465 24.3837 15.9233 24.2155 15.9233C23.4669 15.9233 23.0422 16.2983 23.0422 16.9661C23.0422 17.6313 23.4543 18.0032 24.1777 18.0032C24.3375 18.0032 24.5478 17.9797 24.7622 17.9387V17.5082C24.6192 17.5522 24.4636 17.5753 24.3206 17.5753C23.9043 17.5753 23.6646 17.3556 23.6646 16.9601C23.6646 16.5677 23.8875 16.3479 24.2786 16.3479C24.43 16.3479 24.5898 16.3744 24.7244 16.424Z" fill="#545454"/>
<path d="M26.2403 17.9587H26.8585L26.2235 15.9771H25.5337L24.8987 17.9587H25.4959L25.58 17.5986H26.152L26.2403 17.9587ZM25.6851 17.1684L25.8534 16.4687H25.8618L26.0384 17.1684H25.6851Z" fill="#545454"/>
<path d="M27.8849 16.4162H28.4232V15.9771H26.741V16.4162H27.2919V17.9587H27.8849V16.4162Z" fill="#545454"/>
<path d="M28.6553 17.9587H30.0472V17.5196H29.2524V17.1625H29.9295V16.7237H29.2524V16.4162H30.0389V15.9771H28.6553V17.9587Z" fill="#545454"/>
<path d="M32.673 16.424V15.9875C32.5132 15.9465 32.3281 15.9233 32.1599 15.9233C31.4113 15.9233 30.9866 16.2983 30.9866 16.9661C30.9866 17.6313 31.3987 18.0032 32.1221 18.0032C32.2819 18.0032 32.4922 17.9797 32.7024 17.9387V17.5082C32.5637 17.5522 32.408 17.5753 32.2651 17.5753C31.8487 17.5753 31.609 17.3556 31.609 16.9601C31.609 16.5677 31.8319 16.3479 32.223 16.3479C32.3744 16.3479 32.5342 16.3744 32.673 16.424Z" fill="#545454"/>
<path d="M33.9873 18.0032C34.656 18.0032 35.0387 17.6253 35.0387 16.9575C35.0387 16.2953 34.6645 15.9233 34.0042 15.9233C33.3229 15.9233 32.9443 16.3039 32.9443 16.9836C32.9443 17.6369 33.3228 18.0032 33.9873 18.0032ZM33.9957 17.5783C33.7182 17.5783 33.5626 17.3586 33.5626 16.9631C33.5626 16.5706 33.7182 16.3509 33.9957 16.3509C34.2649 16.3509 34.4205 16.5706 34.4205 16.9631C34.4205 17.3586 34.2649 17.5783 33.9957 17.5783Z" fill="#545454"/>
<path d="M37.1308 17.1778V15.9771H36.542V17.2215C36.542 17.4676 36.4495 17.5817 36.2476 17.5817C36.0416 17.5817 35.9406 17.4646 35.9406 17.2159V15.9771H35.3477V17.1719C35.3477 17.7398 35.6336 18.0064 36.2224 18.0064C36.8406 18.0064 37.1308 17.7398 37.1308 17.1778Z" fill="#545454"/>
<path d="M39.321 17.9587L38.8626 17.0834C39.0308 16.9578 39.1359 16.7703 39.1359 16.5742C39.1359 16.1907 38.85 15.9771 38.3074 15.9771H37.521V17.9587H38.1182V17.268H38.3201L38.6439 17.9587H39.321ZM38.2822 16.8464H38.1182V16.4102H38.2907C38.4673 16.4102 38.5472 16.4806 38.5472 16.6122C38.5472 16.7703 38.4673 16.8464 38.2822 16.8464Z" fill="#545454"/>
<path d="M40.7703 16.014C40.5894 15.9525 40.417 15.9233 40.2278 15.9233C39.7568 15.9233 39.4497 16.1371 39.4497 16.518C39.4497 17.1008 40.2825 17.0978 40.2825 17.4201C40.2825 17.5168 40.1941 17.5813 40.0469 17.5813C39.8829 17.5813 39.66 17.5082 39.475 17.4231V17.8861C39.6516 17.9622 39.8661 18.0032 40.0638 18.0032C40.5558 18.0032 40.8796 17.7775 40.8796 17.3761C40.8796 16.7904 40.0427 16.8079 40.0427 16.4856C40.0427 16.4009 40.1226 16.3449 40.2656 16.3449C40.396 16.3449 40.56 16.383 40.7703 16.4651V16.014Z" fill="#545454"/>
<path d="M41.177 17.9587H42.569V17.5196H41.7742V17.1625H42.4513V16.7237H41.7742V16.4162H42.5606V15.9771H41.177V17.9587Z" fill="#545454"/>
<path d="M42.5577 18.9136H11.9167V19.3828H42.5577V18.9136Z" fill="#545454"/>
<path d="M16.71 41.4086H29.3041V37.2641L22.1903 37.2527L22.2266 23.5205H16.71V41.4086Z" fill="#141414"/>
<path d="M32.2905 41.4086H37.8071V23.5205H33.053L26.3389 28.7068L29.242 32.0521L32.2546 29.703L32.2905 41.4086Z" fill="#141414"/>
<path d="M44.8153 6.43945V7.45642H45.382V8.47827H44.8153V11.9331C44.8153 12.358 44.8387 12.5948 44.8855 12.6434C44.9322 12.6922 45.1272 12.7165 45.4703 12.7165V13.7577H44.6229C44.1447 13.7577 43.8032 13.739 43.5989 13.7017C43.3943 13.6646 43.2142 13.5786 43.0581 13.4439C42.9022 13.3093 42.8051 13.1551 42.767 12.9816C42.7289 12.8082 42.7098 12.4001 42.7098 11.7579V8.47827H42.2576V7.45642H42.7098V6.43945H44.8153Z" fill="#141414"/>
<path d="M14.1833 9.30765H11.9947V7.93852C11.9947 7.54044 11.9713 7.29203 11.9245 7.1932C11.8778 7.09457 11.7746 7.04515 11.6152 7.04515C11.4349 7.04515 11.3206 7.10525 11.2721 7.22513C11.2235 7.34521 11.1993 7.6047 11.1993 8.0037V11.6626C11.1993 12.0454 11.2235 12.2951 11.2721 12.4119C11.3206 12.5286 11.4297 12.5871 11.5996 12.5871C11.7625 12.5871 11.8691 12.5286 11.9193 12.4115C11.9695 12.2944 11.9947 12.0197 11.9947 11.5871V10.597H14.1833V10.9039C14.1833 11.7194 14.1217 12.2977 13.9988 12.6387C13.8757 12.9797 13.6036 13.2786 13.1825 13.5353C12.7615 13.7919 12.2425 13.9202 11.6256 13.9202C10.9844 13.9202 10.4559 13.8115 10.04 13.5942C9.62413 13.3769 9.34861 13.0759 9.21347 12.6917C9.07832 12.3072 9.01074 11.7291 9.01074 10.957V8.65567C9.01074 8.08809 9.03149 7.66235 9.0731 7.37846C9.11471 7.09467 9.23856 6.82135 9.44476 6.55861C9.65096 6.29587 9.93679 6.08905 10.3026 5.93826C10.6682 5.78736 11.0884 5.71191 11.5633 5.71191C12.2078 5.71191 12.7398 5.82854 13.1592 6.0618C13.5784 6.29505 13.854 6.58586 13.9857 6.93402C14.1174 7.28227 14.1833 7.82403 14.1833 8.55928V9.30765Z" fill="#141414"/>
<path d="M17.1842 7.31011L17.1011 8.1593C17.406 7.55114 17.8479 7.22916 18.4268 7.19336V9.46595C18.0421 9.46595 17.7595 9.51466 17.5794 9.61199C17.3991 9.70931 17.2882 9.84478 17.2466 10.0183C17.2051 10.1919 17.1842 10.5919 17.1842 11.2179V13.768H15.084V7.31011H17.1842Z" fill="#141414"/>
<path d="M21.7269 9.09127C21.7269 8.76034 21.7078 8.55196 21.6698 8.46592C21.6315 8.37998 21.5502 8.33696 21.4254 8.33696C21.3006 8.33696 21.2175 8.37998 21.1759 8.46592C21.1343 8.55196 21.1135 8.76034 21.1135 9.09127V12.0063C21.1135 12.3113 21.1343 12.5099 21.1759 12.6024C21.2175 12.6949 21.2989 12.741 21.4202 12.741C21.5449 12.741 21.6273 12.6989 21.6671 12.6145C21.707 12.5302 21.7269 12.3486 21.7269 12.0695V9.09127ZM23.8272 9.57789V11.1595C23.8272 11.7403 23.796 12.1661 23.7336 12.437C23.6713 12.7078 23.5377 12.9609 23.3333 13.196C23.1288 13.4314 22.8663 13.6049 22.5457 13.7168C22.2251 13.8287 21.8569 13.8847 21.441 13.8847C20.9765 13.8847 20.5833 13.8368 20.2609 13.741C19.9386 13.6455 19.6882 13.5011 19.5098 13.3081C19.3312 13.115 19.2037 12.8814 19.1276 12.6072C19.0513 12.3331 19.0132 11.922 19.0132 11.3736V9.71905C19.0132 9.11883 19.0825 8.65009 19.2211 8.31256C19.3597 7.97522 19.6093 7.70429 19.9698 7.49988C20.3302 7.29557 20.7912 7.19336 21.3527 7.19336C21.8239 7.19336 22.2285 7.25906 22.5666 7.39045C22.9044 7.52185 23.1651 7.69301 23.3489 7.90383C23.5325 8.11475 23.6583 8.33208 23.7258 8.55592C23.7935 8.77976 23.8272 9.12045 23.8272 9.57789Z" fill="#141414"/>
<path d="M28.9852 9.37348H27.124V9.02313C27.124 8.72464 27.1059 8.53568 27.0694 8.45616C27.0331 8.37673 26.942 8.33696 26.7966 8.33696C26.6787 8.33696 26.5903 8.37347 26.5314 8.44639C26.4724 8.51941 26.443 8.62894 26.443 8.77488C26.443 8.97289 26.4577 9.11801 26.4872 9.21046C26.5166 9.3029 26.605 9.4044 26.7523 9.51464C26.8997 9.62498 27.202 9.78556 27.6595 9.99639C28.2694 10.2754 28.6698 10.5382 28.8604 10.7848C29.051 11.0314 29.1463 11.3899 29.1463 11.8602C29.1463 12.3858 29.0736 12.7825 28.928 13.05C28.7824 13.3178 28.539 13.5238 28.1976 13.6682C27.8562 13.8124 27.4445 13.8847 26.9629 13.8847C26.4291 13.8847 25.9726 13.8068 25.5929 13.6511C25.2135 13.4953 24.9527 13.2845 24.8106 13.0185C24.6685 12.7525 24.5974 12.3502 24.5974 11.8116V11.5001H26.4586V11.9089C26.4586 12.2561 26.482 12.4816 26.5288 12.5853C26.5756 12.6893 26.6683 12.741 26.8069 12.741C26.9558 12.741 27.0598 12.7063 27.1188 12.6365C27.1777 12.5667 27.2072 12.4199 27.2072 12.196C27.2072 11.8879 27.169 11.6948 27.0928 11.617C27.0131 11.5391 26.6059 11.3087 25.8712 10.9259C25.2542 10.6015 24.8782 10.3071 24.743 10.0427C24.6079 9.77824 24.5403 9.4644 24.5403 9.10093C24.5403 8.58511 24.6131 8.20476 24.7587 7.95976C24.9042 7.71487 25.1512 7.52591 25.4994 7.39289C25.8478 7.25987 26.2524 7.19336 26.7133 7.19336C27.1708 7.19336 27.5599 7.24767 27.8804 7.35638C28.201 7.4651 28.4472 7.6087 28.6186 7.78708C28.7903 7.96546 28.8942 8.13092 28.9305 8.28337C28.967 8.43592 28.9852 8.6744 28.9852 8.99882V9.37348Z" fill="#141414"/>
<path d="M34.1806 9.37348H32.3195V9.02313C32.3195 8.72464 32.3014 8.53568 32.2649 8.45616C32.2286 8.37673 32.1375 8.33696 31.992 8.33696C31.8741 8.33696 31.7858 8.37347 31.7269 8.44639C31.6679 8.51941 31.6386 8.62894 31.6386 8.77488C31.6386 8.97289 31.6532 9.11801 31.6827 9.21046C31.7121 9.3029 31.8005 9.4044 31.9479 9.51464C32.0952 9.62498 32.3975 9.78556 32.855 9.99639C33.4649 10.2754 33.8653 10.5382 34.0559 10.7848C34.2464 11.0314 34.3417 11.3899 34.3417 11.8602C34.3417 12.3858 34.269 12.7825 34.1235 13.05C33.9779 13.3178 33.7344 13.5238 33.3931 13.6682C33.0516 13.8124 32.64 13.8847 32.1584 13.8847C31.6247 13.8847 31.168 13.8068 30.7885 13.6511C30.4091 13.4953 30.1482 13.2845 30.0061 13.0185C29.864 12.7525 29.793 12.3502 29.793 11.8116V11.5001H31.6541V11.9089C31.6541 12.2561 31.6776 12.4816 31.7243 12.5853C31.7711 12.6893 31.8638 12.741 32.0024 12.741C32.1513 12.741 32.2553 12.7063 32.3143 12.6365C32.3732 12.5667 32.4027 12.4199 32.4027 12.196C32.4027 11.8879 32.3645 11.6948 32.2883 11.617C32.2086 11.5391 31.8014 11.3087 31.0667 10.9259C30.4497 10.6015 30.0737 10.3071 29.9386 10.0427C29.8034 9.77824 29.7358 9.4644 29.7358 9.10093C29.7358 8.58511 29.8086 8.20476 29.9542 7.95976C30.0997 7.71487 30.3467 7.52591 30.6949 7.39289C31.0433 7.25987 31.4479 7.19336 31.9089 7.19336C32.3663 7.19336 32.7554 7.24767 33.0759 7.35638C33.3965 7.4651 33.6426 7.6087 33.8141 7.78708C33.9857 7.96546 34.0897 8.13092 34.126 8.28337C34.1625 8.43592 34.1806 8.6744 34.1806 8.99882V9.37348Z" fill="#141414"/>
<path d="M35.1475 5.87354H38.8541V7.45001H37.336V8.94382H38.6876V10.4424H37.336V13.751H35.1475V5.87354Z" fill="#141414"/>
<path d="M41.6716 7.29433V13.751H39.5088V7.29433H41.6716ZM41.6716 5.87354V6.90022H39.5088V5.87354H41.6716Z" fill="#141414"/>
<path fill-rule="evenodd" clip-rule="evenodd" d="M66.5319 18.0526C66.5427 31.1235 66.5634 36.1151 66.6067 36.1415C66.6398 36.1615 66.6839 36.3385 66.7049 36.5348C66.726 36.7311 66.7663 36.9135 66.7948 36.9402C66.8231 36.9668 66.8464 37.0529 66.8464 37.1314C66.8464 37.2099 66.8709 37.2742 66.9009 37.2742C66.9309 37.2742 66.9554 37.3387 66.9554 37.4174C66.9554 37.4961 66.9913 37.6051 67.0353 37.6596C67.0793 37.7141 67.1161 37.8102 67.117 37.8733C67.118 37.9364 67.1433 37.988 67.1733 37.988C67.2032 37.988 67.2278 38.0339 67.2278 38.09C67.2278 38.1461 67.2491 38.192 67.2753 38.192C67.3014 38.192 67.3385 38.2838 67.3577 38.396C67.3768 38.5081 67.4167 38.5999 67.4464 38.5999C67.4759 38.5999 67.5002 38.6458 67.5002 38.7019C67.5002 38.758 67.5247 38.8039 67.5546 38.8039C67.5846 38.8039 67.6091 38.8383 67.6091 38.8804C67.6091 38.9224 67.6336 38.9568 67.6636 38.9568C67.6936 38.9568 67.7181 39.0035 67.7181 39.0605C67.7181 39.1173 67.7548 39.1772 67.7998 39.1933C67.8447 39.2095 67.8815 39.2661 67.8815 39.3193C67.8815 39.3723 67.9033 39.4158 67.9301 39.4158C67.9568 39.4158 67.994 39.4731 68.0128 39.5432C68.0316 39.6133 68.0711 39.6707 68.1005 39.6707C68.1298 39.6707 68.1539 39.7051 68.1539 39.7472C68.1539 39.7893 68.1784 39.8237 68.2084 39.8237C68.2383 39.8237 68.2629 39.8696 68.2629 39.9257C68.2629 39.9818 68.2818 40.0276 68.3049 40.0276C68.3281 40.0276 68.3929 40.1074 68.4492 40.2051C68.5053 40.3026 68.5937 40.395 68.6457 40.4105C68.6976 40.426 68.7544 40.5049 68.7717 40.586C68.7902 40.6729 68.8488 40.7469 68.9144 40.7664C68.9756 40.7845 69.0256 40.8421 69.0256 40.8942C69.0256 40.9464 69.0868 41.0342 69.1617 41.0894C69.2367 41.1445 69.2979 41.2153 69.2979 41.247C69.2979 41.2785 69.3776 41.3784 69.475 41.469C69.5724 41.5597 69.7172 41.7142 69.7968 41.8123C69.9212 41.9657 70.0331 42.0776 70.3909 42.4057C70.4417 42.4524 70.7475 42.7381 71.0459 43.0176C71.1066 43.0746 71.3815 43.3318 71.4424 43.3887C71.4681 43.4129 71.608 43.5442 71.753 43.6805C72.0434 43.9535 72.1672 44.0559 72.2068 44.0559C72.2211 44.0559 72.3851 44.1936 72.5712 44.3619C72.7571 44.5301 72.9319 44.6678 72.9596 44.6678C72.9872 44.6678 73.0907 44.7481 73.1896 44.8463C73.2885 44.9444 73.386 45.0247 73.4063 45.0247C73.4266 45.0247 73.5023 45.0764 73.5744 45.1395C73.793 45.3307 73.8669 45.3817 73.9263 45.3817C73.9575 45.3817 73.9831 45.4031 73.9831 45.4292C73.9831 45.4553 74.0309 45.4909 74.0893 45.5084C74.1476 45.5257 74.2105 45.5846 74.2291 45.6392C74.2477 45.6939 74.2991 45.7386 74.3435 45.7386C74.3879 45.7386 74.4809 45.796 74.5504 45.8661C74.6198 45.9362 74.7056 45.9936 74.741 45.9936C74.7764 45.9936 74.8622 46.0509 74.9317 46.121C75.0012 46.1911 75.0856 46.2485 75.1192 46.2485C75.153 46.2485 75.2113 46.2944 75.2488 46.3505C75.2862 46.4066 75.3565 46.4525 75.405 46.4525C75.4535 46.4525 75.5393 46.5098 75.5955 46.5799C75.6518 46.6501 75.7384 46.7074 75.788 46.7074C75.8375 46.7074 75.8923 46.7418 75.9096 46.7839C75.9268 46.826 75.9811 46.8604 76.0301 46.8604C76.0792 46.8604 76.1676 46.9178 76.2264 46.9879C76.2854 47.058 76.375 47.1153 76.4255 47.1153C76.476 47.1153 76.5479 47.1612 76.5854 47.2173C76.6229 47.2734 76.69 47.3193 76.7347 47.3193C76.7795 47.3193 76.816 47.3407 76.816 47.3669C76.816 47.393 76.8711 47.4307 76.9386 47.4506C77.006 47.4706 77.0983 47.5238 77.1437 47.5688C77.2293 47.6539 77.3835 47.7534 77.5242 47.8142C77.5691 47.8337 77.6521 47.8898 77.7086 47.9388C77.7651 47.9879 77.8768 48.0416 77.9568 48.058C78.0368 48.0745 78.1369 48.133 78.1794 48.1881C78.2218 48.2431 78.2879 48.2881 78.3261 48.2881C78.3645 48.2881 78.3959 48.3095 78.3959 48.3357C78.3959 48.3618 78.451 48.3995 78.5184 48.4194C78.5859 48.4394 78.6793 48.4968 78.726 48.5469C78.7727 48.5971 78.883 48.6549 78.9712 48.6753C79.0593 48.6957 79.171 48.7546 79.2194 48.8062C79.2679 48.8578 79.3353 48.9 79.3693 48.9C79.4032 48.9 79.4309 48.923 79.4309 48.951C79.4309 48.9791 79.4808 49.002 79.5417 49.002C79.6024 49.002 79.6664 49.0364 79.6836 49.0785C79.7009 49.1206 79.7614 49.155 79.8182 49.155C79.8748 49.155 79.9213 49.1779 79.9213 49.206C79.9213 49.234 79.958 49.257 80.003 49.257C80.0479 49.257 80.0847 49.2795 80.0847 49.3069C80.0847 49.3345 80.146 49.3714 80.2209 49.389C80.2958 49.4066 80.3571 49.4414 80.3571 49.4664C80.3571 49.4915 80.4061 49.5119 80.466 49.5119C80.526 49.5119 80.575 49.5345 80.575 49.5619C80.575 49.5894 80.6363 49.6264 80.7112 49.644C80.7861 49.6616 80.8474 49.6964 80.8474 49.7214C80.8474 49.7465 80.8842 49.7669 80.9291 49.7669C80.9741 49.7669 81.0108 49.7898 81.0108 49.8178C81.0108 49.8459 81.0599 49.8688 81.1198 49.8688C81.1797 49.8688 81.2287 49.8914 81.2287 49.9188C81.2287 49.9464 81.29 49.9833 81.3649 50.0009C81.4398 50.0185 81.5011 50.0486 81.5011 50.0678C81.5011 50.0871 81.6115 50.1455 81.7463 50.1975C81.8811 50.2496 81.9914 50.3116 81.9914 50.3354C81.9914 50.3592 82.0282 50.3787 82.0732 50.3787C82.1181 50.3787 82.1549 50.4017 82.1549 50.4297C82.1549 50.4578 82.2039 50.4807 82.2638 50.4807C82.3238 50.4807 82.3728 50.5019 82.3728 50.5276C82.3728 50.5535 82.4416 50.5887 82.5256 50.606C82.6098 50.6234 82.7131 50.6825 82.7556 50.7376C82.798 50.7927 82.8763 50.8377 82.9296 50.8377C82.9829 50.8377 83.0265 50.8606 83.0265 50.8887C83.0265 50.9167 83.0509 50.9396 83.0806 50.9396C83.1686 50.9396 83.5713 51.1137 83.5713 51.1516C83.5713 51.1708 83.651 51.2029 83.7484 51.2229C83.8456 51.2429 83.9621 51.2975 84.0071 51.3443C84.0935 51.4341 84.4453 51.6025 84.5465 51.6025C84.5794 51.6025 84.6064 51.6201 84.6064 51.6415C84.6064 51.6824 85.0041 51.8575 85.0971 51.8575C85.1268 51.8575 85.1512 51.8804 85.1512 51.9085C85.1512 51.9365 85.2002 51.9595 85.2602 51.9595C85.3201 51.9595 85.3691 51.9824 85.3691 52.0104C85.3691 52.0385 85.4059 52.0614 85.4508 52.0614C85.4958 52.0614 85.5325 52.0818 85.5325 52.1067C85.5325 52.1317 85.6183 52.1671 85.7232 52.1856C85.8281 52.204 85.9139 52.2366 85.9139 52.2581C85.9139 52.2797 85.9997 52.3289 86.1046 52.3674C86.2094 52.4059 86.2952 52.4551 86.2952 52.4766C86.2952 52.4982 86.381 52.5308 86.4859 52.5492C86.5908 52.5676 86.6766 52.6031 86.6766 52.6281C86.6766 52.6529 86.7134 52.6733 86.7583 52.6733C86.8033 52.6733 86.84 52.6937 86.84 52.7186C86.84 52.7436 86.9258 52.779 87.0307 52.7975C87.1356 52.8158 87.2214 52.8528 87.2214 52.8796C87.2214 52.9064 87.2704 52.9283 87.3303 52.9283C87.3903 52.9283 87.4393 52.9512 87.4393 52.9793C87.4393 53.0073 87.4761 53.0303 87.521 53.0303C87.566 53.0303 87.6027 53.0507 87.6027 53.0755C87.6027 53.1005 87.6885 53.1359 87.7934 53.1544C87.8983 53.1728 87.9842 53.204 87.9845 53.2238C87.985 53.2737 88.2573 53.3872 88.3763 53.3872C88.4303 53.3872 88.4744 53.4101 88.4744 53.4382C88.4744 53.4662 88.4988 53.4892 88.5285 53.4892C88.6186 53.4892 89.0192 53.6636 89.0192 53.7028C89.0192 53.723 89.105 53.7546 89.2098 53.7729C89.3147 53.7914 89.4005 53.8269 89.4005 53.8518C89.4005 53.8767 89.4618 53.8971 89.5367 53.8971C89.6116 53.8971 89.6729 53.9147 89.6729 53.9361C89.6729 53.977 90.0706 54.1521 90.1636 54.1521C90.1933 54.1521 90.2177 54.175 90.2177 54.203C90.2177 54.2311 90.2667 54.254 90.3267 54.254C90.3866 54.254 90.4356 54.2741 90.4356 54.2985C90.4356 54.323 90.5337 54.3577 90.6535 54.3756C90.7734 54.3935 90.8714 54.4308 90.8714 54.4586C90.8714 54.4863 90.9205 54.509 90.9804 54.509C91.0403 54.509 91.0894 54.5319 91.0894 54.56C91.0894 54.588 91.1506 54.611 91.2255 54.611C91.3005 54.611 91.3617 54.6314 91.3617 54.6562C91.3617 54.6812 91.4475 54.7166 91.5524 54.7351C91.6573 54.7535 91.7431 54.7905 91.7431 54.8172C91.7431 54.844 91.8044 54.8659 91.8793 54.8659C91.9542 54.8659 92.0155 54.8889 92.0155 54.9169C92.0155 54.945 92.0645 54.9679 92.1244 54.9679C92.1844 54.9679 92.2334 54.9906 92.2334 55.0183C92.2334 55.046 92.3315 55.0834 92.4513 55.1012C92.5712 55.1192 92.6692 55.1539 92.6692 55.1784C92.6692 55.2028 92.7183 55.2229 92.7782 55.2229C92.8381 55.2229 92.8871 55.2429 92.8871 55.2673C92.8871 55.2918 92.9832 55.3261 93.1004 55.3437C93.2178 55.3613 93.3237 55.4034 93.3358 55.4373C93.366 55.5223 94.1516 55.5223 94.1818 55.4373C94.1939 55.4034 94.2998 55.3613 94.4172 55.3437C94.5344 55.3261 94.6305 55.2918 94.6305 55.2673C94.6305 55.2429 94.6795 55.2229 94.7394 55.2229C94.7993 55.2229 94.8484 55.2028 94.8484 55.1784C94.8484 55.1539 94.9464 55.1192 95.0663 55.1012C95.1861 55.0834 95.2842 55.046 95.2842 55.0183C95.2842 54.9906 95.3332 54.9679 95.3932 54.9679C95.4531 54.9679 95.5021 54.945 95.5021 54.9169C95.5021 54.8889 95.5634 54.8659 95.6383 54.8659C95.7132 54.8659 95.7745 54.8455 95.7745 54.8207C95.7745 54.7957 95.8603 54.7602 95.9652 54.7418C96.07 54.7234 96.1559 54.6864 96.1559 54.6597C96.1559 54.6329 96.2171 54.611 96.2921 54.611C96.367 54.611 96.4282 54.588 96.4282 54.56C96.4282 54.5319 96.4773 54.509 96.5372 54.509C96.5971 54.509 96.6462 54.4863 96.6462 54.4586C96.6462 54.4308 96.7442 54.3935 96.8641 54.3756C96.9839 54.3577 97.082 54.323 97.082 54.2985C97.082 54.2741 97.131 54.254 97.1909 54.254C97.2509 54.254 97.2999 54.2311 97.2999 54.203C97.2999 54.175 97.3243 54.1521 97.354 54.1521C97.447 54.1521 97.8447 53.977 97.8447 53.9361C97.8447 53.9147 97.906 53.8971 97.9809 53.8971C98.0558 53.8971 98.1171 53.8767 98.1171 53.8518C98.1171 53.8269 98.2029 53.7914 98.3078 53.7729C98.4126 53.7546 98.4984 53.7176 98.4984 53.6908C98.4984 53.6641 98.5475 53.6421 98.6074 53.6421C98.6673 53.6421 98.7163 53.621 98.7163 53.5952C98.7163 53.5694 98.7899 53.5332 98.8798 53.5147C98.9697 53.4962 99.0432 53.46 99.0432 53.4341C99.0432 53.4084 99.0873 53.3872 99.1413 53.3872C99.2603 53.3872 99.5326 53.2737 99.5331 53.2238C99.5334 53.204 99.6193 53.1728 99.7242 53.1544C99.8291 53.1359 99.9149 53.1005 99.9149 53.0755C99.9149 53.0507 99.9516 53.0303 99.9966 53.0303C100.042 53.0303 100.078 53.0073 100.078 52.9793C100.078 52.9512 100.127 52.9283 100.187 52.9283C100.247 52.9283 100.296 52.9064 100.296 52.8796C100.296 52.8528 100.382 52.8158 100.487 52.7975C100.592 52.779 100.678 52.7436 100.678 52.7186C100.678 52.6937 100.714 52.6733 100.759 52.6733C100.804 52.6733 100.841 52.6529 100.841 52.6281C100.841 52.6031 100.927 52.5676 101.032 52.5492C101.137 52.5308 101.222 52.4938 101.222 52.4671C101.222 52.4403 101.271 52.4184 101.331 52.4184C101.391 52.4184 101.44 52.3954 101.44 52.3674C101.44 52.3393 101.477 52.3164 101.522 52.3164C101.567 52.3164 101.604 52.2945 101.604 52.2677C101.604 52.2409 101.69 52.204 101.794 52.1856C101.899 52.1671 101.985 52.1317 101.985 52.1067C101.985 52.0818 102.022 52.0614 102.067 52.0614C102.112 52.0614 102.148 52.0385 102.148 52.0104C102.148 51.9824 102.198 51.9595 102.257 51.9595C102.317 51.9595 102.366 51.9365 102.366 51.9085C102.366 51.8804 102.391 51.8575 102.42 51.8575C102.513 51.8575 102.911 51.6824 102.911 51.6415C102.911 51.6201 102.95 51.6025 102.998 51.6025C103.106 51.6025 103.401 51.4524 103.51 51.3417C103.556 51.2963 103.672 51.2429 103.769 51.2229C103.867 51.2029 103.946 51.1654 103.946 51.1395C103.946 51.1138 103.995 51.0926 104.055 51.0926C104.115 51.0926 104.164 51.0715 104.164 51.0457C104.164 51.0198 104.238 50.9836 104.328 50.9651C104.418 50.9467 104.491 50.9105 104.491 50.8846C104.491 50.8588 104.535 50.8377 104.588 50.8377C104.641 50.8377 104.72 50.7927 104.762 50.7376C104.804 50.6825 104.908 50.6234 104.992 50.606C105.076 50.5887 105.145 50.5535 105.145 50.5276C105.145 50.5019 105.194 50.4807 105.254 50.4807C105.314 50.4807 105.363 50.4578 105.363 50.4297C105.363 50.4017 105.399 50.3787 105.444 50.3787C105.489 50.3787 105.526 50.3592 105.526 50.3354C105.526 50.3116 105.636 50.2496 105.771 50.1975C105.906 50.1455 106.016 50.0871 106.016 50.0678C106.016 50.0486 106.078 50.0185 106.153 50.0009C106.228 49.9833 106.289 49.9464 106.289 49.9188C106.289 49.8914 106.338 49.8688 106.398 49.8688C106.458 49.8688 106.507 49.8459 106.507 49.8178C106.507 49.7898 106.544 49.7669 106.588 49.7669C106.633 49.7669 106.67 49.7465 106.67 49.7214C106.67 49.6964 106.731 49.6616 106.806 49.644C106.881 49.6264 106.943 49.5894 106.943 49.5619C106.943 49.5345 106.992 49.5119 107.052 49.5119C107.111 49.5119 107.161 49.4915 107.161 49.4664C107.161 49.4414 107.222 49.4066 107.297 49.389C107.372 49.3714 107.433 49.3345 107.433 49.3069C107.433 49.2795 107.47 49.257 107.515 49.257C107.56 49.257 107.596 49.234 107.596 49.206C107.596 49.1779 107.643 49.155 107.699 49.155C107.756 49.155 107.817 49.1206 107.834 49.0785C107.851 49.0364 107.915 49.002 107.976 49.002C108.037 49.002 108.087 48.9791 108.087 48.951C108.087 48.923 108.114 48.9 108.148 48.9C108.182 48.9 108.25 48.8578 108.298 48.8062C108.347 48.7546 108.458 48.6957 108.546 48.6753C108.635 48.6549 108.745 48.5971 108.792 48.5469C108.838 48.4968 108.932 48.4394 108.999 48.4194C109.067 48.3995 109.122 48.3618 109.122 48.3357C109.122 48.3095 109.15 48.2881 109.183 48.2881C109.217 48.2881 109.285 48.2459 109.333 48.1943C109.382 48.1427 109.483 48.0862 109.559 48.0687C109.634 48.0514 109.746 47.9931 109.808 47.9394C109.87 47.8857 109.973 47.8259 110.038 47.8065C110.104 47.7871 110.157 47.7499 110.157 47.7238C110.157 47.6977 110.185 47.6762 110.219 47.6762C110.252 47.6762 110.32 47.6337 110.368 47.5815C110.417 47.5295 110.512 47.4706 110.579 47.4506C110.646 47.4307 110.702 47.393 110.702 47.3669C110.702 47.3407 110.738 47.3193 110.783 47.3193C110.828 47.3193 110.895 47.2734 110.932 47.2173C110.97 47.1612 111.042 47.1153 111.092 47.1153C111.143 47.1153 111.232 47.058 111.291 46.9879C111.35 46.9178 111.438 46.8604 111.487 46.8604C111.537 46.8604 111.591 46.826 111.608 46.7839C111.625 46.7418 111.68 46.7074 111.73 46.7074C111.779 46.7074 111.866 46.6501 111.922 46.5799C111.978 46.5098 112.065 46.4525 112.114 46.4525C112.163 46.4525 112.238 46.4066 112.281 46.3505C112.325 46.2944 112.382 46.2485 112.41 46.2485C112.437 46.2485 112.516 46.1911 112.586 46.121C112.655 46.0509 112.741 45.9936 112.777 45.9936C112.812 45.9936 112.898 45.9362 112.967 45.8661C113.037 45.796 113.13 45.7386 113.174 45.7386C113.219 45.7386 113.27 45.6939 113.289 45.6392C113.307 45.5846 113.37 45.5257 113.428 45.5084C113.487 45.4909 113.535 45.4553 113.535 45.4292C113.535 45.4031 113.56 45.3817 113.591 45.3817C113.651 45.3817 113.725 45.3307 113.943 45.1395C114.015 45.0764 114.091 45.0247 114.111 45.0247C114.132 45.0247 114.229 44.9444 114.328 44.8463C114.427 44.7481 114.53 44.6678 114.558 44.6678C114.586 44.6678 114.761 44.5301 114.946 44.3619C115.132 44.1936 115.296 44.0559 115.311 44.0559C115.351 44.0559 115.474 43.9532 115.772 43.6735C115.921 43.5333 116.064 43.3988 116.09 43.3745C116.151 43.3179 116.392 43.0927 116.472 43.0176C116.506 42.9857 116.656 42.8449 116.806 42.7047C116.956 42.5644 117.096 42.4326 117.118 42.4118C117.14 42.3909 117.243 42.2992 117.349 42.2079C117.454 42.1165 117.613 41.95 117.703 41.8378C117.792 41.7256 117.945 41.5597 118.043 41.469C118.14 41.3784 118.22 41.2785 118.22 41.247C118.22 41.2153 118.281 41.1445 118.356 41.0894C118.431 41.0342 118.492 40.9464 118.492 40.8942C118.492 40.8421 118.542 40.7845 118.603 40.7664C118.669 40.7469 118.727 40.6729 118.746 40.586C118.763 40.5049 118.82 40.426 118.872 40.4105C118.924 40.395 119.012 40.3026 119.068 40.2051C119.125 40.1074 119.19 40.0276 119.213 40.0276C119.236 40.0276 119.255 39.9818 119.255 39.9257C119.255 39.8696 119.279 39.8237 119.309 39.8237C119.339 39.8237 119.364 39.7893 119.364 39.7472C119.364 39.7051 119.388 39.6707 119.417 39.6707C119.447 39.6707 119.486 39.6133 119.505 39.5432C119.524 39.4731 119.561 39.4158 119.587 39.4158C119.614 39.4158 119.636 39.3723 119.636 39.3193C119.636 39.2661 119.673 39.2095 119.718 39.1933C119.763 39.1772 119.8 39.1173 119.8 39.0605C119.8 39.0035 119.824 38.9568 119.854 38.9568C119.884 38.9568 119.908 38.9224 119.908 38.8804C119.908 38.8383 119.933 38.8039 119.963 38.8039C119.993 38.8039 120.017 38.758 120.017 38.7019C120.017 38.6458 120.042 38.5999 120.071 38.5999C120.101 38.5999 120.141 38.5081 120.16 38.396C120.179 38.2838 120.216 38.192 120.242 38.192C120.268 38.192 120.29 38.1461 120.29 38.09C120.29 38.0339 120.314 37.988 120.344 37.988C120.374 37.988 120.399 37.9326 120.399 37.8648C120.399 37.7971 120.425 37.7335 120.457 37.7235C120.489 37.7136 120.529 37.6084 120.546 37.4897C120.563 37.3712 120.598 37.2742 120.624 37.2742C120.65 37.2742 120.671 37.2099 120.671 37.1314C120.671 37.0529 120.694 36.9668 120.723 36.9402C120.751 36.9135 120.792 36.7311 120.813 36.5348C120.834 36.3385 120.878 36.1615 120.911 36.1415C120.954 36.1151 120.975 31.1235 120.986 18.0526L121.001 0H66.5171L66.5319 18.0526ZM119.579 18.3439C119.577 27.9941 119.555 35.5055 119.528 35.6934C119.409 36.5029 118.978 37.8106 118.808 37.8775C118.784 37.8869 118.764 37.934 118.764 37.982C118.764 38.0302 118.743 38.0914 118.718 38.118C118.692 38.1447 118.566 38.3501 118.439 38.5744C118.243 38.9173 117.403 40.0983 117.296 40.1806C117.277 40.1946 117.208 40.2728 117.141 40.3544C116.376 41.2861 114.252 43.2192 113.045 44.0814C112.888 44.1936 112.732 44.3095 112.698 44.3389C112.53 44.4838 111.101 45.4783 110.674 45.7465C110.555 45.822 110.236 46.027 109.966 46.202C109.452 46.5353 107.277 47.8369 106.876 48.0506C106.748 48.119 106.422 48.2953 106.153 48.4425C105.883 48.5896 105.577 48.7555 105.472 48.8108C105.367 48.8662 105.122 48.9982 104.927 49.1041C104.475 49.3499 104.2 49.4918 103.592 49.7941C103.323 49.9281 102.943 50.1177 102.748 50.2153C102.233 50.4736 99.6441 51.6895 99.012 51.9702C97.4428 52.667 96.7196 52.9793 96.6749 52.9793C96.6573 52.9793 96.466 53.056 96.2497 53.15C95.7223 53.3787 95.5387 53.4546 95.1208 53.617C94.926 53.6926 94.6386 53.8089 94.4821 53.8754C94.3256 53.942 94.1354 54.0111 94.0594 54.0289C93.9834 54.0468 93.9078 54.0818 93.8913 54.1067C93.8548 54.1619 93.6498 54.1676 93.6498 54.1134C93.6498 54.0923 93.5461 54.0446 93.4191 54.0075C93.2922 53.9704 93.0586 53.8845 92.8999 53.8167C92.7413 53.7487 92.6018 53.6931 92.5898 53.6931C92.578 53.6931 92.3825 53.6128 92.1555 53.5147C91.9285 53.4165 91.728 53.3362 91.7101 53.3362C91.6923 53.3362 91.4712 53.2444 91.219 53.1322C90.9668 53.0201 90.746 52.9283 90.7283 52.9283C90.7107 52.9283 90.5458 52.8619 90.3617 52.7807C90.1777 52.6993 89.9044 52.5817 89.7546 52.5191C88.9223 52.1712 85.9921 50.8185 84.9605 50.3061C83.7398 49.6996 82.9543 49.3017 82.8903 49.2572C82.8604 49.2364 82.6888 49.1439 82.509 49.0515C82.0462 48.8135 81.3436 48.4365 80.7965 48.1324C80.3571 47.8884 77.9826 46.4874 77.96 46.4591C77.945 46.4402 77.7612 46.3224 77.5514 46.1975C77.3417 46.0726 77.1578 45.9554 77.1429 45.9373C77.1279 45.9191 77.0053 45.8384 76.8705 45.7577C76.7356 45.6772 76.4782 45.5098 76.2984 45.386C75.9216 45.1266 74.9263 44.4238 74.8023 44.3297C73.9444 43.6786 73.7661 43.5404 73.4947 43.3165C73.3586 43.2042 73.1493 43.0329 73.0296 42.9356C72.7591 42.7159 71.2524 41.3075 70.955 40.9965C70.4378 40.4553 69.4069 39.1785 69.4069 39.0791C69.4069 39.0583 69.3726 39.0052 69.3308 38.9608C69.139 38.7582 68.5509 37.6362 68.3266 37.0447C68.175 36.6453 68.0661 36.2072 67.9903 35.6934C67.9342 35.3123 67.9164 1.41206 67.9723 1.35979C67.9922 1.34105 79.6125 1.32576 93.7952 1.32576H119.582L119.579 18.3439ZM68.9212 18.8028C68.9237 27.9104 68.947 35.4882 68.9728 35.6425C69.0542 36.128 69.1152 36.3717 69.241 36.7133C69.4332 37.2351 70.1089 38.4936 70.311 38.7058C70.3531 38.7502 70.3875 38.8114 70.3875 38.8419C70.3875 38.8725 70.4067 38.905 70.4303 38.9144C70.4537 38.9237 70.6304 39.1379 70.8227 39.3903C71.015 39.6427 71.1858 39.8607 71.2021 39.8747C71.2186 39.8887 71.4278 40.1067 71.6672 40.3591C72.4435 41.1775 73.7475 42.3535 74.5702 42.9769C74.6939 43.0706 74.8425 43.1854 74.9005 43.2319C75.1548 43.436 75.5538 43.7227 76.2565 44.2062C76.5192 44.387 76.7465 44.5484 76.7615 44.5648C76.9712 44.7948 81.7486 47.6762 81.9199 47.6762C81.9351 47.6762 82.0124 47.7189 82.092 47.771C82.1715 47.8231 82.3837 47.9417 82.5635 48.0343C82.8739 48.1943 82.9934 48.257 83.4335 48.4903C83.5374 48.5455 83.7887 48.6751 83.9919 48.7784C84.195 48.8818 84.4838 49.0289 84.6336 49.1054C85.8013 49.7016 88.3491 50.8935 89.8091 51.5267C90.6222 51.8793 90.9374 52.0134 91.3073 52.1639C91.532 52.2555 91.8698 52.3959 92.0577 52.4762C92.2458 52.5566 92.4094 52.6223 92.4215 52.6223C92.4335 52.6223 92.627 52.7018 92.8515 52.7988C93.076 52.8959 93.3231 52.9902 93.4007 53.0085C93.4784 53.0267 93.5553 53.062 93.5718 53.0869C93.6108 53.1458 93.9068 53.1458 93.9458 53.0869C93.9623 53.062 94.0392 53.0267 94.1169 53.0085C94.1945 52.9902 94.4416 52.8959 94.6661 52.7988C94.8906 52.7018 95.084 52.6223 95.0958 52.6223C95.1078 52.6223 95.2593 52.5637 95.4324 52.4919C95.6056 52.4203 95.7963 52.3424 95.8562 52.3188C95.9161 52.2954 96.1 52.2181 96.2648 52.1471C96.4296 52.0762 96.736 51.9457 96.9458 51.857C98.3001 51.2843 100.671 50.1989 102.148 49.4746C102.553 49.2763 103.019 49.0488 103.184 48.9689C103.348 48.8889 103.495 48.8119 103.51 48.7977C103.541 48.7687 104.07 48.5004 104.259 48.4179C104.326 48.3886 104.381 48.3474 104.382 48.3264C104.382 48.3053 104.409 48.2881 104.441 48.2881C104.473 48.2881 104.675 48.1923 104.889 48.075C105.104 47.9577 105.329 47.8367 105.389 47.8061C106.401 47.2936 109.669 45.328 110.684 44.6218C110.87 44.4928 111.088 44.3415 111.17 44.2854C111.311 44.1892 111.919 43.7528 112.331 43.4522C112.538 43.3016 113.202 42.787 113.294 42.7057C113.327 42.6771 113.509 42.5275 113.7 42.3732C114.215 41.9569 115.48 40.7743 115.91 40.3081C116.117 40.0837 116.299 39.8887 116.315 39.8747C116.332 39.8607 116.503 39.6427 116.695 39.3903C116.887 39.1379 117.064 38.9237 117.087 38.9144C117.111 38.905 117.13 38.8747 117.13 38.8472C117.13 38.8197 117.191 38.7219 117.266 38.63C117.341 38.538 117.402 38.4482 117.402 38.4304C117.402 38.4125 117.484 38.277 117.583 38.1293C117.682 37.9814 117.808 37.7688 117.863 37.6566C117.917 37.5444 118.002 37.3723 118.051 37.2742C118.101 37.176 118.209 36.8892 118.293 36.6368C118.377 36.3844 118.474 36.109 118.509 36.0249C118.558 35.9088 118.577 31.828 118.588 19.0578L118.603 2.24359H68.9166L68.9212 18.8028Z" fill="url(#paint1_linear_484_30)"/>
<path d="M80.1017 16.424V15.9875C79.9461 15.9465 79.761 15.9233 79.5928 15.9233C78.8442 15.9233 78.4194 16.2983 78.4194 16.9661C78.4194 17.6313 78.8274 18.0032 79.5549 18.0032C79.7147 18.0032 79.925 17.9797 80.1353 17.9387V17.5082C79.9923 17.5522 79.8367 17.5753 79.6937 17.5753C79.2773 17.5753 79.0419 17.3556 79.0419 16.9601C79.0419 16.5677 79.2647 16.3479 79.6559 16.3479C79.8031 16.3479 79.9629 16.3744 80.1017 16.424Z" fill="#545454"/>
<path d="M80.4631 17.9587H81.8552V17.5196H81.0603V17.1625H81.7375V16.7237H81.0603V16.4162H81.8426V15.9771H80.4631V17.9587Z" fill="#545454"/>
<path d="M84.0151 17.9587L83.5567 17.0834C83.7249 16.9578 83.8342 16.7703 83.8342 16.5742C83.8342 16.1907 83.5482 15.9771 83.0057 15.9771H82.2192V17.9587H82.8122V17.268H83.0183L83.3422 17.9587H84.0151ZM82.9763 16.8464H82.8122V16.4102H82.9889C83.1613 16.4102 83.2412 16.4806 83.2412 16.6122C83.2412 16.7703 83.1613 16.8464 82.9763 16.8464Z" fill="#545454"/>
<path d="M85.2052 16.4162H85.7435V15.9771H84.0613V16.4162H84.608V17.9587H85.2052V16.4162Z" fill="#545454"/>
<path d="M86.571 15.9771H85.9756V17.9587H86.571V15.9771Z" fill="#545454"/>
<path d="M87.5761 16.4162H88.3121V15.9771H86.9832V17.9587H87.5761V17.224H88.2322V16.7849H87.5761V16.4162Z" fill="#545454"/>
<path d="M89.2337 15.9771H88.6382V17.9587H89.2337V15.9771Z" fill="#545454"/>
<path d="M91.2418 16.424V15.9875C91.0862 15.9465 90.9011 15.9233 90.7329 15.9233C89.9843 15.9233 89.5596 16.2983 89.5596 16.9661C89.5596 17.6313 89.9717 18.0032 90.6951 18.0032C90.8549 18.0032 91.0652 17.9797 91.2796 17.9387V17.5082C91.1367 17.5522 90.981 17.5753 90.838 17.5753C90.4217 17.5753 90.182 17.3556 90.182 16.9601C90.182 16.5677 90.4049 16.3479 90.796 16.3479C90.9474 16.3479 91.1072 16.3744 91.2418 16.424Z" fill="#545454"/>
<path d="M92.7576 17.9587H93.3759L92.7408 15.9771H92.0511L91.416 17.9587H92.0132L92.0973 17.5986H92.6693L92.7576 17.9587ZM92.2025 17.1684L92.3707 16.4687H92.3791L92.5558 17.1684H92.2025Z" fill="#545454"/>
<path d="M94.4022 16.4162H94.9405V15.9771H93.2583V16.4162H93.8092V17.9587H94.4022V16.4162Z" fill="#545454"/>
<path d="M95.1726 17.9587H96.5646V17.5196H95.7698V17.1625H96.4469V16.7237H95.7698V16.4162H96.5563V15.9771H95.1726V17.9587Z" fill="#545454"/>
<path d="M99.1903 16.424V15.9875C99.0305 15.9465 98.8455 15.9233 98.6773 15.9233C97.9287 15.9233 97.5039 16.2983 97.5039 16.9661C97.5039 17.6313 97.9161 18.0032 98.6394 18.0032C98.7992 18.0032 99.0095 17.9797 99.2198 17.9387V17.5082C99.081 17.5522 98.9254 17.5753 98.7824 17.5753C98.366 17.5753 98.1264 17.3556 98.1264 16.9601C98.1264 16.5677 98.3492 16.3479 98.7403 16.3479C98.8917 16.3479 99.0515 16.3744 99.1903 16.424Z" fill="#545454"/>
<path d="M100.504 18.0032C101.173 18.0032 101.556 17.6253 101.556 16.9575C101.556 16.2953 101.181 15.9233 100.521 15.9233C99.8399 15.9233 99.4614 16.3039 99.4614 16.9836C99.4614 17.6369 99.8399 18.0032 100.504 18.0032ZM100.513 17.5783C100.235 17.5783 100.08 17.3586 100.08 16.9631C100.08 16.5706 100.235 16.3509 100.513 16.3509C100.782 16.3509 100.938 16.5706 100.938 16.9631C100.938 17.3586 100.782 17.5783 100.513 17.5783Z" fill="#545454"/>
<path d="M103.648 17.1778V15.9771H103.059V17.2215C103.059 17.4676 102.967 17.5817 102.765 17.5817C102.559 17.5817 102.458 17.4646 102.458 17.2159V15.9771H101.865V17.1719C101.865 17.7398 102.151 18.0064 102.74 18.0064C103.358 18.0064 103.648 17.7398 103.648 17.1778Z" fill="#545454"/>
<path d="M105.838 17.9587L105.38 17.0834C105.548 16.9578 105.653 16.7703 105.653 16.5742C105.653 16.1907 105.367 15.9771 104.825 15.9771H104.038V17.9587H104.636V17.268H104.837L105.161 17.9587H105.838ZM104.8 16.8464H104.636V16.4102H104.808C104.985 16.4102 105.065 16.4806 105.065 16.6122C105.065 16.7703 104.985 16.8464 104.8 16.8464Z" fill="#545454"/>
<path d="M107.288 16.014C107.107 15.9525 106.934 15.9233 106.745 15.9233C106.274 15.9233 105.967 16.1371 105.967 16.518C105.967 17.1008 106.8 17.0978 106.8 17.4201C106.8 17.5168 106.711 17.5813 106.564 17.5813C106.4 17.5813 106.177 17.5082 105.992 17.4231V17.8861C106.169 17.9622 106.383 18.0032 106.581 18.0032C107.073 18.0032 107.397 17.7775 107.397 17.3761C107.397 16.7904 106.56 16.8079 106.56 16.4856C106.56 16.4009 106.64 16.3449 106.783 16.3449C106.913 16.3449 107.077 16.383 107.288 16.4651V16.014Z" fill="#545454"/>
<path d="M107.694 17.9587H109.086V17.5196H108.291V17.1625H108.968V16.7237H108.291V16.4162H109.078V15.9771H107.694V17.9587Z" fill="#545454"/>
<path d="M109.075 18.9136H78.4341V19.3828H109.075V18.9136Z" fill="#545454"/>
<path d="M111.331 6.43896V7.45593H111.898V8.47778H111.331V11.9326C111.331 12.3575 111.355 12.5943 111.402 12.643C111.448 12.6917 111.643 12.716 111.986 12.716V13.7572H111.139C110.661 13.7572 110.319 13.7385 110.115 13.7012C109.91 13.6641 109.73 13.5781 109.574 13.4434C109.418 13.3088 109.321 13.1546 109.283 12.9811C109.245 12.8077 109.226 12.3996 109.226 11.7574V8.47778H108.774V7.45593H109.226V6.43896H111.331Z" fill="#141414"/>
<path d="M80.6995 9.30716H78.5108V7.93803C78.5108 7.53995 78.4874 7.29154 78.4406 7.19271C78.3939 7.09408 78.2907 7.04466 78.1313 7.04466C77.9511 7.04466 77.8367 7.10476 77.7882 7.22464C77.7396 7.34472 77.7154 7.60421 77.7154 8.00321V11.6621C77.7154 12.0449 77.7396 12.2946 77.7882 12.4114C77.8367 12.5281 77.9458 12.5866 78.1158 12.5866C78.2786 12.5866 78.3852 12.5281 78.4354 12.411C78.4856 12.2939 78.5108 12.0192 78.5108 11.5866V10.5965H80.6995V10.9034C80.6995 11.7189 80.6379 12.2972 80.5149 12.6382C80.3918 12.9793 80.1197 13.2781 79.6987 13.5348C79.2776 13.7914 78.7586 13.9197 78.1417 13.9197C77.5005 13.9197 76.972 13.811 76.5561 13.5937C76.1402 13.3764 75.8647 13.0755 75.7296 12.6912C75.5944 12.3067 75.5269 11.7286 75.5269 10.9565V8.65519C75.5269 8.0876 75.5476 7.66187 75.5892 7.37797C75.6308 7.09418 75.7547 6.82086 75.9609 6.55812C76.1671 6.29538 76.4529 6.08856 76.8187 5.93777C77.1843 5.78687 77.6045 5.71143 78.0794 5.71143C78.7239 5.71143 79.2559 5.82805 79.6753 6.06131C80.0945 6.29456 80.3702 6.58537 80.5018 6.93353C80.6335 7.28178 80.6995 7.82354 80.6995 8.55879V9.30716Z" fill="#141414"/>
<path d="M83.7008 7.31011L83.6177 8.1593C83.9226 7.55114 84.3645 7.22916 84.9434 7.19336V9.46595C84.5587 9.46595 84.2761 9.51466 84.096 9.61199C83.9157 9.70931 83.8048 9.84478 83.7632 10.0183C83.7217 10.1919 83.7008 10.5919 83.7008 11.2179V13.768H81.6006V7.31011H83.7008Z" fill="#141414"/>
<path d="M88.2436 9.09127C88.2436 8.76034 88.2245 8.55196 88.1864 8.46592C88.1482 8.37998 88.0668 8.33696 87.9421 8.33696C87.8173 8.33696 87.7341 8.37998 87.6925 8.46592C87.6509 8.55196 87.6302 8.76034 87.6302 9.09127V12.0063C87.6302 12.3113 87.6509 12.5099 87.6925 12.6024C87.7341 12.6949 87.8155 12.741 87.9369 12.741C88.0616 12.741 88.1439 12.6989 88.1837 12.6145C88.2237 12.5302 88.2436 12.3486 88.2436 12.0695V9.09127ZM90.3439 9.57789V11.1595C90.3439 11.7403 90.3127 12.1661 90.2503 12.437C90.188 12.7078 90.0544 12.9609 89.85 13.196C89.6455 13.4314 89.383 13.6049 89.0624 13.7168C88.7418 13.8287 88.3735 13.8847 87.9576 13.8847C87.4932 13.8847 87.0999 13.8368 86.7775 13.741C86.4552 13.6455 86.2048 13.5011 86.0264 13.3081C85.8478 13.115 85.7203 12.8814 85.6442 12.6072C85.5679 12.3331 85.5298 11.922 85.5298 11.3736V9.71905C85.5298 9.11883 85.5991 8.65009 85.7377 8.31256C85.8764 7.97522 86.1259 7.70429 86.4864 7.49988C86.8469 7.29557 87.3078 7.19336 87.8693 7.19336C88.3406 7.19336 88.7452 7.25906 89.0833 7.39045C89.421 7.52185 89.6818 7.69301 89.8656 7.90383C90.0492 8.11475 90.175 8.33208 90.2425 8.55592C90.3102 8.77976 90.3439 9.12045 90.3439 9.57789Z" fill="#141414"/>
<path d="M95.501 9.37348H93.6399V9.02313C93.6399 8.72464 93.6217 8.53568 93.5852 8.45616C93.5489 8.37673 93.4579 8.33696 93.3124 8.33696C93.1946 8.33696 93.1061 8.37347 93.0472 8.44639C92.9882 8.51941 92.9589 8.62894 92.9589 8.77488C92.9589 8.97289 92.9736 9.11801 93.003 9.21046C93.0325 9.3029 93.1209 9.4044 93.2682 9.51464C93.4155 9.62498 93.7179 9.78556 94.1754 9.99639C94.7853 10.2754 95.1856 10.5382 95.3763 10.7848C95.5669 11.0314 95.6621 11.3899 95.6621 11.8602C95.6621 12.3858 95.5895 12.7825 95.4439 13.05C95.2983 13.3178 95.0548 13.5238 94.7135 13.6682C94.372 13.8124 93.9604 13.8847 93.4788 13.8847C92.945 13.8847 92.4885 13.8068 92.1088 13.6511C91.7294 13.4953 91.4686 13.2845 91.3265 13.0185C91.1844 12.7525 91.1133 12.3502 91.1133 11.8116V11.5001H92.9744V11.9089C92.9744 12.2561 92.9979 12.4816 93.0446 12.5853C93.0915 12.6893 93.1841 12.741 93.3228 12.741C93.4717 12.741 93.5757 12.7063 93.6347 12.6365C93.6935 12.5667 93.7231 12.4199 93.7231 12.196C93.7231 11.8879 93.6849 11.6948 93.6087 11.617C93.529 11.5391 93.1218 11.3087 92.387 10.9259C91.77 10.6015 91.394 10.3071 91.2589 10.0427C91.1237 9.77824 91.0562 9.4644 91.0562 9.10093C91.0562 8.58511 91.1289 8.20476 91.2745 7.95976C91.4201 7.71487 91.667 7.52591 92.0152 7.39289C92.3637 7.25987 92.7682 7.19336 93.2292 7.19336C93.6867 7.19336 94.0758 7.24767 94.3962 7.35638C94.7169 7.4651 94.963 7.6087 95.1345 7.78708C95.3061 7.96546 95.4101 8.13092 95.4464 8.28337C95.4829 8.43592 95.501 8.6744 95.501 8.99882V9.37348Z" fill="#141414"/>
<path d="M100.697 9.37348H98.8362V9.02313C98.8362 8.72464 98.818 8.53568 98.7815 8.45616C98.7452 8.37673 98.6542 8.33696 98.5086 8.33696C98.3907 8.33696 98.3024 8.37347 98.2435 8.44639C98.1845 8.51941 98.1552 8.62894 98.1552 8.77488C98.1552 8.97289 98.1699 9.11801 98.1993 9.21046C98.2288 9.3029 98.3172 9.4044 98.4645 9.51464C98.6118 9.62498 98.9142 9.78556 99.3717 9.99639C99.9816 10.2754 100.382 10.5382 100.573 10.7848C100.763 11.0314 100.858 11.3899 100.858 11.8602C100.858 12.3858 100.786 12.7825 100.64 13.05C100.495 13.3178 100.251 13.5238 99.9098 13.6682C99.5683 13.8124 99.1567 13.8847 98.6751 13.8847C98.1413 13.8847 97.6847 13.8068 97.3051 13.6511C96.9257 13.4953 96.6648 13.2845 96.5227 13.0185C96.3806 12.7525 96.3096 12.3502 96.3096 11.8116V11.5001H98.1707V11.9089C98.1707 12.2561 98.1942 12.4816 98.2409 12.5853C98.2877 12.6893 98.3804 12.741 98.519 12.741C98.668 12.741 98.772 12.7063 98.831 12.6365C98.8898 12.5667 98.9194 12.4199 98.9194 12.196C98.9194 11.8879 98.8811 11.6948 98.805 11.617C98.7252 11.5391 98.3181 11.3087 97.5833 10.9259C96.9663 10.6015 96.5903 10.3071 96.4552 10.0427C96.32 9.77824 96.2524 9.4644 96.2524 9.10093C96.2524 8.58511 96.3252 8.20476 96.4708 7.95976C96.6163 7.71487 96.8633 7.52591 97.2115 7.39289C97.56 7.25987 97.9645 7.19336 98.4255 7.19336C98.883 7.19336 99.272 7.24767 99.5925 7.35638C99.9131 7.4651 100.159 7.6087 100.331 7.78708C100.502 7.96546 100.606 8.13092 100.643 8.28337C100.679 8.43592 100.697 8.6744 100.697 8.99882V9.37348Z" fill="#141414"/>
<path d="M101.664 5.87354H105.37V7.45001H103.852V8.94382H105.204V10.4424H103.852V13.751H101.664V5.87354Z" fill="#141414"/>
<path d="M108.187 7.29433V13.751H106.025V7.29433H108.187ZM108.187 5.87354V6.90022H106.025V5.87354H108.187Z" fill="#141414"/>
<path d="M93.6545 41.515H107.595V37.2492H100.831C100.831 37.2492 102.265 36.0262 103.959 34.5018C106.69 32.0491 108.377 28.8982 106.601 26.0342C104.824 23.1696 100.886 23.4191 100.886 23.4191C97.5651 23.4009 95.1776 24.5491 93.3733 26.4286L96.4674 29.8162C98.7726 27.796 100.385 27.5628 101.201 28.049C102.134 28.6035 102.011 30.1152 100.597 31.3847L93.6545 38.1642V41.515Z" fill="#141414"/>
<path d="M79.9312 41.409H92.5252V37.2644L85.4115 37.253L85.4478 23.5205H79.9312V41.409Z" fill="#141414"/>
<defs>
<linearGradient id="paint0_linear_484_30" x1="51.6159" y1="1.95886" x2="0.678113" y2="70.0819" gradientUnits="userSpaceOnUse">
<stop stop-color="white"/>
<stop offset="0.513222" stop-color="white" stop-opacity="0.71"/>
<stop offset="1" stop-color="white" stop-opacity="0"/>
</linearGradient>
<linearGradient id="paint1_linear_484_30" x1="118.133" y1="1.95886" x2="67.1952" y2="70.0819" gradientUnits="userSpaceOnUse">
<stop stop-color="white"/>
<stop offset="0.513222" stop-color="white" stop-opacity="0.71"/>
<stop offset="1" stop-color="white" stop-opacity="0"/>
</linearGradient>
</defs>
</svg>
