<svg width="68" height="74" viewBox="0 0 68 74" fill="none" xmlns="http://www.w3.org/2000/svg">
<path fill-rule="evenodd" clip-rule="evenodd" d="M48.3444 49.822L51.8098 39.5939L51.108 39.2012L51.2289 38.8442L50.6107 38.6119C50.6107 38.6119 50.5322 38.7481 50.4541 38.8826C50.3597 39.0463 50.1828 39.1435 49.9953 39.1345C49.445 39.1061 48.9252 39.03 48.4293 38.9167C48.4293 38.9167 47.9857 38.3309 48.1947 37.453C48.4037 36.5751 49.2183 36.3767 49.2183 36.3767C49.6983 36.4996 50.178 36.7637 50.6583 37.1348C50.7805 37.23 50.8528 37.3765 50.8543 37.5323C50.8558 37.6889 50.8576 37.8643 50.8576 37.8643L51.4932 38.0629L51.7175 37.3999L52.6786 37.6792L55.2061 30.4813L54.0445 30.3278L54.0424 29.8913L48.3223 29.8936L47.9285 30.1897L46.8771 30.1839C46.8771 30.1839 46.863 27.8578 46.8589 27.0344C46.857 26.7105 46.9336 26.3909 47.0821 26.1038C47.3379 25.6128 47.7391 25.3195 48.2437 25.1613C48.3851 25.1193 48.5316 25.0975 48.679 25.0968C49.3253 25.0931 52.4772 25.075 52.4772 25.075C52.0368 24.6285 49.3903 24.0669 47.6948 23.584C46.767 23.0882 47.2224 22.4061 48.2892 21.8884C49.2344 21.4298 52.1059 22.1525 53.0635 21.857C53.8742 21.6068 57.986 20.6155 59.499 21.9259C60.9262 23.1619 60.2875 24.5416 59.776 25.1957C59.2647 25.8498 57.1289 26.6392 57.1289 26.6392L55.9413 26.5665C55.9413 26.5665 55.6923 27.5181 54.8228 27.4315C53.9533 27.345 53.9219 26.2119 53.9219 26.2119C53.9219 26.2119 50.062 26.2147 48.9652 26.2156C48.7791 26.2156 48.5987 26.2799 48.4537 26.3976C48.4537 26.3976 48.4537 26.3976 48.4537 26.3976C48.1931 26.6092 48.0436 26.9301 48.0482 27.2676C48.0532 27.6249 48.0589 28.0298 48.0589 28.0298L48.1843 28.15L54.0341 28.2215L54.0316 27.7269L64.5025 27.7777L64.5338 28.2438L65.5386 28.2778L65.5588 29.9885L64.5312 29.9974L64.4207 30.4278L61.793 30.4077C61.6303 30.5558 61.7509 30.8455 61.499 30.9876L61.4139 31.6404C61.4139 31.6404 61.6536 31.7091 61.8008 31.7513C61.8691 31.7708 61.9193 31.8294 61.9285 31.9004C61.9619 32.1557 62.0425 32.7736 62.0971 33.1918C62.1301 33.4442 62.0103 33.6922 61.7931 33.8217C61.6434 33.9108 61.4705 34.0138 61.323 34.1016C61.1118 34.2274 60.8515 34.2353 60.6332 34.1224C60.4231 34.0138 60.1584 33.8771 59.9563 33.7727C59.7745 33.6787 59.6782 33.4728 59.7219 33.2714C59.8139 32.8473 59.9665 32.1436 60.0312 31.8456C60.0495 31.7613 60.1178 31.6974 60.2025 31.6855C60.3563 31.6638 60.581 31.6322 60.581 31.6322L60.547 30.9674L60.2692 30.3311L58.1591 30.2819L57.8465 30.5632L55.1937 38.5371L55.5726 38.8172L55.0556 40.4564L54.6807 40.5045L52.4024 47.5697L57.837 55.9554L58.838 56.2378C58.838 56.2378 60.9603 57.2488 62.0298 58.1706C63.1366 59.1237 64.2132 61.6218 64.4829 63.7274L67.8391 70.2373C68.1313 70.9797 68.0616 71.5829 67.3282 71.929L66.6585 72.122L66.7204 72.8876C65.7783 73.1633 64.8871 73.0946 64.0511 72.6501C64.0574 72.2928 64.1637 72.0766 64.4095 72.0571C63.9956 71.736 63.7795 71.3787 63.6893 70.9982L62.6468 69.2648C62.1352 68.8462 61.8832 67.8097 61.3748 67.0302L46.3719 67.0478L45.5636 68.3609L43.9876 68.5363L42.9218 68.5057L40.6579 68.0213C40.459 67.9609 40.3939 67.8319 40.3735 67.6797L35.0158 67.6417L34.9841 67.0905L24.0277 67.0942L23.6537 67.3392C23.5041 68.3952 23.318 69.2768 22.966 69.3594L22.2806 71.6581C22.2144 71.8177 22.0193 71.9754 21.6826 72.1313L21.7903 72.934C20.9178 73.411 20.0204 73.3925 19.1064 73.0426L19.2546 72.1406C18.4808 72.0404 17.9635 71.6098 17.9441 70.8693L12.1571 69.3761C11.8469 69.3752 11.593 69.6341 11.3646 70.0109L10.8133 69.8225C9.08605 70.3988 7.60522 68.7887 8.85141 66.9828L8.97719 66.5875C9.72992 66.3397 10.354 66.2191 11.0761 66.5179L12.1247 64.0281C-5.95956 55.3655 -3.02429 32.1827 15.6829 28.7097C12.7798 21.2831 9.64083 13.2522 9.14967 11.9918C8.92515 11.4175 8.79818 10.8091 8.77427 10.1922C8.73133 9.014 9.08164 7.89345 9.85929 6.82171C10.1587 6.41182 10.5197 6.05157 10.9291 5.75387L13.5759 3.82977L13.517 3.74746C14.3866 3.07179 15.2639 2.4054 16.1667 1.77557C16.9747 1.21181 17.8037 0.676456 18.6678 0.204014L18.6839 0.195198C19.0849 -0.110018 19.7544 -0.0560082 20.2653 0.348133C20.8337 0.797745 20.9921 1.51146 20.6189 1.94085C20.2871 2.32281 19.646 2.35213 19.1083 2.03791L14.5282 5.1646L14.4208 5.01399C13.7783 5.49144 12.2152 6.65273 11.7334 7.01158C11.5111 7.17658 11.3054 7.36301 11.1188 7.56819C10.1382 8.65042 9.97357 9.94645 10.5288 11.431C10.5307 11.4361 10.5327 11.4411 10.5346 11.4461L17.1988 28.4919C18.1279 28.4404 19.0766 28.4754 20.0292 28.5902V27.9881C20.1143 27.3453 20.4449 26.878 20.8874 26.4906C21.011 26.5638 21.1338 26.6235 21.2556 26.6691L20.9326 26.5043L20.9296 13.901L20.6533 13.734L20.1959 13.8043L20.0578 13.3739L16.6964 11.3414L17.6998 9.65107L25.44 14.3313L25.4547 14.1192L25.6774 14.0899L26.0137 13.7703L25.8122 12.993L27.4444 15.5048L25.8121 14.5563L27.4059 15.5201L26.4026 17.2104L25.5748 16.7098L25.1157 16.7804L24.9771 16.3484L22.568 14.8917L22.5588 26.5988C22.8552 27.0379 23.1005 27.4854 23.0151 27.9881V29.2016C23.873 29.4489 24.7233 29.7555 25.5548 30.1164C28.2342 21.1027 30.772 12.5672 31.2825 10.8546C31.4583 10.2633 31.7317 9.7061 32.0911 9.20656C32.81 8.21268 33.8269 7.53571 35.179 7.19412C35.5853 7.09185 36.003 7.04295 36.4217 7.04889L40.0289 7.09974L40.0307 6.99442L46.7656 7.14707C46.9212 7.06012 47.1003 7.01056 47.2908 7.01056C47.8908 7.01056 48.3779 7.50221 48.3779 8.10773C48.3779 8.71333 47.8908 9.20498 47.2908 9.20498C47.177 9.20498 47.0673 9.18726 46.9643 9.1545L39.9995 8.85755L40.0034 8.63084L36.3368 8.55326C36.0631 8.5475 35.7895 8.56773 35.5195 8.61385C34.0984 8.85708 33.1814 9.7705 32.7097 11.2756C32.708 11.2808 32.7064 11.2859 32.705 11.2911L26.917 30.7644C32.5766 33.0409 38.4621 40.7177 36.6054 49.3645L36.8297 49.4326L39.1824 50.6935L43.2329 51.836C44.2704 50.5746 45.8355 49.7709 47.5852 49.7709C47.8426 49.7709 48.0961 49.7883 48.3444 49.822ZM18.7974 64.983C17.1107 65.0164 15.4369 64.8076 13.7737 64.403L12.4937 67.599C13.4195 68.1363 15.8605 68.5131 18.5158 69.1896L19.7567 65.1565L19.4079 65.1667L19.3837 65.356L19.003 65.3514L19.0064 65.1816L18.7868 65.1426L18.7974 64.983ZM32.7836 64.3028L33.5102 64.9264L24.2782 64.9357C24.3098 64.6536 24.3189 64.3538 24.2898 64.0216C26.8995 63.3108 27.7596 62.3837 29.4923 61.5002L32.7836 64.3028ZM46.2856 64.8447L46.3917 64.5292H46.3927L47.5852 61.1857C50.3743 61.1857 52.6945 59.1431 53.1563 56.4599L57.8574 57.7781C57.8574 57.7781 59.3533 58.0407 61.255 59.6702C61.7609 60.1036 62.1242 60.7161 62.3848 61.3824L60.6043 61.4037C60.0411 61.581 59.7586 61.9178 59.7952 62.4366L60.605 64.7538L46.2856 64.8447ZM18.8719 54.0584L18.7091 63.0305C18.7594 63.0314 18.8087 63.0314 18.8581 63.0314C19.2916 63.0314 19.7213 63.0147 20.1458 62.9832L20.109 55.9122L19.8396 54.2481C19.8111 54.2659 19.777 54.2748 19.7416 54.2716C19.4383 54.2424 19.1494 54.1684 18.8719 54.0584ZM17.7709 52.3917L15.5049 62.6974C16.4226 62.883 17.3683 62.9943 18.3348 63.0231L18.5265 52.4594C18.2694 52.4544 18.017 52.4313 17.7709 52.3917ZM16.7782 52.1311L12.7111 61.8733C13.4929 62.1805 14.3039 62.431 15.1389 62.6194L17.4036 52.3191C17.1895 52.269 16.9807 52.2061 16.7782 52.1311ZM23.1798 58.9316L24.3704 62.1081C23.9862 62.2408 23.5952 62.3614 23.1982 62.4663L23.1798 58.9316ZM23.1742 57.8514L23.1574 54.6385L23.4766 54.6722L27.2501 60.7903C26.4483 61.2543 25.6033 61.6534 24.7226 61.9809L23.1742 57.8514ZM15.7636 51.6242L9.83952 60.4099C10.6366 60.9184 11.4809 61.362 12.3645 61.7322L16.4322 51.9889C16.1991 51.8832 15.9757 51.7611 15.7636 51.6242ZM29.8794 58.9065C29.1631 59.5338 28.3911 60.1008 27.5716 60.5992L23.9463 54.7217L26.2017 54.9599L29.8794 58.9065ZM14.7504 50.7652L6.89183 58.011C7.68879 58.8286 8.57172 59.5644 9.52673 60.2048L15.4571 51.4102C15.2011 51.2172 14.9643 51.0011 14.7504 50.7652ZM32.4494 56.0658C31.7792 57.0073 31.0103 57.8764 30.1576 58.6569L26.7678 55.0197L31.6532 55.5356L32.4494 56.0658ZM14.0975 49.8606L4.8747 55.4895C5.39455 56.2901 5.98363 57.0432 6.63421 57.7409L14.5098 50.4793C14.3574 50.284 14.2195 50.0772 14.0975 49.8606ZM32.4528 55.62L32.7359 55.6499C32.7116 55.6865 32.687 55.7229 32.6622 55.7596L32.4528 55.62ZM13.6732 48.8644L3.41263 52.6626C3.76081 53.5392 4.18421 54.3789 4.67519 55.1745L13.9266 49.5281C13.8268 49.3148 13.7419 49.0931 13.6732 48.8644ZM25.8488 51.2212L33.7844 53.831L33.7611 53.878L29.098 53.3856L25.8488 51.2212ZM23.1392 51.1258L24.8245 52.9343L28.2986 53.3012L24.52 50.7843L23.1351 50.3289L23.1392 51.1258ZM23.1477 52.7572L24.2584 52.8745L23.1421 51.6766L23.1477 52.7572ZM18.901 52.4541L18.9006 52.4771L18.9076 52.4537L18.901 52.4541ZM13.4773 47.8027L2.52961 49.5505C2.69768 50.5026 2.95016 51.4264 3.27913 52.3148L13.5791 48.502C13.5292 48.2746 13.4949 48.0411 13.4773 47.8027ZM30.8194 49.5561L34.6915 50.3961C34.6701 50.4854 34.648 50.5746 34.6252 50.6634L30.8194 49.5561ZM24.0832 47.0402L24.5438 47.0482L34.7755 50.0253L34.7739 50.0329L25.6714 48.0582L24.0668 47.5913C24.0787 47.4508 24.0847 47.3085 24.0847 47.1649C24.0847 47.1231 24.0842 47.0817 24.0832 47.0402ZM2.28605 46.6579C2.28587 46.6901 2.28578 46.723 2.28578 46.7558C2.28578 47.5805 2.34839 48.3908 2.4692 49.1831L13.4637 47.4278C13.4639 47.2342 13.475 47.0429 13.4965 46.8546L2.28605 46.6579ZM29.1657 47.1294L35.0822 47.2331C35.0634 47.7665 35.0183 48.2931 34.9483 48.8119L29.1657 47.1294ZM34.944 44.3755C35.0422 45.1202 35.0925 45.8819 35.0925 46.6575C35.0925 46.7254 35.0921 46.7932 35.0912 46.8609L27.8039 46.7331L25.1017 45.9469L34.944 44.3755ZM2.63047 43.4406C2.43573 44.3634 2.32072 45.3141 2.29258 46.2857L13.5529 46.4832C13.5941 46.2661 13.6492 46.0535 13.7173 45.8458L2.63047 43.4406ZM34.2228 41.2576C34.5205 42.1404 34.745 43.0589 34.8913 44.0069L24.265 45.7034L23.8255 45.5755C23.7784 45.436 23.7252 45.2991 23.6662 45.1653L34.2228 41.2576ZM3.49482 40.6464C3.17165 41.4283 2.90869 42.2405 2.71166 43.0772L13.8475 45.493C13.9155 45.3275 13.992 45.1659 14.0763 45.0088L3.49482 40.6464ZM32.9173 38.3743C33.3823 39.1749 33.7782 40.0213 34.0996 40.906L23.5022 44.8288C23.4069 44.6506 23.301 44.4788 23.1851 44.3142L32.9173 38.3743ZM5.02301 37.7978C4.49139 38.5877 4.028 39.4257 3.64111 40.3038L14.2659 44.6839C14.3742 44.5126 14.4922 44.3476 14.6192 44.1896L5.02301 37.7978ZM31.016 35.7676C31.655 36.475 32.227 37.2397 32.7263 38.0541L23.1018 43.9282L23.099 43.3951L23.2327 42.9441L31.016 35.7676ZM7.50859 34.9005C6.66216 35.6824 5.89941 36.5506 5.23484 37.4908L14.8646 43.9049C15.0357 43.7198 15.2198 43.5463 15.4158 43.3856L7.50859 34.9005ZM10.0798 32.9518C9.26515 33.4528 8.49789 34.0214 7.7857 34.6502L15.7138 43.1577C15.8662 43.0492 16.0245 42.9482 16.1881 42.8552L10.0798 32.9518ZM12.9179 31.5588C12.0402 31.8902 11.1983 32.2931 10.4004 32.7595L16.5199 42.6812C16.6791 42.6046 16.8425 42.5351 17.0098 42.4736L12.9179 31.5588ZM16.0298 30.7168C15.0795 30.8776 14.1568 31.118 13.2694 31.4305L17.3654 42.3565C17.5382 42.306 17.7145 42.2637 17.8938 42.2301L16.0298 30.7168ZM20.0371 42.0844L20.0018 42.2453L20.038 42.2528L20.0371 42.0844ZM28.1363 33.2759C29.0993 33.9228 29.978 34.6665 30.7624 35.4937L23.4399 42.2454L24.5007 38.6674L28.1363 33.2759ZM19.1693 37.6712L19.0882 42.1383C19.2722 42.1442 19.4537 42.1591 19.6322 42.183L20.0283 40.3815L20.0261 39.9663L19.1693 37.6712ZM18.8122 36.7146L16.5437 30.6379C16.4954 30.6445 16.4472 30.6514 16.3995 30.6584L18.2639 42.1736C18.4124 42.1562 18.5623 42.1445 18.7137 42.1392L18.8122 36.7146ZM24.4552 33.7419L23.0661 37.0694L23.073 38.4038L24.4552 33.7419ZM24.8544 37.4743L26.3999 32.2618C26.8918 32.5094 27.3667 32.7796 27.8236 33.0712L24.8544 37.4743ZM23.0611 36.1103L23.0346 31.0022C23.6857 31.1685 24.3213 31.3728 24.9388 31.6124L23.0611 36.1103ZM19.2997 30.4858C19.5266 30.4917 19.7523 30.502 19.9769 30.5167L20.0049 35.8941L19.2388 33.8419L19.2997 30.4858ZM18.9253 30.4802L18.8817 32.8853L17.992 30.502C18.2781 30.4875 18.5673 30.4801 18.8581 30.4801L18.9253 30.4802Z" fill="url(#paint0_linear_332_903)"/>
<defs>
<linearGradient id="paint0_linear_332_903" x1="64.4211" y1="2.58704" x2="-3.83437" y2="88.8525" gradientUnits="userSpaceOnUse">
<stop stop-color="white"/>
<stop offset="0.513222" stop-color="white" stop-opacity="0.71"/>
<stop offset="1" stop-color="white" stop-opacity="0"/>
</linearGradient>
</defs>
</svg>
