<svg width="397" height="334" viewBox="0 0 397 334" fill="none" xmlns="http://www.w3.org/2000/svg">
<g opacity="0.2">
<path d="M314.502 154.918C314.502 154.918 339.629 148.564 325.97 128.956C325.97 128.956 315.271 112.323 315.271 121.231C315.271 121.231 318.025 128.537 307.55 124.169C307.55 124.169 302.205 118.855 304.579 127.766C304.579 127.766 310.897 140.176 300.248 137.299L298.065 139.942L299.826 147.375L311.563 155.211L314.502 154.918Z" fill="url(#paint0_linear_648_45)"/>
<path d="M305.017 137.3C305.017 137.3 316.462 153.303 319.433 144.992C319.433 144.992 328.238 139.077 326.807 147.386C326.807 147.386 320.623 158.665 312.599 152.129L298.278 140.84L300.248 137.3H305.017Z" fill="url(#paint1_linear_648_45)"/>
<path d="M326.971 144.258C326.971 144.258 327.763 133.514 321.59 131.718C321.59 131.718 313.618 129.46 316.461 135.885C316.461 135.885 321.603 137.887 320.794 142C320.794 142 319.532 145.955 326.971 144.258Z" fill="url(#paint2_linear_648_45)"/>
<path d="M239.602 67.8861C239.602 67.8861 262.824 65.3277 274.753 79.1757C274.753 79.1757 282.332 94.8865 277.545 92.4157C277.545 92.4157 266.381 82.581 259.489 85.9926L249.328 89.3995C249.328 89.3995 231.721 71.0804 239.602 67.8861Z" fill="url(#paint3_linear_648_45)"/>
<path d="M215.005 65.9768C215.005 65.9768 241.598 67.76 249.326 87.073C249.326 87.073 258.078 82.0486 261.8 82.0205C265.525 81.9908 280.518 86.1807 277.546 92.4162C277.546 92.4162 260.019 83.4739 258.533 90.3252C258.533 90.3252 258.834 103.446 273.982 111.746C273.982 111.746 280.918 112.242 270.507 103.415C270.507 103.415 264.81 93.3883 277.866 103.411C277.866 103.411 300.969 121.466 300.248 124.169C300.248 124.169 302.494 129.551 292.4 122.42C292.4 122.42 282.301 119.748 294.775 128.956C294.775 128.956 306.5 135.814 305.016 137.3C305.016 137.3 296.809 137.573 300.248 142.326C300.248 142.326 310.938 154.325 314.503 154.919L307.55 156.288L241.598 114.996L223.182 108.163L213.379 87.3684L215.005 65.9768Z" fill="url(#paint4_linear_648_45)"/>
<path d="M185.156 20.8245C185.156 20.8245 121.27 56.5547 110.613 85.529C110.613 85.529 179.222 28.1352 166.371 51.6382C166.371 51.6382 119.903 75.4193 111.976 94.8261C111.976 94.8261 137.981 74.8707 129.766 86.3526C129.766 86.3526 100.771 105.483 102.41 122.703C102.41 122.703 123.183 94.0041 119.09 107.943C119.09 107.943 100.229 136.643 80.0013 143.753C80.0013 143.753 105.145 132.46 98.5877 140.838C98.5877 140.838 80.8187 167.804 72.6202 174.365C72.6202 174.365 100.229 140.199 94.215 154.959C94.215 154.959 82.1893 180.38 48.8391 202.515C48.8391 202.515 58.1346 206.894 92.0287 168.35C92.0287 168.35 110.071 149.51 95.309 170.547C95.309 170.547 86.2916 178.736 96.1263 175.456C96.1263 175.456 106.278 166.727 129.903 170.547C129.903 170.547 143.953 88.628 163.092 73.2329L174.845 63.939L195.62 49.4502L185.156 20.8245Z" fill="url(#paint5_linear_648_45)"/>
<path d="M185.156 20.8245C185.156 20.8245 209.603 33.8957 225.007 39.242C225.007 39.242 238.035 51.1256 249.326 52.904C249.326 52.904 274.868 64.7875 268.928 65.383C268.928 65.383 237.441 53.3682 239.226 59.971C239.226 59.971 242.12 65.9768 258.834 68.3523C258.834 68.3523 271.901 74.5175 261.21 71.9186C261.21 71.9186 230.988 70.137 225.007 63.006L185.156 27.9539V20.8245Z" fill="url(#paint6_linear_648_45)"/>
<path d="M200.69 84.4256C200.69 84.4256 193.475 161.636 243.383 199.657H249.326L218.431 128.956L206.743 77.6633L200.69 84.4256Z" fill="url(#paint7_linear_648_45)"/>
<path d="M203.425 83.1768L229.715 114.101L254.079 117.075L266.942 111.296L280.812 131.331L307.55 156.288C307.55 156.288 303.39 164.013 293.885 160.446C293.885 160.446 276.656 136.085 256.749 137.868C256.749 137.868 227.936 133.213 234.473 161.387C234.473 161.387 238.982 174.533 243.148 185.535C245.454 191.608 247.91 195.536 249.326 199.657C249.326 199.657 183.223 112.881 203.425 83.1768Z" fill="url(#paint8_linear_648_45)"/>
<path d="M185.156 27.9552L187.171 29.4273L203.028 41.0264C203.028 41.0264 226.153 41.6187 227.338 44.5927C227.338 44.5927 231.776 65.2217 238.313 68.7864C238.313 68.7864 243.517 73.1779 238.166 73.7733C238.166 73.7733 218.903 62.9619 218.431 70.1367C218.431 70.1367 212.488 98.6562 231.498 106.383C231.498 106.383 251.109 117.075 253.486 106.383C253.486 106.383 254.674 96.8762 260.617 105.193C260.617 105.193 295.666 138.462 299.827 147.375C299.827 147.375 302.205 158.071 295.666 153.91C295.666 153.91 290.32 144.404 289.129 142.622C289.129 142.622 272.499 140.838 265.37 137.273C265.37 137.273 257.64 129.551 277.246 130.143C277.246 130.143 266.229 125.178 264.775 116.481C264.775 116.481 262.994 122.948 258.834 124.169C258.834 124.169 233.283 130.143 221.397 118.26C221.397 118.26 204.018 102.784 203.425 83.1767L185.156 91.5267L144.164 170.546C144.164 170.546 138.222 169.362 129.903 170.546C129.903 170.546 127.386 109.349 143.8 90.9328C143.8 90.9328 173.273 52.3114 185.156 46.9682V27.9552Z" fill="url(#paint9_linear_648_45)"/>
<path d="M166.148 188.371C166.148 188.371 155.449 152.129 163.174 143.215C163.174 143.215 190.508 167.576 192.292 172.329C192.292 172.329 183.542 136.086 176.329 130.738C176.329 130.738 184.564 104.005 185.156 98.6567C185.156 98.6567 199.81 106.353 200.995 110.512C200.995 110.512 205.357 77.2667 202.39 64.1954C202.39 64.1954 198.824 54.6873 189.316 64.1954C189.316 64.1954 163.769 87.9609 165.551 107.569C165.551 107.569 162.58 89.7456 157.232 87.367C157.232 87.367 141.196 120.636 144.164 170.547C144.164 170.547 164.364 183.018 166.148 188.371Z" fill="url(#paint10_linear_648_45)"/>
<path d="M9.06265 219.787L10.0144 220.768H13.9167C19.0974 220.768 21.6901 218.18 21.6901 212.994L20.7086 212.012V211.031C12.9462 213.183 9.06265 216.108 9.06265 219.787ZM7.09977 204.239L22.6762 205.222H23.6279C27.5193 207.854 29.4681 211.09 29.4681 214.93C29.4681 221.065 23.9561 226.573 12.9321 231.466H11.9788L13.9167 244.098C13.9167 248.127 12.2976 251.043 9.06265 252.853H7.09977L4.20546 249.93V242.155C4.20546 238.63 2.90365 236.04 0.306274 234.382C0.306274 214.289 2.56921 204.239 7.09977 204.239Z" fill="url(#paint11_linear_648_45)"/>
<path d="M10.141 220.464H13.9152C18.9005 220.464 21.3432 218.063 21.3838 213.119L20.4055 212.137V211.432C13.1666 213.505 9.45338 216.268 9.36586 219.664L10.141 220.464ZM13.9152 221.083H9.88628L8.75637 219.918V219.787C8.75637 215.969 12.7478 212.923 20.6274 210.732L21.0134 210.632V211.89L21.998 212.872V212.995C21.998 218.362 19.2787 221.083 13.9152 221.083ZM7.22483 252.548H8.98141C12.0492 250.802 13.6104 247.96 13.6104 244.098L11.621 231.161H12.8681C23.678 226.348 29.1572 220.892 29.1572 214.93C29.1572 211.243 27.2709 208.079 23.5327 205.526H22.6747L7.07636 204.543C2.80366 204.543 0.618869 214.53 0.611055 234.216C3.1928 235.931 4.50868 238.6 4.50868 242.157V249.807L7.22483 252.548ZM9.14082 253.159H6.96697L3.89762 250.06V242.157C3.89762 238.753 2.63176 236.229 0.137526 234.637L0 234.551V234.382C0 213.897 2.32076 203.934 7.09824 203.934L22.6887 204.917H23.7217L23.8015 204.967C27.7616 207.65 29.7729 211.002 29.7729 214.93C29.7729 221.169 24.15 226.82 13.0603 231.742L12.9306 231.771H12.3336L14.2168 244.048C14.2199 248.23 12.5305 251.262 9.20646 253.121L9.14082 253.159Z" fill="url(#paint12_linear_648_45)"/>
<path d="M37.9902 203.854C40.9345 205.105 42.5427 206.4 42.8193 207.724V215.475C42.8193 223.002 42.1707 228.165 40.8845 230.972L44.7525 231.932C49.855 231.932 53.7261 223.86 56.3813 207.724L59.2975 205.788C61.2322 205.788 62.8388 210.304 64.1343 219.351C63.4936 236.783 62.2027 245.487 60.257 245.487H59.2975L52.5055 238.724L38.9467 244.534H35.074C33.1393 244.534 32.175 240.332 32.175 231.932V227.096C32.175 211.598 34.1145 203.854 37.9902 203.854Z" fill="url(#paint13_linear_648_45)"/>
<path d="M59.4256 245.181H60.2585C61.24 245.181 62.9997 241.828 63.828 219.336C62.2949 208.66 60.582 206.21 59.3865 206.1L56.6657 207.904C53.9604 224.274 50.0628 232.237 44.754 232.237L44.6805 232.23L40.4532 231.182L40.6079 230.841C41.8706 228.091 42.5145 222.922 42.5145 215.474V207.76C42.2457 206.558 40.7032 205.352 37.9324 204.159C34.3192 204.247 32.486 211.962 32.486 227.097V231.93C32.486 242.09 33.8894 244.23 35.074 244.23H38.881L52.5789 238.361L59.4256 245.181ZM60.2585 245.792H59.174L52.4367 239.08L38.9466 244.839H35.074C32.8892 244.839 31.8718 240.738 31.8718 231.93V227.097C31.8718 211.25 33.8753 203.541 37.9918 203.541L38.1152 203.57C41.183 204.88 42.8208 206.216 43.1209 207.665L43.1287 207.723V215.474C43.1287 222.718 42.5145 227.851 41.3065 230.76L44.7977 231.618C49.6768 231.583 53.4729 223.526 56.0796 207.671L56.103 207.548L59.2068 205.483H59.2974C61.4541 205.483 63.0872 209.875 64.4359 219.306C63.5779 242.789 61.7526 245.792 60.2585 245.792Z" fill="url(#paint14_linear_648_45)"/>
<path d="M77.9213 220.354L78.7792 222.964L92.6475 216.899L90.0658 214.289H85.7275C82.2127 214.289 79.6122 216.31 77.9213 220.354ZM95.259 204.756C102.764 204.756 106.519 207.352 106.519 212.551V215.161C104.644 218.193 99.441 221.947 90.916 226.426V227.278C92.5522 229.015 96.5967 230.178 103.062 230.767L104.787 234.229C103.6 237.691 101.29 239.413 97.8689 239.413L77.9213 235.959C74.4644 235.959 71.8639 239.138 70.126 245.486H65.7846C64.6281 245.486 64.053 244.62 64.053 242.882L70.9762 216.021C70.9762 209.096 74.7363 205.634 82.2627 205.634L95.259 204.756Z" fill="url(#paint15_linear_648_45)"/>
<path d="M78.2495 220.369L78.9622 222.551L92.1178 216.792L89.9362 214.596H85.7291C82.3488 214.596 79.8999 216.487 78.2495 220.369ZM78.5918 223.38L77.5963 220.347L77.6385 220.238C79.3763 216.085 82.0956 213.983 85.7291 213.983H90.194L93.179 216.995L78.5918 223.38ZM64.3594 242.92C64.3703 244.95 65.1783 245.181 65.7846 245.181H69.8901C71.6686 238.861 74.366 235.655 77.9229 235.655L97.9158 239.116C101.143 239.116 103.295 237.525 104.459 234.245L102.864 231.06C96.364 230.455 92.3866 229.292 90.691 227.489L90.6129 227.401V226.245L90.7801 226.157C99.1426 221.766 104.334 218.034 106.214 215.074V212.552C106.214 207.512 102.634 205.061 95.2591 205.061L82.2863 205.941C74.8755 205.941 71.2826 209.235 71.2826 216.021L71.2763 216.093L64.3594 242.92ZM70.359 245.792H65.7846C64.8548 245.792 63.7499 245.289 63.7499 242.883L63.7561 242.803L70.6715 215.976C70.6825 208.907 74.5848 205.33 82.2644 205.33L95.2387 204.45C102.934 204.45 106.822 207.177 106.822 212.552V215.249L106.778 215.323C104.894 218.37 99.6662 222.165 91.2223 226.615V227.155C92.8523 228.783 96.8453 229.896 103.084 230.463L103.254 230.477L105.12 234.207L105.08 234.325C103.847 237.91 101.423 239.727 97.8689 239.727L77.8713 236.258C74.6348 236.266 72.1124 239.401 70.4215 245.574L70.359 245.792Z" fill="url(#paint16_linear_648_45)"/>
<path d="M122.972 221.547L122.041 222.478V227.073H124.805L126.645 225.241V222.478L122.972 221.547ZM124.805 204.057C128.215 204.057 131.28 209.272 134.006 219.706C136.808 223.394 138.963 225.241 140.462 225.241V229.837L144.126 240.891L142.295 242.73H137.698C134.201 237.196 130.513 234.432 126.645 234.432H123.874C120.692 234.432 116.704 238.118 111.919 245.485H109.151L107.318 243.654V232.6C109.937 230.208 114.846 221.001 122.041 204.987L124.805 204.057Z" fill="url(#paint17_linear_648_45)"/>
<path d="M122.351 226.769H124.682L126.337 225.118V222.71L123.067 221.882L122.351 222.602V226.769ZM124.936 227.38H121.736V222.347L122.878 221.205L126.951 222.24V225.367L124.936 227.38ZM109.283 245.181H111.753C116.602 237.741 120.573 234.128 123.875 234.128H126.645C130.577 234.128 134.354 236.921 137.867 242.418H142.165L143.779 240.81L140.153 229.838V225.525C138.572 225.306 136.478 223.46 133.762 219.897L133.707 219.788C131.052 209.608 128.078 204.414 124.857 204.363L122.267 205.236C115.103 221.161 110.312 230.165 107.625 232.731V243.531L109.283 245.181ZM112.087 245.793H109.025L107.014 243.786V232.463L107.113 232.376C109.687 230.027 114.617 220.761 121.765 204.864L121.82 204.741L124.805 203.752C128.398 203.752 131.502 208.931 134.285 219.577C137.001 223.134 139.077 224.935 140.463 224.935H140.768V229.788L144.476 240.971L142.423 243.036H137.528L137.437 242.89C134.019 237.48 130.391 234.74 126.645 234.74H123.875C120.817 234.74 116.879 238.411 112.173 245.663L112.087 245.793Z" fill="url(#paint18_linear_648_45)"/>
<path d="M198.865 204.057C204.788 204.457 207.751 205.44 207.751 207.023V211.963L205.765 214.908L196.879 213.925L182.102 215.889V216.871C198.527 218.115 206.745 221.403 206.745 226.732V229.706C196.735 240.23 186.216 245.487 175.181 245.487C170.575 244.579 168.282 243.262 168.282 241.538V240.555C168.282 237.648 176.503 234.361 192.95 230.687L195.896 226.732V225.758H181.093C169.261 225.758 163.347 224.441 163.347 221.801C163.347 216.347 166.307 212.726 172.235 210.959C181.979 206.356 190.859 204.057 198.865 204.057Z" fill="url(#paint19_linear_648_45)"/>
<path d="M198.843 204.363C190.937 204.363 182.018 206.676 172.366 211.234C166.49 212.994 163.652 216.449 163.652 221.802C163.652 223.468 166.677 225.453 181.093 225.453H196.2V226.842L193.128 230.965L193.017 230.987C172.824 235.495 168.587 238.672 168.587 240.556V241.539C168.587 243.087 170.816 244.309 175.209 245.181C186.066 245.174 196.571 239.932 206.438 229.583V226.731C206.438 221.613 198.238 218.398 182.076 217.176L181.798 217.156V215.621L196.871 213.621L205.615 214.58L207.445 211.869V207.024C207.445 206.08 205.952 204.836 198.843 204.363ZM175.179 245.793H175.121C170.314 244.839 167.973 243.444 167.973 241.539V240.556C167.973 237.46 176.084 234.143 192.77 230.419L195.585 226.637V226.064H181.093C168.947 226.064 163.042 224.667 163.042 221.802C163.042 216.224 166.104 212.471 172.147 210.661C181.84 206.088 190.843 203.752 198.865 203.752C205.141 204.175 208.053 205.214 208.053 207.024V212.058L205.91 215.227L196.879 214.23L182.407 216.159V216.587C198.988 217.868 207.048 221.191 207.048 226.731V229.83L206.963 229.918C196.944 240.456 186.247 245.793 175.179 245.793Z" fill="url(#paint20_linear_648_45)"/>
<path d="M222.271 221.547L221.336 222.478V227.073H224.103L225.937 225.241V222.478L222.271 221.547ZM224.103 204.057C227.514 204.057 230.576 209.272 233.3 219.706C236.102 223.394 238.257 225.241 239.752 225.241V229.837L243.423 240.891L241.586 242.73H236.993C233.498 237.196 229.807 234.432 225.937 234.432H223.171C219.988 234.432 215.998 238.118 211.213 245.485H208.446L206.612 243.654V232.6C209.231 230.208 214.137 221.001 221.336 204.987L224.103 204.057Z" fill="url(#paint21_linear_648_45)"/>
<path d="M221.641 226.769H223.97L225.631 225.118V222.71L222.362 221.882L221.641 222.602V226.769ZM224.226 227.38H221.024V222.347L222.176 221.205L226.24 222.24V225.367L224.226 227.38ZM208.571 245.181H211.05C215.899 237.741 219.861 234.128 223.171 234.128H225.936C229.871 234.128 233.643 236.921 237.157 242.418H241.461L243.075 240.81L239.446 229.838V225.525C237.868 225.306 235.767 223.46 233.054 219.897L233.003 219.788C230.34 209.608 227.367 204.414 224.152 204.363L221.561 205.236C214.394 221.161 209.603 230.165 206.916 232.731V243.531L208.571 245.181ZM211.377 245.793H208.321L206.305 243.786V232.463L206.41 232.376C208.979 230.027 213.907 220.761 221.055 204.864L221.113 204.741L224.101 203.752C227.694 203.752 230.791 208.931 233.579 219.577C236.292 223.134 238.371 224.935 239.751 224.935H240.056V229.788L243.773 240.971L241.717 243.036H236.821L236.735 242.89C233.314 237.48 229.682 234.74 225.936 234.74H223.171C220.11 234.74 216.168 238.411 211.467 245.663L211.377 245.793Z" fill="url(#paint22_linear_648_45)"/>
<path d="M250.501 204.291C251.744 204.444 257.845 213.294 268.812 230.841H269.719L270.622 229.916V218.034L269.719 214.361C270.527 210.698 271.436 208.857 272.454 208.857H275.218C277.114 209.207 278.635 213.177 279.791 220.769C279.791 232.099 276.739 239.735 270.622 243.653H268.812C263.372 238.564 259.087 232.454 255.977 225.343H254.142L253.242 229.008L254.142 243.653L251.401 245.486H250.501C248.227 245.486 246.389 242.134 244.995 235.415L246.825 211.628V207.955L250.501 204.291Z" fill="url(#paint23_linear_648_45)"/>
<path d="M245.31 235.391C246.662 241.893 248.404 245.181 250.502 245.181H251.308L253.829 243.499L252.929 228.978L253.905 225.036H256.173L256.262 225.218C259.327 232.222 263.59 238.315 268.935 243.348H270.532C276.474 239.486 279.484 231.894 279.484 220.768C278.09 211.584 276.361 209.379 275.167 209.161H272.454C271.978 209.161 271.038 209.844 270.033 214.361L270.929 218.033V230.039L269.847 231.151H268.646L268.557 231.006C255.059 209.424 251.475 205.103 250.587 204.637L247.135 208.085V211.627L245.31 235.391ZM251.497 245.79H250.502C248.042 245.79 246.143 242.416 244.696 235.48L244.691 235.435V235.391L246.53 211.604V207.83L250.392 203.97L250.539 203.984C251.466 204.101 254.412 207.234 268.986 230.534H269.591L270.318 229.786V218.069L269.405 214.369L269.421 214.295C270.283 210.376 271.249 208.558 272.454 208.558H275.22C277.332 208.935 278.907 212.914 280.092 220.723C280.098 232.156 276.969 239.944 270.791 243.907L270.709 243.957H268.697L268.608 243.879C263.206 238.817 258.892 232.688 255.773 225.647H254.385L253.547 229.037L254.46 243.813L251.497 245.79Z" fill="url(#paint24_linear_648_45)"/>
<path d="M306.918 204.313H308.183L309.445 205.585V206.204C309.445 209.339 306.278 212.508 299.944 215.709C296.446 220.908 293.695 223.657 291.697 223.946V227.126C290.429 228.66 289.792 230.13 289.792 231.548C290.875 234.092 292.353 235.364 294.236 235.364C299.175 235.364 303.824 232.623 308.183 227.126L305.624 226.479L297.41 229.657C295.719 229.017 294.88 228.383 294.88 227.744V225.861C297.704 221.213 302.553 218.886 309.445 218.886H315.776C318.306 219.147 319.571 219.78 319.571 220.799C316.676 228.216 308.866 236.238 296.141 244.847L291.697 245.488H284.728L280.927 241.692V235.991C280.927 227.031 286.208 217.954 296.763 208.764C300.414 205.796 303.796 204.313 306.918 204.313Z" fill="url(#paint25_linear_648_45)"/>
<path d="M284.853 245.181H291.675L296.03 244.556C308.576 236.054 316.394 228.048 319.266 220.739C319.202 219.751 317.323 219.351 315.743 219.19H309.445C302.739 219.19 297.945 221.466 295.185 225.946V227.743C295.185 228.02 295.479 228.58 297.407 229.327L305.602 226.157L308.714 226.943L308.417 227.314C304.026 232.862 299.245 235.668 294.236 235.668C292.228 235.668 290.643 234.324 289.509 231.663L289.487 231.546C289.487 230.085 290.128 228.572 291.392 227.015V223.685L291.654 223.649C293.552 223.364 296.257 220.637 299.684 215.532L299.732 215.474L299.803 215.438C305.996 212.305 309.141 209.191 309.141 206.203V205.708L308.054 204.625H306.918C303.885 204.625 300.536 206.092 296.955 208.996C286.525 218.085 281.234 227.162 281.234 235.989V241.566L284.853 245.181ZM291.726 245.792H284.6L280.623 241.823V235.989C280.623 226.979 285.986 217.735 296.562 208.53C300.264 205.527 303.744 204.006 306.918 204.006H308.308L309.752 205.453V206.203C309.752 209.482 306.614 212.667 300.151 215.947C296.737 221.008 294.067 223.715 292.001 224.201V227.234L291.937 227.32C290.735 228.769 290.112 230.164 290.096 231.48C291.136 233.887 292.49 235.057 294.236 235.057C298.94 235.057 303.447 232.449 307.645 227.306L305.643 226.796L297.41 229.981L297.304 229.945C295.441 229.241 294.575 228.544 294.575 227.743V225.771L294.614 225.699C297.487 220.972 302.474 218.581 309.445 218.581H315.776C318.545 218.864 319.875 219.59 319.875 220.797L319.854 220.908C316.958 228.353 309.034 236.49 296.315 245.094L296.183 245.145L291.726 245.792Z" fill="url(#paint26_linear_648_45)"/>
<path d="M329.929 220.354L330.781 222.964L344.654 216.899L342.072 214.289H337.727C334.217 214.289 331.614 216.31 329.929 220.354ZM347.264 204.756C354.77 204.756 358.527 207.352 358.527 212.551V215.161C356.644 218.193 351.446 221.947 342.921 226.426V227.278C344.558 229.015 348.603 230.178 355.062 230.767L356.792 234.229C355.606 237.691 353.298 239.413 349.867 239.413L329.929 235.959C326.471 235.959 323.867 239.138 322.128 245.486H317.789C316.633 245.486 316.059 244.62 316.059 242.882L322.982 216.021C322.982 209.096 326.739 205.634 334.266 205.634L347.264 204.756Z" fill="url(#paint27_linear_648_45)"/>
<path d="M330.254 220.369L330.968 222.551L344.124 216.792L341.944 214.596H337.729C334.356 214.596 331.906 216.487 330.254 220.369ZM330.596 223.38L329.604 220.347L329.646 220.238C331.378 216.085 334.097 213.983 337.729 213.983H342.195L345.183 216.995L330.596 223.38ZM316.365 242.92C316.372 244.95 317.184 245.181 317.791 245.181H321.899C323.67 238.861 326.372 235.655 329.93 235.655L349.927 239.116C353.143 239.116 355.298 237.525 356.464 234.251L354.865 231.06C348.373 230.455 344.393 229.292 342.702 227.489L342.616 227.401V226.245L342.778 226.157C351.147 221.766 356.339 218.034 358.222 215.074V212.552C358.222 207.512 354.634 205.061 347.265 205.061L334.289 205.941C326.881 205.941 323.289 209.235 323.289 216.021L323.276 216.093L316.365 242.92ZM322.363 245.792H317.791C316.861 245.792 315.756 245.289 315.756 242.883L315.762 242.803L322.678 215.976C322.69 208.907 326.588 205.33 334.267 205.33L347.243 204.45H347.246C354.942 204.45 358.833 207.177 358.833 212.552V215.249L358.788 215.329C356.901 218.37 351.666 222.172 343.23 226.615V227.155C344.86 228.783 348.848 229.896 355.095 230.463L355.265 230.477L357.123 234.207L357.081 234.325C355.854 237.91 353.427 239.727 349.869 239.727L329.876 236.258C326.639 236.266 324.115 239.401 322.421 245.574L322.363 245.792Z" fill="url(#paint28_linear_648_45)"/>
<path d="M391.535 200.567C394.116 201.671 395.528 202.8 395.771 203.955V206.516C395.771 208.435 388.431 210.979 373.736 214.13L371.182 217.518V218.37L373.736 219.22C381.645 216.965 387.576 215.837 391.535 215.837L394.917 218.37C394.917 223.38 387.859 226.484 373.736 227.69L372.032 230.224V233.632H376.266L392.39 228.55H393.216C394.337 228.55 395.47 230.244 396.626 233.632C396.626 236.855 388.147 240.804 371.182 245.486H368.651L359.327 235.312V233.632C359.327 231.741 360.169 229.758 361.857 227.69L361.029 211.598C361.029 207.641 365.55 205.658 374.591 205.658C381.392 202.268 387.042 200.567 391.535 200.567Z" fill="url(#paint29_linear_648_45)"/>
<path d="M368.787 245.181H371.143C391.793 239.48 396.248 235.786 396.322 233.685C394.954 229.692 393.877 228.856 393.218 228.856H392.44L376.268 233.939H371.726V230.128L373.567 227.401L373.713 227.394C387.437 226.215 394.467 223.233 394.612 218.515L391.435 216.145C387.522 216.166 381.6 217.299 373.824 219.519L373.731 219.541L370.878 218.587V217.409L373.567 213.854L373.677 213.83C392.635 209.767 395.464 207.498 395.464 206.516V203.986C395.232 202.959 393.888 201.912 391.472 200.879C387.057 200.893 381.43 202.597 374.727 205.935L374.666 205.963H374.592C365.799 205.963 361.335 207.86 361.335 211.598L362.17 227.794L362.096 227.889C360.463 229.888 359.633 231.823 359.633 233.632V235.197L368.787 245.181ZM371.226 245.792H368.518L368.427 245.697L359.019 235.43V233.632C359.019 231.707 359.871 229.677 361.546 227.591L360.726 211.62C360.726 207.468 365.366 205.366 374.519 205.352C381.305 201.976 387.028 200.262 391.536 200.262L391.658 200.29C394.359 201.448 395.809 202.626 396.072 203.897L396.078 203.955V206.516C396.078 207.86 393.776 210.145 373.917 214.407L371.489 217.62V218.143L373.747 218.9C381.6 216.66 387.582 215.526 391.536 215.526H391.64L395.223 218.217V218.37C395.223 223.598 388.254 226.739 373.908 227.983L372.339 230.318V233.328H376.222L392.391 228.238H393.218C394.496 228.238 395.703 229.977 396.914 233.532L396.933 233.632C396.933 237.044 388.533 241.015 371.262 245.785L371.226 245.792Z" fill="url(#paint30_linear_648_45)"/>
<path d="M67.5741 289.905H81.2751C82.3957 288.98 83.5287 288.044 84.6711 287.105C85.776 286.203 86.87 285.293 87.9483 284.37V279.585H80.3812L79.3232 283.446H70.5997L68.1523 281.483V263.863L70.5481 261.958H79.3232L80.3844 265.819H87.9483V260.793L81.5955 255.492H67.2537L59.8945 261.623V283.512L67.5741 289.905ZM82.23 292.551H66.6145L57.2487 284.756V260.379L66.2988 252.853H82.5535L90.5941 259.557V268.465H78.3668L77.3041 264.605H71.4717L70.7997 265.143V280.211L71.5264 280.8H77.3041L78.3668 276.939H90.5941V285.592L90.1331 285.984C88.8891 287.055 87.6295 288.11 86.3511 289.157C85.0868 290.196 83.8319 291.229 82.5988 292.246L82.23 292.551Z" fill="url(#paint31_linear_648_45)"/>
<path d="M67.6787 289.599H81.1688C82.2549 288.698 83.3598 287.79 84.4772 286.872C85.5274 286.014 86.5901 285.128 87.6372 284.233V279.891H80.6109L79.5575 283.753H70.4886L67.8412 281.629V263.712L70.4386 261.653H79.5575L80.6109 265.515H87.6372V260.941L81.4813 255.807H67.3614L60.1991 261.769V283.376L67.6787 289.599ZM81.3891 290.212H67.4568L59.5881 283.658V261.478L67.1442 255.188H81.7033L88.2514 260.65V266.125H80.1467L79.084 262.265H70.6527L68.457 264.01V281.338L70.7043 283.142H79.084L80.1467 279.28H88.2514V284.517L88.1467 284.605C87.0543 285.535 85.9525 286.458 84.8664 287.346C83.7208 288.284 82.5894 289.215 81.4704 290.139L81.3891 290.212ZM66.7222 292.247H82.1174L82.4003 292.014C83.6364 290.989 84.8882 289.957 86.1525 288.916C87.4184 287.883 88.6905 286.822 89.9345 285.753L90.2846 285.449V277.245H78.598L77.5353 281.106H71.4169L70.4886 280.365V264.992L71.3606 264.301H77.5353L78.598 268.161H90.2846V259.697L82.4362 253.16H66.4097L57.5517 260.525V284.613L66.7222 292.247ZM82.3393 292.858H66.5035L66.4159 292.784L56.9407 284.902V260.242L57.0501 260.147L66.1831 252.549H82.6597L90.8972 259.414V268.774H78.1291L77.0695 264.91H71.5794L71.1028 265.289V280.065L71.631 280.496H77.0695L78.1291 276.633H90.8972V285.73L90.3268 286.219C89.0875 287.28 87.8107 288.349 86.5386 289.388C85.2774 290.429 84.0303 291.461 82.7941 292.48L82.3393 292.858Z" fill="url(#paint32_linear_648_45)"/>
<path d="M110.337 268.045H116.049L116.479 267.682V264.961L116.049 264.605H110.337V268.045ZM117.012 270.691H107.691V261.958H117.012L119.125 263.732V268.918L117.012 270.691ZM110.337 281.105L113.209 281.862L111.006 278.103H110.337V281.105ZM120.994 289.905H128.969V283.753L126.67 283.315L121.728 275.448L127.379 270.663V260.823L121.07 255.494H95.356V261.253L99.3818 262.314V283.142L95.356 284.204V289.905H111.712V284.204L107.691 283.142V275.456H112.522L120.994 289.905ZM131.615 292.553H119.475L114.358 283.826V292.553H92.7102V282.16L96.7344 281.105V264.35L92.7102 263.296V252.853H122.041L130.027 259.595V271.885L125.195 275.985L128.298 280.932L131.615 281.557V292.553Z" fill="url(#paint33_linear_648_45)"/>
<path d="M110.643 267.741H115.935L116.174 267.544V265.107L115.938 264.91H110.643V267.741ZM116.158 268.352H110.032V264.301H116.158L116.785 264.817V267.828L116.158 268.352ZM107.997 270.386H116.901L118.817 268.774V263.871L116.901 262.265H107.997V270.386ZM117.123 270.999H107.385V261.653H117.123L119.432 263.588V269.056L117.123 270.999ZM110.643 280.866L112.57 281.376L110.829 278.408H110.643V280.866ZM113.847 282.351L110.032 281.338V277.799H111.186L113.847 282.351ZM121.166 289.599H128.664V284L126.487 283.595L121.33 275.392L127.075 270.518V260.971L120.959 255.807H95.6623V261.021L99.688 262.075V283.383L95.6623 284.437V289.599H111.406V284.437L107.385 283.383V275.15H112.697L112.784 275.297L121.166 289.599ZM129.275 290.212H120.817L120.726 290.059L112.35 275.762H107.997V282.911L112.022 283.964V290.212H95.0512V283.964L99.0739 282.911V262.549L95.0512 261.486V255.19H121.184L127.686 260.686V270.802L122.13 275.515L126.864 283.04L129.275 283.492V290.212ZM119.651 292.248H131.311V281.812L128.115 281.209L124.791 275.928L129.722 271.746V259.734L121.93 253.16H93.0196V263.057L97.0407 264.12V281.338L93.0196 282.401V292.248H114.055V282.698L119.651 292.248ZM131.921 292.858H119.301L114.669 284.955V292.858H92.4054V281.928L96.4265 280.866V264.592L92.4054 263.53V252.549H122.152L130.333 259.458V272.03L125.595 276.045L128.486 280.656L131.921 281.304V292.858Z" fill="url(#paint34_linear_648_45)"/>
<path d="M146.964 280.8H152.417L153.051 280.277V265.041L152.49 264.605H146.888L146.331 265.041V280.277L146.964 280.8ZM153.367 283.446H146.011L143.684 281.527V263.747L145.981 261.958H153.4L155.697 263.747V281.527L153.367 283.446ZM142.571 289.905H156.76C157.974 288.908 159.192 287.913 160.411 286.902C161.587 285.919 162.774 284.953 163.952 283.985V261.253L157.072 255.494H142.309L135.426 261.253V283.985L142.571 289.905ZM157.701 292.553H141.615L132.78 285.236V260.017L141.349 252.853H158.032L166.598 260.017V285.236L166.112 285.636C164.774 286.727 163.439 287.825 162.097 288.938C160.754 290.051 159.414 291.156 158.068 292.254L157.701 292.553Z" fill="url(#paint35_linear_648_45)"/>
<path d="M147.072 280.496H152.309L152.745 280.132V265.187L152.387 264.91H146.996L146.636 265.187V280.132L147.072 280.496ZM152.526 281.107H146.85L146.025 280.423V264.89L146.781 264.301H152.595L153.356 264.89V280.423L152.526 281.107ZM146.12 283.142H153.253L155.391 281.382V263.901L153.294 262.265H146.083L143.989 263.901V281.382L146.12 283.142ZM153.472 283.753H145.902L143.379 281.674V263.602L145.872 261.653H153.508L156.004 263.602V281.674L153.472 283.753ZM142.679 289.599H156.651C157.84 288.626 159.028 287.651 160.212 286.661C161.362 285.717 162.503 284.77 163.644 283.842V261.399L156.958 255.807H142.418L135.731 261.399V283.848L142.679 289.599ZM156.868 290.212H142.459L135.118 284.131V261.108L142.201 255.19H157.18L164.257 261.108V284.131L164.147 284.219C162.966 285.186 161.784 286.153 160.606 287.135C159.384 288.146 158.17 289.149 156.955 290.146L156.868 290.212ZM141.727 292.248H157.595L157.871 292.014C159.217 290.925 160.562 289.818 161.903 288.705C163.246 287.593 164.583 286.488 165.918 285.397L166.293 285.091V260.155L157.915 253.16H141.459L133.08 260.155V285.091L141.727 292.248ZM157.813 292.858H141.509L132.469 285.375V259.872L141.237 252.549H158.14L166.903 259.872V285.383L166.307 285.869C164.969 286.968 163.632 288.066 162.297 289.171C160.948 290.284 159.606 291.397 158.257 292.487L157.813 292.858Z" fill="url(#paint36_linear_648_45)"/>
<path d="M182.335 266.17L189.083 267.288L188.35 264.605H182.452L181.951 264.991V265.865L182.335 266.17ZM181.688 280.8H187.924L188.408 280.394V279.113L188.124 278.866L180.822 277.645L181.688 280.8ZM177.719 289.905H192.692L199.418 284.35V275.012L194 270.786L181.246 268.664L179.303 267.167V263.689L181.551 261.959H190.373L191.429 265.819H198.996V260.795L192.64 255.494H177.406L171.049 260.823V269.697L176.59 274.263L189.324 276.386L191.055 277.928V281.622L188.888 283.448H179.667L178.612 279.586H171.049V284.357L177.719 289.905ZM193.647 292.553H176.762L168.403 285.601V276.94H176.546L175.457 276.756L168.403 270.947V259.587L176.442 252.853H193.597L201.643 259.559V268.467H195.33L195.359 268.497L202.065 273.718V285.594L193.647 292.553Z" fill="url(#paint37_linear_648_45)"/>
<path d="M182.463 265.878L188.663 266.911L188.117 264.91H182.554L182.255 265.143V265.717L182.463 265.878ZM189.507 267.667L182.212 266.451L181.646 266.017V264.838L182.351 264.299H188.582L189.507 267.667ZM181.921 280.496H187.811L188.102 280.254V279.252L187.989 279.149L181.246 278.028L181.921 280.496ZM188.036 281.106H181.455L180.402 277.266L188.271 278.582L188.713 278.983V280.538L188.036 281.106ZM177.826 289.599H192.587L199.112 284.205V275.156L193.87 271.077L181.122 268.955L178.997 267.311V263.537L181.449 261.653H190.604L191.662 265.515H198.691V260.941L192.531 255.807H177.514L171.355 260.969V269.55L176.717 273.973L189.46 276.095L191.36 277.797V281.768L189.005 283.753H179.434L178.38 279.891H171.355V284.217L177.826 289.599ZM192.803 290.21H177.609L170.741 284.502V279.28H178.845L179.899 283.142H188.778L190.749 281.484V278.066L189.183 276.669L176.456 274.547L170.741 269.841V260.686L177.287 255.188H192.75L199.301 260.649V266.125H191.193L190.138 262.263H181.655L179.608 263.841V267.012L181.372 268.38L194.123 270.496L199.723 274.859V284.494L192.803 290.21ZM176.875 292.247H193.539L201.756 285.447V273.862L194.473 268.184L195.33 268.161H201.339V259.697L193.492 253.158H176.546L168.707 259.733V270.801L175.588 276.466L176.598 276.633L176.546 277.244H168.707V285.461L176.875 292.247ZM193.761 292.858H176.648L168.098 285.746V276.633H174.823L168.098 271.093V259.45L176.329 252.549H193.709L201.948 259.412V268.774H196.219L202.37 273.565V285.73L193.761 292.858Z" fill="url(#paint38_linear_648_45)"/>
<path d="M217.637 266.17L224.385 267.288L223.651 264.605H217.753L217.253 264.991V265.865L217.637 266.17ZM216.99 280.8H223.229L223.712 280.394V279.113L223.433 278.866L216.129 277.645L216.99 280.8ZM213.019 289.905H228L234.722 284.35V275.012L229.303 270.786L216.548 268.664L214.61 267.167V263.689L216.856 261.959H225.675L226.736 265.819H234.296V260.795L227.942 255.494H212.708L206.352 260.823V269.697L211.892 274.263L224.627 276.386L226.357 277.928V281.622L224.193 283.448H214.972L213.913 279.586H206.352V284.357L213.019 289.905ZM228.952 292.553H212.067L203.703 285.601V276.94H211.85L210.758 276.756L203.703 270.947V259.587L211.745 252.853H228.903L236.945 259.559V268.467H230.629L230.665 268.497L237.367 273.718V285.594L228.952 292.553Z" fill="url(#paint39_linear_648_45)"/>
<path d="M217.768 265.878L223.968 266.911L223.421 264.91H217.861L217.557 265.143V265.717L217.768 265.878ZM224.807 267.667L217.515 266.451L216.948 266.017V264.838L217.653 264.299H223.888L224.807 267.667ZM217.228 280.496H223.116L223.402 280.254V279.252L223.296 279.149L216.554 278.028L217.228 280.496ZM223.338 281.106H216.76L215.709 277.266L223.571 278.582L224.016 278.983V280.538L223.338 281.106ZM213.132 289.599H227.891L234.415 284.205V275.156L229.175 271.077L216.423 268.955L214.301 267.311V263.537L216.753 261.653H225.906L226.969 265.515H233.992V260.941L227.831 255.807H212.817L206.658 260.969V269.55L212.024 273.973L224.765 276.095L226.662 277.797V281.768L224.307 283.753H214.738L213.682 279.891H206.658V284.217L213.132 289.599ZM228.109 290.21H212.913L206.047 284.502V279.28H214.149L215.204 283.142H224.081L226.053 281.484V278.066L224.487 276.669L211.761 274.547L206.047 269.841V260.686L212.594 255.188H228.055L234.601 260.649V266.125H226.498L225.442 262.263H216.962L214.915 263.841V267.012L216.679 268.38L229.428 270.496L235.026 274.859V284.494L228.109 290.21ZM212.177 292.247H228.836L237.063 285.447V273.862L229.771 268.184L230.629 268.161H236.641V259.697L228.794 253.158H211.853L204.008 259.733V270.801L210.889 276.466L211.899 276.633L211.85 277.244H204.008V285.461L212.177 292.247ZM229.063 292.858H211.953L203.398 285.746V276.633H210.128L203.398 271.093V259.45L211.633 252.549H229.01L237.252 259.412V268.774H231.519L237.672 273.565V285.73L229.063 292.858Z" fill="url(#paint40_linear_648_45)"/>
<path d="M256.796 267.987H264.281L263.349 264.605H256.796V267.987ZM241.864 289.905H259.23V284.3L254.147 283.187V274.341H263.038V270.633H254.147V261.959H265.373L266.429 265.819H271.88V255.494H241.864V261.253L245.89 262.314V283.142L241.864 284.204V289.905ZM261.875 292.553H239.221V282.16L243.244 281.107V264.35L239.221 263.296V252.853H274.528V268.467H265.684V276.99H256.796V281.061L261.875 282.168V292.553Z" fill="url(#paint41_linear_648_45)"/>
<path d="M257.095 267.681H263.88L263.118 264.91H257.095V267.681ZM264.681 268.292H256.484V264.299H263.583L264.681 268.292ZM242.168 289.597H258.92V284.545L253.841 283.432V274.035H262.732V270.937H253.841V261.653H265.604L266.667 265.513H271.576V255.805H242.168V261.018L246.194 262.073V283.38L242.168 284.435V289.597ZM259.534 290.21H241.556V283.962L245.585 282.908V262.547L241.556 261.484V255.188H272.185V266.124H266.193L265.14 262.262H254.449V270.326H263.343V274.647H254.449V282.944L259.534 284.051V290.21ZM239.526 292.246H261.569V282.415L256.484 281.302V276.684H265.379V268.16H274.218V253.157H239.526V263.055L243.548 264.117V281.336L239.526 282.399V292.246ZM262.18 292.856H238.915V281.925L242.937 280.866V264.589L238.915 263.528V252.546H274.833V268.771H265.989V277.293H257.095V280.813L262.18 281.925V292.856Z" fill="url(#paint42_linear_648_45)"/>
<path d="M279.282 289.905H295.591V284.204L291.57 283.142V262.314L295.591 261.253V255.492H279.282V261.253L283.311 262.314V283.142L279.282 284.204V289.905ZM298.237 292.551H276.645V282.16L280.665 281.105V264.349L276.645 263.296V252.853H298.237V263.296L294.214 264.349V281.105L298.237 282.16V292.551Z" fill="url(#paint43_linear_648_45)"/>
<path d="M279.594 289.599H295.286V284.436L291.261 283.381V262.075L295.286 261.021V255.807H279.594V261.021L283.617 262.075V283.381L279.594 284.436V289.599ZM295.897 290.212H278.977V283.964L283.007 282.911V262.547L278.977 261.486V255.188H295.897V261.486L291.876 262.547V282.911L295.897 283.964V290.212ZM276.952 292.247H297.932V282.401L293.91 281.338V264.118L297.932 263.057V253.16H276.952V263.057L280.971 264.118V281.338L276.952 282.401V292.247ZM298.54 292.858H276.341V281.928L280.36 280.866V264.592L276.341 263.529V252.549H298.54V263.529L294.524 264.592V280.866L298.54 281.928V292.858Z" fill="url(#paint44_linear_648_45)"/>
<path d="M311.31 289.905H328.674V284.27L324.114 283.163V261.426H330.65L331.709 268.146H337.035V255.492H302.836V268.146H308.217L309.28 261.426H315.812V283.221L311.31 284.282V289.905ZM331.315 292.551H308.664V282.19L313.163 281.127V264.074H311.541L310.48 270.794H300.191V252.853H339.678V270.794H329.446L328.385 264.074H326.765V281.083L331.315 282.196V292.551Z" fill="url(#paint45_linear_648_45)"/>
<path d="M311.616 289.599H328.371V284.517L323.811 283.404V261.122H330.911L331.969 267.842H336.73V255.807H303.149V267.842H307.962L309.019 261.122H316.119V283.462L311.616 284.523V289.599ZM328.974 290.212H311.005V284.044L315.508 282.983V261.733H309.544L308.481 268.461H302.533V255.188H337.345V268.461H331.447L330.389 261.733H324.427V282.925L328.974 284.036V290.212ZM308.97 292.247H331.011V282.437L326.46 281.324V263.769H328.648L329.71 270.488H339.378V253.16H300.5V270.488H310.224L311.28 263.769H313.47V281.367L308.97 282.429V292.247ZM331.622 292.858H308.359V281.95L312.859 280.881V264.379H311.805L310.743 271.099H299.886V252.549H339.984V271.099H329.185L328.124 264.379H327.074V280.843L331.622 281.956V292.858Z" fill="url(#paint46_linear_648_45)"/>
<path d="M229.504 298.518C228.86 298.93 228.216 299.341 227.597 299.743C215.267 307.751 208.001 313.35 203.732 317.371C199.47 313.35 192.226 307.751 179.944 299.751C179.324 299.348 178.678 298.934 178.031 298.518H154.386C173.079 309.125 194.483 324.074 197.771 328.761C198.415 331.443 200.834 333.443 203.719 333.443C206.601 333.443 209.018 331.451 209.665 328.766C212.969 324.082 234.45 309.126 253.193 298.518H229.504Z" fill="url(#paint47_linear_648_45)"/>
<path d="M361.524 43.3411L332.517 2.57081C331.373 0.958002 329.512 0 327.533 0H80.0951C78.1134 0 76.2553 0.958002 75.1066 2.57081L46.0995 43.338C44.4804 45.6103 44.607 48.6906 46.3964 50.8206C51.8506 57.3203 66.0096 77.0882 66.0096 90.3032C66.0096 108.636 58.9707 169.164 55.4825 188.03C54.5324 193.426 54.3354 199.052 54.848 204.756H67.1316C66.5894 199.765 66.7019 194.864 67.5223 190.205C71.1621 170.526 78.2479 109.566 78.2479 90.3032C78.2479 74.2361 64.8531 54.762 58.7269 46.6949L83.2519 12.2367H324.376L348.9 46.6949C342.767 54.762 329.38 74.2361 329.38 90.3032C329.38 110.048 336.596 171.225 339.904 190.197C340.519 193.548 340.755 197.025 340.655 200.566H352.888C352.988 196.3 352.693 192.101 351.949 188.037C348.448 167.988 341.617 108.06 341.617 90.3032C341.617 77.0882 355.77 57.3203 361.226 50.8253C363.023 48.6906 363.142 45.6134 361.524 43.3411Z" fill="url(#paint48_linear_648_45)"/>
</g>
<defs>
<linearGradient id="paint0_linear_648_45" x1="326.982" y1="123.931" x2="291.991" y2="137.227" gradientUnits="userSpaceOnUse">
<stop stop-color="white"/>
<stop offset="1" stop-color="white" stop-opacity="0"/>
</linearGradient>
<linearGradient id="paint1_linear_648_45" x1="324.223" y1="139.753" x2="301.005" y2="156.931" gradientUnits="userSpaceOnUse">
<stop stop-color="white"/>
<stop offset="1" stop-color="white" stop-opacity="0"/>
</linearGradient>
<linearGradient id="paint2_linear_648_45" x1="328.84" y1="138.198" x2="318.866" y2="145.403" gradientUnits="userSpaceOnUse">
<stop stop-color="white"/>
<stop offset="1" stop-color="white" stop-opacity="0"/>
</linearGradient>
<linearGradient id="paint3_linear_648_45" x1="275.159" y1="71.3332" x2="241.003" y2="96.0544" gradientUnits="userSpaceOnUse">
<stop stop-color="white"/>
<stop offset="1" stop-color="white" stop-opacity="0"/>
</linearGradient>
<linearGradient id="paint4_linear_648_45" x1="304.839" y1="79.1127" x2="202.477" y2="128.974" gradientUnits="userSpaceOnUse">
<stop stop-color="white"/>
<stop offset="1" stop-color="white" stop-opacity="0"/>
</linearGradient>
<linearGradient id="paint5_linear_648_45" x1="181.593" y1="47.2736" x2="17.9414" y2="104.74" gradientUnits="userSpaceOnUse">
<stop stop-color="white"/>
<stop offset="1" stop-color="white" stop-opacity="0"/>
</linearGradient>
<linearGradient id="paint6_linear_648_45" x1="261.733" y1="28.3492" x2="191.364" y2="78.4503" gradientUnits="userSpaceOnUse">
<stop stop-color="white"/>
<stop offset="1" stop-color="white" stop-opacity="0"/>
</linearGradient>
<linearGradient id="paint7_linear_648_45" x1="244.644" y1="95.4076" x2="185.095" y2="105.812" gradientUnits="userSpaceOnUse">
<stop stop-color="white"/>
<stop offset="1" stop-color="white" stop-opacity="0"/>
</linearGradient>
<linearGradient id="paint8_linear_648_45" x1="297.232" y1="100.119" x2="180.926" y2="147.016" gradientUnits="userSpaceOnUse">
<stop stop-color="white"/>
<stop offset="1" stop-color="white" stop-opacity="0"/>
</linearGradient>
<linearGradient id="paint9_linear_648_45" x1="283.956" y1="48.6954" x2="115.902" y2="136.104" gradientUnits="userSpaceOnUse">
<stop stop-color="white"/>
<stop offset="1" stop-color="white" stop-opacity="0"/>
</linearGradient>
<linearGradient id="paint10_linear_648_45" x1="197.726" y1="78.6458" x2="125.976" y2="93.1404" gradientUnits="userSpaceOnUse">
<stop stop-color="white"/>
<stop offset="1" stop-color="white" stop-opacity="0"/>
</linearGradient>
<linearGradient id="paint11_linear_648_45" x1="26.6813" y1="211.31" x2="-7.51292" y2="220.233" gradientUnits="userSpaceOnUse">
<stop stop-color="white"/>
<stop offset="1" stop-color="white" stop-opacity="0"/>
</linearGradient>
<linearGradient id="paint12_linear_648_45" x1="26.9277" y1="211.094" x2="-7.94606" y2="220.27" gradientUnits="userSpaceOnUse">
<stop stop-color="white"/>
<stop offset="1" stop-color="white" stop-opacity="0"/>
</linearGradient>
<linearGradient id="paint13_linear_648_45" x1="61.0801" y1="209.91" x2="25.0697" y2="221.935" gradientUnits="userSpaceOnUse">
<stop stop-color="white"/>
<stop offset="1" stop-color="white" stop-opacity="0"/>
</linearGradient>
<linearGradient id="paint14_linear_648_45" x1="61.3239" y1="209.686" x2="24.6615" y2="221.978" gradientUnits="userSpaceOnUse">
<stop stop-color="white"/>
<stop offset="1" stop-color="white" stop-opacity="0"/>
</linearGradient>
<linearGradient id="paint15_linear_648_45" x1="102.461" y1="210.68" x2="58.3503" y2="230.688" gradientUnits="userSpaceOnUse">
<stop stop-color="white"/>
<stop offset="1" stop-color="white" stop-opacity="0"/>
</linearGradient>
<linearGradient id="paint16_linear_648_45" x1="102.706" y1="210.464" x2="57.9543" y2="230.746" gradientUnits="userSpaceOnUse">
<stop stop-color="white"/>
<stop offset="1" stop-color="white" stop-opacity="0"/>
</linearGradient>
<linearGradient id="paint17_linear_648_45" x1="140.609" y1="210.083" x2="100.501" y2="225.585" gradientUnits="userSpaceOnUse">
<stop stop-color="white"/>
<stop offset="1" stop-color="white" stop-opacity="0"/>
</linearGradient>
<linearGradient id="paint18_linear_648_45" x1="140.896" y1="209.867" x2="100.107" y2="225.678" gradientUnits="userSpaceOnUse">
<stop stop-color="white"/>
<stop offset="1" stop-color="white" stop-opacity="0"/>
</linearGradient>
<linearGradient id="paint19_linear_648_45" x1="203.508" y1="210.083" x2="157.826" y2="231.382" gradientUnits="userSpaceOnUse">
<stop stop-color="white"/>
<stop offset="1" stop-color="white" stop-opacity="0"/>
</linearGradient>
<linearGradient id="paint20_linear_648_45" x1="203.751" y1="209.867" x2="157.428" y2="231.442" gradientUnits="userSpaceOnUse">
<stop stop-color="white"/>
<stop offset="1" stop-color="white" stop-opacity="0"/>
</linearGradient>
<linearGradient id="paint21_linear_648_45" x1="239.906" y1="210.083" x2="199.795" y2="225.588" gradientUnits="userSpaceOnUse">
<stop stop-color="white"/>
<stop offset="1" stop-color="white" stop-opacity="0"/>
</linearGradient>
<linearGradient id="paint22_linear_648_45" x1="240.193" y1="209.867" x2="199.399" y2="225.683" gradientUnits="userSpaceOnUse">
<stop stop-color="white"/>
<stop offset="1" stop-color="white" stop-opacity="0"/>
</linearGradient>
<linearGradient id="paint23_linear_648_45" x1="276.466" y1="210.282" x2="238.071" y2="224.39" gradientUnits="userSpaceOnUse">
<stop stop-color="white"/>
<stop offset="1" stop-color="white" stop-opacity="0"/>
</linearGradient>
<linearGradient id="paint24_linear_648_45" x1="276.709" y1="210.053" x2="237.667" y2="224.43" gradientUnits="userSpaceOnUse">
<stop stop-color="white"/>
<stop offset="1" stop-color="white" stop-opacity="0"/>
</linearGradient>
<linearGradient id="paint25_linear_648_45" x1="315.878" y1="210.302" x2="274.395" y2="227.238" gradientUnits="userSpaceOnUse">
<stop stop-color="white"/>
<stop offset="1" stop-color="white" stop-opacity="0"/>
</linearGradient>
<linearGradient id="paint26_linear_648_45" x1="316.124" y1="210.084" x2="273.998" y2="227.299" gradientUnits="userSpaceOnUse">
<stop stop-color="white"/>
<stop offset="1" stop-color="white" stop-opacity="0"/>
</linearGradient>
<linearGradient id="paint27_linear_648_45" x1="354.468" y1="210.68" x2="310.357" y2="230.689" gradientUnits="userSpaceOnUse">
<stop stop-color="white"/>
<stop offset="1" stop-color="white" stop-opacity="0"/>
</linearGradient>
<linearGradient id="paint28_linear_648_45" x1="354.716" y1="210.464" x2="309.961" y2="230.75" gradientUnits="userSpaceOnUse">
<stop stop-color="white"/>
<stop offset="1" stop-color="white" stop-opacity="0"/>
</linearGradient>
<linearGradient id="paint29_linear_648_45" x1="393.062" y1="207.1" x2="351.739" y2="222.027" gradientUnits="userSpaceOnUse">
<stop stop-color="white"/>
<stop offset="1" stop-color="white" stop-opacity="0"/>
</linearGradient>
<linearGradient id="paint30_linear_648_45" x1="393.31" y1="206.884" x2="351.334" y2="222.09" gradientUnits="userSpaceOnUse">
<stop stop-color="white"/>
<stop offset="1" stop-color="white" stop-opacity="0"/>
</linearGradient>
<linearGradient id="paint31_linear_648_45" x1="87.4075" y1="258.627" x2="50.5645" y2="272.09" gradientUnits="userSpaceOnUse">
<stop stop-color="white"/>
<stop offset="1" stop-color="white" stop-opacity="0"/>
</linearGradient>
<linearGradient id="paint32_linear_648_45" x1="87.6522" y1="258.412" x2="50.1596" y2="272.151" gradientUnits="userSpaceOnUse">
<stop stop-color="white"/>
<stop offset="1" stop-color="white" stop-opacity="0"/>
</linearGradient>
<linearGradient id="paint33_linear_648_45" x1="127.897" y1="258.627" x2="86.6656" y2="276.205" gradientUnits="userSpaceOnUse">
<stop stop-color="white"/>
<stop offset="1" stop-color="white" stop-opacity="0"/>
</linearGradient>
<linearGradient id="paint34_linear_648_45" x1="128.145" y1="258.412" x2="86.2703" y2="276.269" gradientUnits="userSpaceOnUse">
<stop stop-color="white"/>
<stop offset="1" stop-color="white" stop-opacity="0"/>
</linearGradient>
<linearGradient id="paint35_linear_648_45" x1="163.366" y1="258.627" x2="126.126" y2="272.427" gradientUnits="userSpaceOnUse">
<stop stop-color="white"/>
<stop offset="1" stop-color="white" stop-opacity="0"/>
</linearGradient>
<linearGradient id="paint36_linear_648_45" x1="163.612" y1="258.412" x2="125.72" y2="272.493" gradientUnits="userSpaceOnUse">
<stop stop-color="white"/>
<stop offset="1" stop-color="white" stop-opacity="0"/>
</linearGradient>
<linearGradient id="paint37_linear_648_45" x1="198.848" y1="258.627" x2="161.738" y2="272.316" gradientUnits="userSpaceOnUse">
<stop stop-color="white"/>
<stop offset="1" stop-color="white" stop-opacity="0"/>
</linearGradient>
<linearGradient id="paint38_linear_648_45" x1="199.095" y1="258.412" x2="161.337" y2="272.377" gradientUnits="userSpaceOnUse">
<stop stop-color="white"/>
<stop offset="1" stop-color="white" stop-opacity="0"/>
</linearGradient>
<linearGradient id="paint39_linear_648_45" x1="234.15" y1="258.627" x2="197.039" y2="272.317" gradientUnits="userSpaceOnUse">
<stop stop-color="white"/>
<stop offset="1" stop-color="white" stop-opacity="0"/>
</linearGradient>
<linearGradient id="paint40_linear_648_45" x1="234.397" y1="258.412" x2="196.638" y2="272.378" gradientUnits="userSpaceOnUse">
<stop stop-color="white"/>
<stop offset="1" stop-color="white" stop-opacity="0"/>
</linearGradient>
<linearGradient id="paint41_linear_648_45" x1="271.154" y1="258.627" x2="232.692" y2="273.508" gradientUnits="userSpaceOnUse">
<stop stop-color="white"/>
<stop offset="1" stop-color="white" stop-opacity="0"/>
</linearGradient>
<linearGradient id="paint42_linear_648_45" x1="271.4" y1="258.409" x2="232.292" y2="273.569" gradientUnits="userSpaceOnUse">
<stop stop-color="white"/>
<stop offset="1" stop-color="white" stop-opacity="0"/>
</linearGradient>
<linearGradient id="paint43_linear_648_45" x1="296.174" y1="258.627" x2="270.565" y2="264.686" gradientUnits="userSpaceOnUse">
<stop stop-color="white"/>
<stop offset="1" stop-color="white" stop-opacity="0"/>
</linearGradient>
<linearGradient id="paint44_linear_648_45" x1="296.419" y1="258.412" x2="270.125" y2="264.711" gradientUnits="userSpaceOnUse">
<stop stop-color="white"/>
<stop offset="1" stop-color="white" stop-opacity="0"/>
</linearGradient>
<linearGradient id="paint45_linear_648_45" x1="335.904" y1="258.627" x2="294.249" y2="276.652" gradientUnits="userSpaceOnUse">
<stop stop-color="white"/>
<stop offset="1" stop-color="white" stop-opacity="0"/>
</linearGradient>
<linearGradient id="paint46_linear_648_45" x1="336.152" y1="258.412" x2="293.854" y2="276.716" gradientUnits="userSpaceOnUse">
<stop stop-color="white"/>
<stop offset="1" stop-color="white" stop-opacity="0"/>
</linearGradient>
<linearGradient id="paint47_linear_648_45" x1="243.75" y1="303.598" x2="194.54" y2="364.161" gradientUnits="userSpaceOnUse">
<stop stop-color="white"/>
<stop offset="1" stop-color="white" stop-opacity="0"/>
</linearGradient>
<linearGradient id="paint48_linear_648_45" x1="332.3" y1="29.7822" x2="58.9495" y2="214.287" gradientUnits="userSpaceOnUse">
<stop stop-color="white"/>
<stop offset="1" stop-color="white" stop-opacity="0"/>
</linearGradient>
</defs>
</svg>
